<?xml version="1.0" encoding="iso-8859-1"?>
<!-- Generator: Adobe Illustrator 19.0.0, SVG Export Plug-In . SVG Version: 6.00 Build 0)  -->
<svg version="1.1" id="Capa_1" xmlns="http://www.w3.org/2000/svg" xmlns:xlink="http://www.w3.org/1999/xlink" x="0px" y="0px"
	 viewBox="0 0 511.998 511.998" style="enable-background:new 0 0 511.998 511.998;" xml:space="preserve">
<path style="fill:#E7E8E3;" d="M503.916,397.66c0,16.188-13.122,29.311-29.309,29.311H37.393c-16.188,0-29.309-13.124-29.309-29.311
	V114.336c0-16.188,13.122-29.31,29.309-29.31h437.212c16.188,0,29.309,13.123,29.309,29.31v283.325L503.916,397.66L503.916,397.66z"
	/>
<path style="fill:#202121;" d="M415.886,180.29h-32.161h-18.621c-4.68,0-8.896,1.989-11.848,5.166
	c-2.952-3.178-7.168-5.166-11.848-5.166h-9.593c-0.077,0-0.151,0.009-0.227,0.01c-0.065-0.001-0.128-0.01-0.193-0.01h-36.113h-9.03
	c-4.779,0-9.129,2.088-12.11,5.455c-1.407-1.443-3.076-2.62-4.927-3.457c-2.321-1.277-4.98-1.998-7.788-1.998h-52.474
	c-4.374,0-8.389,1.748-11.325,4.628c-2.935-2.879-6.948-4.628-11.324-4.628h-1.61H138.99c-4.875,0-9.489,2.199-12.559,5.986
	c-3.07,3.787-4.267,8.755-3.26,13.524l27.646,130.902c1.579,7.477,8.177,12.827,15.819,12.827h53.038h4.514
	c4.498,0,8.612-1.85,11.566-4.871c2.953,3.021,7.069,4.871,11.566,4.871h0.564h55.858h0.564c3.626,0,7.01-1.216,9.741-3.281
	c1.514,0.549,3.046,1.053,4.608,1.468c9.207,3.159,20.412,4.633,35.162,4.633h2.26c0.443,0,0.882-0.018,1.317-0.054
	c22.928-0.527,40.959-6.132,53.606-16.669c0.133-0.111,0.264-0.224,0.393-0.34c13.709-12.189,20.66-30.113,20.66-53.275v-79.555
	C432.055,187.529,424.816,180.29,415.886,180.29z M306.425,317.204l25.269-120.181h0.26L306.455,317.23
	C306.447,317.221,306.435,317.213,306.425,317.204z M247.321,327.36l-11.565-82.617l-11.567,82.617h-4.514h-53.038l-27.646-130.902
	h45.703h1.61l11.062,75.336l11.587-75.336h52.474l0.085,0.565h1.044l11.573,80.451l12.122-81.016h9.03h20.011l-24.689,117.42
	c-1.01,4.801,0.229,9.741,3.252,13.482h-45.97h-0.566l0,0H247.321z M415.886,276.012c0,18.62-5.079,32.162-15.235,41.192
	c-9.782,8.15-24.817,12.626-44.568,12.946l-0.005,0.03h-2.26c-12.412,0-22.567-1.13-30.467-3.95
	c-0.731-0.182-1.442-0.393-2.147-0.614l20.202-95.237v47.329c0,5.64,0.565,10.156,2.821,12.976c2.256,2.821,5.079,4.514,9.025,4.514
	c3.387,0,6.21-1.693,8.466-4.514c2.256-2.82,3.386-7.336,3.386-12.411v-81.814h18.621h32.161v79.555l0,0V276.012z"/>
<g style="opacity:0.15;">
	<path style="fill:#202121;" d="M28.922,397.66V114.336c0-16.188,13.124-29.31,29.311-29.31h-20.84
		C21.206,85.024,8.084,98.148,8.084,114.335v283.324c0,16.188,13.122,29.311,29.309,29.311h20.84
		C42.047,426.971,28.922,413.847,28.922,397.66z"/>
</g>
<polygon style="fill:#FFC715;" points="331.275,197.023 331.393,196.458 295.281,196.458 286.251,196.458 274.129,277.474 
	262.556,197.023 261.511,197.023 261.426,196.458 208.952,196.458 197.365,271.793 186.303,196.458 186.303,196.458 
	184.693,196.458 138.989,196.458 166.636,327.36 219.674,327.36 224.188,327.36 235.756,244.743 247.321,327.36 247.886,327.36 
	303.743,327.36 304.307,327.36 331.955,197.023 "/>
<path style="fill:#44423E;" d="M383.725,196.458h-18.621v81.814c0,5.075-1.13,9.59-3.386,12.411
	c-2.256,2.821-5.079,4.515-8.465,4.515c-3.946,0-6.769-1.693-9.025-4.515c-2.256-2.82-2.821-7.336-2.821-12.976v-81.25h-9.593
	l-25.389,120.746c4.512,3.949,10.157,7.335,16.927,9.025c7.9,2.821,18.055,3.95,30.467,3.95h2.26l0.005-0.03
	c19.749-0.319,34.786-4.796,44.568-12.946c10.156-9.03,15.235-22.571,15.235-41.192v-79.555h-32.163L383.725,196.458
	L383.725,196.458z"/>
<g>
	<path style="fill:#202121;" d="M131.503,343.97c-3.74,0-7.098-2.611-7.901-6.416L92.275,189.229
		c-0.923-4.369,1.87-8.658,6.239-9.58c4.368-0.924,8.658,1.87,9.58,6.239l31.327,148.326c0.923,4.369-1.87,8.658-6.239,9.58
		C132.619,343.913,132.057,343.97,131.503,343.97z"/>
	<path style="fill:#202121;" d="M104.556,343.97c-3.74,0-7.098-2.611-7.901-6.416L65.328,189.229
		c-0.923-4.369,1.87-8.658,6.239-9.58c4.365-0.924,8.658,1.87,9.58,6.239l31.326,148.326c0.923,4.369-1.87,8.658-6.239,9.58
		C105.671,343.913,105.11,343.97,104.556,343.97z"/>
	<path style="fill:#202121;" d="M474.607,435.056H37.393C16.774,435.056,0,418.28,0,397.66V114.336
		c0-20.62,16.774-37.394,37.393-37.394h437.212c20.619,0,37.393,16.775,37.393,37.394v31.459c0,4.466-3.62,8.084-8.084,8.084
		c-4.466,0-8.084-3.618-8.084-8.084v-31.459c0-11.704-9.522-21.226-21.225-21.226H37.393c-11.703-0.001-21.225,9.521-21.225,21.225
		v283.324c0,11.705,9.522,21.227,21.225,21.227h437.212c11.703,0,21.225-9.522,21.225-21.227V172.023
		c0-4.466,3.618-8.084,8.084-8.084c4.465,0,8.084,3.618,8.084,8.084V397.66C512,418.28,495.226,435.056,474.607,435.056z"/>
	<path style="fill:#202121;" d="M304.316,335.446c-0.552,0-1.11-0.057-1.671-0.175c-4.37-0.918-7.167-5.204-6.25-9.574
		l27.507-130.902c0.918-4.371,5.214-7.167,9.574-6.25c4.37,0.918,7.167,5.204,6.25,9.574l-27.507,130.902
		C311.419,332.831,308.059,335.446,304.316,335.446z"/>
</g>
<g>
</g>
<g>
</g>
<g>
</g>
<g>
</g>
<g>
</g>
<g>
</g>
<g>
</g>
<g>
</g>
<g>
</g>
<g>
</g>
<g>
</g>
<g>
</g>
<g>
</g>
<g>
</g>
<g>
</g>
</svg>
