<?xml version="1.0" encoding="iso-8859-1"?>
<!-- Generator: Adobe Illustrator 19.0.0, SVG Export Plug-In . SVG Version: 6.00 Build 0)  -->
<svg version="1.1" id="Capa_1" xmlns="http://www.w3.org/2000/svg" xmlns:xlink="http://www.w3.org/1999/xlink" x="0px" y="0px"
	 viewBox="0 0 511.998 511.998" style="enable-background:new 0 0 511.998 511.998;" xml:space="preserve">
<path style="fill:#E7E8E3;" d="M503.916,397.661c0,16.188-13.122,29.311-29.309,29.311H37.393
	c-16.188,0-29.309-13.124-29.309-29.311V114.336c0-16.188,13.122-29.31,29.309-29.31h437.212c16.188,0,29.309,13.123,29.309,29.31
	v283.326L503.916,397.661L503.916,397.661z"/>
<g style="opacity:0.15;">
	<path style="fill:#202121;" d="M28.922,397.661V114.336c0-16.188,13.124-29.31,29.311-29.31h-20.84
		c-16.187,0-29.309,13.123-29.309,29.31v283.326c0,16.188,13.122,29.311,29.309,29.311h20.84
		C42.047,426.973,28.922,413.849,28.922,397.661z"/>
</g>
<path style="fill:#202121;" d="M474.607,435.057H37.393C16.775,435.057,0,418.282,0,397.661V114.336
	c0-20.619,16.775-37.394,37.393-37.394h437.212c20.619,0,37.393,16.775,37.393,37.394v31.459c0,4.465-3.62,8.084-8.084,8.084
	c-4.466,0-8.084-3.62-8.084-8.084v-31.459c0-11.704-9.522-21.226-21.225-21.226H37.393c-11.703,0-21.225,9.522-21.225,21.226
	v283.326c0,11.705,9.522,21.227,21.225,21.227h437.212c11.703,0,21.225-9.522,21.225-21.227V172.025
	c0-4.465,3.618-8.084,8.084-8.084c4.465,0,8.084,3.62,8.084,8.084v225.637C512,418.282,495.226,435.057,474.607,435.057z"/>
<path style="fill:#005EB6;" d="M227.162,220.352c0-25.645,11.813-48.527,30.293-63.51c-14.046-11.388-31.94-18.219-51.43-18.219
	c-45.137,0-81.728,36.59-81.728,81.729c0,45.136,36.591,81.725,81.728,81.725c19.489,0,37.384-6.826,51.43-18.213
	C238.975,268.876,227.162,245.996,227.162,220.352z"/>
<path style="fill:#0099DF;" d="M308.886,138.621c-19.492,0-37.386,6.831-51.432,18.219c18.482,14.983,30.294,37.864,30.294,63.51
	c0,25.643-11.814,48.524-30.294,63.511c14.046,11.387,31.94,18.213,51.432,18.213c45.137,0,81.726-36.589,81.726-81.725
	C390.613,175.214,354.023,138.621,308.886,138.621z"/>
<path style="fill:#2271CE;" d="M287.749,220.352c0-25.645-11.814-48.527-30.294-63.51c-18.481,14.983-30.293,37.864-30.293,63.51
	c0,25.643,11.813,48.524,30.293,63.511C275.936,268.876,287.749,245.996,287.749,220.352z"/>
<g>
	<path style="fill:#202121;" d="M308.886,130.539c-15.31,0-30.549,4.012-43.903,11.491c-1.722,0.965-3.414,1.987-5.069,3.062
		c-0.694,0.451-1.407,1.102-2.156,1.447c-0.543,0.25-0.172,0.185-0.609,0c-0.195-0.083-0.428-0.294-0.612-0.419
		c-0.46-0.313-0.923-0.621-1.388-0.925c-3.2-2.09-6.534-3.975-9.975-5.642c-6.868-3.326-14.157-5.779-21.641-7.276
		c-13.199-2.64-26.968-2.261-39.999,1.112c-11.509,2.979-22.379,8.281-31.835,15.485c-9.314,7.097-17.227,16.006-23.161,26.101
		c-6.064,10.315-10.023,21.83-11.571,33.696c-1.599,12.254-0.659,24.824,2.787,36.692c3.294,11.347,8.868,22.002,16.276,31.205
		c7.375,9.162,16.537,16.863,26.844,22.532c10.519,5.786,22.183,9.414,34.128,10.611c14.561,1.459,29.399-0.701,42.948-6.232
		c3.533-1.442,6.976-3.11,10.298-4.988c1.718-0.971,3.405-1.999,5.056-3.083c0.361-0.237,0.721-0.477,1.08-0.72
		c0.179-0.121,0.833-0.735,1.07-0.735c0.281,0,0.984,0.678,1.223,0.84c0.41,0.276,0.822,0.549,1.236,0.818
		c6.454,4.196,13.449,7.555,20.756,9.978c13.509,4.48,28.031,5.693,42.094,3.501c11.842-1.845,23.27-6.101,33.444-12.434
		c9.939-6.186,18.647-14.316,25.505-23.803c6.948-9.611,11.967-20.586,14.655-32.137c2.806-12.055,3.077-24.689,0.811-36.856
		c-2.18-11.703-6.731-22.929-13.289-32.862c-6.476-9.809-14.874-18.325-24.589-24.939c-9.827-6.689-20.969-11.399-32.625-13.75
		C320.825,131.129,314.855,130.539,308.886,130.539z M270.4,184.568c7.34,13.202,10.477,28.656,8.838,43.677
		c-1.675,15.34-8.149,29.92-18.501,41.375c-0.6,0.665-1.215,1.317-1.838,1.961c-0.337,0.349-0.676,0.696-1.023,1.035
		c-0.059,0.058-0.344,0.402-0.42,0.403c-0.116,0.001-0.603-0.58-0.715-0.693c-1.362-1.358-2.669-2.779-3.916-4.243
		c-2.53-2.969-4.844-6.134-6.874-9.466c-3.929-6.451-6.833-13.509-8.613-20.849c-3.625-14.942-2.356-30.564,3.204-44.857
		c2.76-7.098,6.82-13.708,11.67-19.563c1.212-1.463,2.488-2.869,3.807-4.235c0.332-0.344,0.665-0.686,1.007-1.019
		c0.518-0.506,0.539-0.318,1.002,0.138c0.755,0.743,1.483,1.516,2.201,2.293c2.64,2.861,5.081,5.935,7.213,9.193
		C268.481,181.307,269.477,182.91,270.4,184.568C270.494,184.74,269.868,183.615,270.4,184.568z M206.026,293.993
		c-17.202,0-34.072-6.147-47.253-17.199c-12.968-10.874-21.983-26.13-25.119-42.772c-3.226-17.115-0.212-35.133,8.464-50.236
		c8.372-14.575,21.722-26.075,37.401-32.145c18.578-7.192,39.706-6.405,57.748,2.034c2.519,1.178,4.97,2.5,7.339,3.956
		c-12.501,12.773-21.048,29.298-24.136,46.911c-3.158,18.018-0.807,36.75,6.818,53.383c4.265,9.303,10.183,17.85,17.335,25.168
		C233.057,290.255,219.618,293.993,206.026,293.993z M308.886,293.993c-13.593,0-27.034-3.738-38.598-10.901
		c12.648-12.907,21.244-29.671,24.25-47.496c3.03-17.965,0.592-36.572-7.05-53.114c-4.246-9.189-10.128-17.632-17.2-24.868
		c17.418-10.793,39.12-13.712,58.806-8.086c16.208,4.632,30.548,14.933,40.198,28.744c9.962,14.257,14.557,31.844,12.9,49.155
		c-1.629,17.015-9.33,33.14-21.457,45.173c-12.098,12.007-28.235,19.576-45.221,21.098
		C313.311,293.895,311.099,293.993,308.886,293.993z"/>
	<path style="fill:#202121;" d="M162.038,337.737c-14.049,0-25.48,11.274-25.48,25.131c0,13.918,11.43,25.24,25.48,25.24
		c5.355,0,10.586-1.675,15.127-4.843c0.225-0.157,0.295-0.458,0.165-0.698l-5.844-10.786c-0.081-0.151-0.23-0.252-0.399-0.277
		c-0.175-0.023-0.34,0.033-0.46,0.157c-2.171,2.214-4.924,3.385-7.961,3.385c-6.042,0-12.509-4.805-12.509-11.96
		c0-7.515,6.283-12.006,12.358-12.006c3.21,0,6.085,1.249,8.094,3.518c0.115,0.133,0.29,0.196,0.464,0.179
		c0.174-0.021,0.328-0.122,0.413-0.276l6.052-11.002c0.13-0.238,0.065-0.535-0.155-0.695
		C172.851,339.489,167.546,337.737,162.038,337.737z"/>
	<path style="fill:#202121;" d="M192.142,319.427c-4.01,0-7.27,3.261-7.27,7.27s3.261,7.27,7.27,7.27c4.01,0,7.27-3.261,7.27-7.27
		S196.152,319.427,192.142,319.427z"/>
	<path style="fill:#202121;" d="M198.874,339.247h-13.463c-0.298,0-0.539,0.241-0.539,0.539v46.488c0,0.298,0.241,0.539,0.539,0.539
		h13.463c0.298,0,0.539-0.241,0.539-0.539v-46.488C199.413,339.489,199.171,339.247,198.874,339.247z"/>
	<path style="fill:#202121;" d="M242.258,339.385c-2.413-0.868-5.111-1.325-7.801-1.325c-6.398,0-11.818,2.143-15.053,5.915
		l-1.553-4.371c-0.075-0.216-0.279-0.359-0.508-0.359H207.22c-0.298,0-0.539,0.241-0.539,0.539v46.488
		c0,0.298,0.241,0.539,0.539,0.539h13.045c0.298,0,0.539-0.241,0.539-0.539l-0.009-25.575c0.997-5.471,5.63-9.442,11.017-9.442
		c1.659,0,3.317,0.37,4.927,1.099c0.132,0.061,0.282,0.063,0.418,0.012c0.135-0.053,0.244-0.157,0.3-0.291l5.114-11.972
		c0.058-0.137,0.058-0.291-0.002-0.427C242.51,339.543,242.398,339.437,242.258,339.385z"/>
	<path style="fill:#202121;" d="M284.938,339.385c-2.413-0.868-5.111-1.325-7.801-1.325c-6.399,0-11.818,2.143-15.053,5.915
		l-1.553-4.371c-0.075-0.216-0.279-0.359-0.508-0.359H249.9c-0.298,0-0.539,0.241-0.539,0.539v46.488
		c0,0.298,0.241,0.539,0.539,0.539h13.045c0.297,0,0.539-0.241,0.539-0.539l-0.009-25.575c0.997-5.471,5.63-9.442,11.017-9.442
		c1.659,0,3.317,0.37,4.927,1.099c0.132,0.061,0.282,0.063,0.418,0.012c0.135-0.053,0.244-0.157,0.3-0.291l5.114-11.972
		c0.058-0.137,0.058-0.291-0.002-0.427C285.19,339.543,285.078,339.437,284.938,339.385z"/>
	<path style="fill:#202121;" d="M337.246,339.247h-13.358c-0.297,0-0.539,0.241-0.539,0.539v22.759c0,2.966-1.02,5.908-2.789,8.058
		c-1.851,2.114-4.43,3.376-6.9,3.376c-2.475,0-5.031-1.235-6.983-3.35c-1.72-2.222-2.707-5.169-2.707-8.083v-22.759
		c0-0.297-0.241-0.539-0.539-0.539h-13.358c-0.298,0-0.539,0.241-0.539,0.539v23.082c0,13.446,11.273,25.24,24.124,25.24
		s24.124-11.794,24.124-25.24v-23.082C337.785,339.489,337.544,339.247,337.246,339.247z"/>
	<path style="fill:#202121;" d="M368.625,358.154c-1.025-0.36-2.038-0.675-3.001-0.974c-4.212-1.309-6.579-2.157-6.243-4.382
		c0.275-2.18,1.635-3.332,3.932-3.332c2.726,0,6.474,1.658,10.552,4.668c0.121,0.088,0.275,0.123,0.423,0.096
		c0.149-0.029,0.278-0.117,0.357-0.247l6.052-9.814c0.156-0.252,0.078-0.583-0.174-0.741c-6.063-3.783-10.339-5.583-18.235-5.583
		c-9.409,0-16.506,6.307-16.506,14.668c0,9.461,6.585,12.321,15.193,15.074c3.746,1.209,6.201,2.218,6.201,5.096
		c0,2.174-1.631,3.472-4.362,3.472c-2.827,0-7.479-1.594-11.281-6.086c-0.099-0.116-0.243-0.185-0.396-0.191
		c-0.15,0.01-0.3,0.057-0.405,0.166l-8.347,8.736c-0.199,0.209-0.198,0.539,0.002,0.747c5.352,5.532,13.087,8.578,21.781,8.578
		c9.125,0,17.131-7.057,17.131-15.101C381.299,366.023,376.671,360.607,368.625,358.154z"/>
</g>
<g>
</g>
<g>
</g>
<g>
</g>
<g>
</g>
<g>
</g>
<g>
</g>
<g>
</g>
<g>
</g>
<g>
</g>
<g>
</g>
<g>
</g>
<g>
</g>
<g>
</g>
<g>
</g>
<g>
</g>
</svg>
