<?xml version="1.0" encoding="iso-8859-1"?>
<!-- Generator: Adobe Illustrator 19.0.0, SVG Export Plug-In . SVG Version: 6.00 Build 0)  -->
<svg version="1.1" id="Capa_1" xmlns="http://www.w3.org/2000/svg" xmlns:xlink="http://www.w3.org/1999/xlink" x="0px" y="0px"
	 viewBox="0 0 511.998 511.998" style="enable-background:new 0 0 511.998 511.998;" xml:space="preserve">
<path style="fill:#E7E8E3;" d="M503.916,397.661c0,16.188-13.122,29.311-29.309,29.311H37.393
	c-16.188,0-29.309-13.124-29.309-29.311V114.336c0-16.188,13.122-29.31,29.309-29.31h437.212c16.188,0,29.309,13.123,29.309,29.31
	v283.326L503.916,397.661L503.916,397.661z"/>
<g style="opacity:0.15;">
	<path style="fill:#202121;" d="M28.922,397.661V114.336c0-16.188,13.124-29.31,29.311-29.31h-20.84
		c-16.187,0-29.309,13.123-29.309,29.31v283.326c0,16.188,13.122,29.311,29.309,29.311h20.84
		C42.047,426.973,28.922,413.849,28.922,397.661z"/>
</g>
<path style="fill:#202121;" d="M474.607,435.057H37.393C16.775,435.057,0,418.282,0,397.661V114.336
	c0-20.62,16.775-37.394,37.393-37.394h437.212c20.619,0,37.393,16.775,37.393,37.394v31.459c0,4.466-3.62,8.084-8.084,8.084
	c-4.466,0-8.084-3.618-8.084-8.084v-31.459c0-11.704-9.522-21.226-21.225-21.226H37.393c-11.703,0-21.225,9.522-21.225,21.226
	v283.326c0,11.705,9.522,21.227,21.225,21.227h437.212c11.703,0,21.225-9.522,21.225-21.227V172.025
	c0-4.466,3.618-8.084,8.084-8.084c4.465,0,8.084,3.618,8.084,8.084v225.637C512,418.282,495.226,435.057,474.607,435.057z"/>
<g>
	<path style="fill:#005E88;" d="M210.137,356.053c4.542-2.268,7.947-6.243,7.947-13.053c0-3.975-1.137-7.381-3.974-10.222
		c-3.406-3.406-9.081-5.107-15.897-5.107h-27.816v59.605h28.385c13.622,0,22.707-5.676,22.707-16.461
		C221.49,362.868,216.948,358.893,210.137,356.053z M182.889,339.594h13.625c5.676,0,8.516,2.269,8.516,6.242
		c0,4.543-3.975,6.244-9.654,6.244h-12.487V339.594z M198.783,375.923h-15.895v-13.054h15.895c6.811,0,9.653,2.836,9.653,6.81
		C208.436,373.652,204.462,375.923,198.783,375.923z"/>
	<path style="fill:#005E88;" d="M266.903,356.053c4.542-2.268,7.948-6.243,7.948-13.053c0-3.975-1.137-7.381-3.973-10.222
		c-3.407-3.406-9.082-5.107-15.897-5.107h-27.815v59.605h28.383c13.624,0,22.707-5.676,22.707-16.461
		C278.256,362.868,273.714,358.893,266.903,356.053z M239.657,339.594h13.622c5.676,0,8.516,2.269,8.516,6.242
		c0,4.543-3.973,6.244-9.651,6.244h-12.487L239.657,339.594L239.657,339.594z M255.549,375.923h-15.892v-13.054h15.892
		c6.811,0,9.653,2.836,9.653,6.81C265.202,373.652,261.228,375.923,255.549,375.923z"/>
	<path style="fill:#005E88;" d="M323.669,356.053c4.543-2.268,7.949-6.243,7.949-13.053c0-3.975-1.137-7.381-3.975-10.222
		c-3.405-3.406-9.081-5.107-15.896-5.107h-27.816v59.605h28.383c13.625,0,22.709-5.676,22.709-16.461
		C335.025,362.868,330.483,358.893,323.669,356.053z M296.991,339.594h13.055c5.675,0,8.515,2.269,8.515,6.242
		c0,4.543-3.974,6.244-9.653,6.244H296.99v-12.486H296.991z M312.316,375.923h-15.892v-13.054h15.325
		c6.814,0,9.653,2.836,9.653,6.81C321.401,373.652,317.995,375.923,312.316,375.923z"/>
	<path style="fill:#005E88;" d="M308.911,188.022c-1.701-9.081-6.243-17.03-14.192-22.705l-36.895-26.682
		c-2.273-1.701-3.975-3.975-4.544-6.812c-0.567-2.837,0-5.675,1.702-7.948l-2.837-2.268l-19.868,27.246
		c-4.543,6.249-6.811,13.06-6.811,20.44c0,1.701,0,3.971,0.567,5.675c1.701,9.081,6.244,17.03,14.192,22.708l30.654,22.137
		c2.863,2.047,5.12,4.979,6.379,8.154l0.015-0.009c0,0,0.04,0.103,0.103,0.283c0.431,1.144,0.735,2.317,0.882,3.492v0.316
		c0.251,1.929,0.269,4.317-0.488,6.656v0.001c-0.932,3.761-2.847,6.435-2.847,6.435l3.335,2.486l24.41-33.49
		C308.343,206.755,310.615,197.108,308.911,188.022z"/>
	<path style="fill:#005E88;" d="M268.577,244.548c-1.504-5.244-4.638-9.949-9.053-13.382l-22.891-16.504l-0.022-0.038
		c-5.92-4.715-2.065-10.137-2.065-10.137l-3.565-2.933l-3.617,5.181l-9.279,12.509c-3.339,4.294-4.669,9.39-4.674,14.948
		c-0.023,1.239,0.023,2.502,0.132,3.787c1.137,6.242,4.542,11.922,9.649,15.896l23.698,17.082c0.456,0.347,1.134,0.914,1.729,1.605
		c0.124,0.146,0.245,0.293,0.356,0.445c0.124,0.168,0.238,0.342,0.342,0.52c0.084,0.144,0.165,0.291,0.233,0.443
		c0.023,0.053,0.045,0.106,0.067,0.157c0.087,0.224,0.161,0.456,0.203,0.703c0.25,0.991,0.308,2.329-0.464,3.712
		c-0.128,0.264-0.298,0.508-0.5,0.736c-0.114,0.148-0.231,0.294-0.368,0.442l3.656,3.104l13.058-17.598
		c1.005-1.407,1.858-2.961,2.552-4.603C270.607,253.452,268.985,246.13,268.577,244.548z"/>
	<polygon style="fill:#005E88;" points="303.234,288.502 201.623,288.502 197.798,300.424 224.895,300.424 230.008,317.453 
		274.851,317.453 279.958,300.424 307.07,300.424 	"/>
</g>
<g>
	<path style="fill:#202121;" d="M205.03,345.837c0-3.973-2.841-6.242-8.516-6.242h-13.625v12.486h12.487
		C201.054,352.081,205.03,350.38,205.03,345.837z"/>
	<path style="fill:#202121;" d="M198.783,362.868h-15.895v13.054h15.895c5.678,0,9.653-2.27,9.653-6.244
		C208.436,365.703,205.594,362.868,198.783,362.868z"/>
	<path style="fill:#202121;" d="M255.549,362.868h-15.892v13.054h15.892c5.678,0,9.653-2.27,9.653-6.244
		C265.202,365.703,262.361,362.868,255.549,362.868z"/>
	<path style="fill:#202121;" d="M261.796,345.837c0-3.973-2.841-6.242-8.516-6.242h-13.622v12.486h12.487
		C257.823,352.081,261.796,350.38,261.796,345.837z"/>
	<path style="fill:#202121;" d="M311.749,362.868h-15.325v13.054h15.892c5.678,0,9.086-2.27,9.086-6.244
		C321.401,365.703,318.563,362.868,311.749,362.868z"/>
	<path style="fill:#202121;" d="M318.563,345.837c0-3.973-2.841-6.242-8.515-6.242h-13.055v12.486h11.919
		C314.589,352.081,318.563,350.38,318.563,345.837z"/>
	<path style="fill:#202121;" d="M346.09,353.507c1.116-3.255,1.697-6.781,1.697-10.506c0-10.691-4.734-17.673-8.704-21.648
		c-5.146-5.148-12.216-8.349-20.682-9.433c0.62-0.611,1.212-1.257,1.733-1.973c3.043-4.177,3.907-9.556,2.325-14.474l-3.835-11.923
		c-2.15-6.684-8.37-11.217-15.391-11.217h-23.374c1.043-1.706,1.981-3.51,2.783-5.405c0.046-0.11,0.092-0.22,0.136-0.332
		c0.521-1.313,0.947-2.616,1.306-3.903c2.87-1.11,5.395-3.017,7.237-5.545l24.3-33.34c8.391-11.018,11.737-25.134,9.179-38.769
		c-2.559-13.659-9.699-25.021-20.648-32.853l-33.521-24.242c1.556-5.996-0.427-12.6-5.553-16.699l-2.837-2.268
		c-2.883-2.306-6.448-3.541-10.098-3.541c-0.714,0-1.43,0.047-2.146,0.143c-4.374,0.585-8.318,2.934-10.918,6.499l-19.868,27.246
		c-6.584,9.055-9.916,19.132-9.916,29.967c0,2.213,0,5.762,1.009,9.496c1.154,5.703,3.122,10.991,5.832,15.781l-1.899,2.72
		l-9.047,12.194c-5.243,6.82-7.917,15.081-7.951,24.558c-0.025,1.726,0.038,3.506,0.19,5.297c0.043,0.516,0.112,1.028,0.204,1.537
		c1.86,10.217,7.409,19.365,15.625,25.758c0.157,0.122,0.316,0.24,0.475,0.356l7.413,5.343H201.62
		c-7.027,0-13.248,4.538-15.396,11.228l-3.825,11.922c-1.578,4.918-0.71,10.295,2.333,14.467c0.4,0.549,0.835,1.063,1.295,1.551
		h-15.632c-8.929,0-16.168,7.239-16.168,16.168v59.605c0,8.929,7.239,16.168,16.168,16.168h28.385c7.285,0,13.47-1.214,18.628-3.296
		c2.713,2.059,6.086,3.296,9.755,3.296h28.383c7.285,0,13.47-1.214,18.628-3.296c2.713,2.059,6.086,3.296,9.755,3.296h28.383
		c26.857,0,38.878-16.388,38.878-32.629C351.193,365.572,350.066,359.305,346.09,353.507z M232.277,148.853l19.868-27.246
		l2.837,2.268c-1.702,2.273-2.269,5.111-1.702,7.948c0.569,2.838,2.27,5.111,4.544,6.812l36.895,26.682
		c7.948,5.676,12.491,13.625,14.192,22.705c1.704,9.084-0.567,18.733-6.243,26.114l-24.41,33.49l-3.335-2.486
		c0,0,1.913-2.673,2.847-6.435v-0.001c0.758-2.339,0.739-4.727,0.488-6.656v-0.316c-0.148-1.175-0.451-2.349-0.882-3.492
		c-0.063-0.18-0.103-0.283-0.103-0.283l-0.015,0.009c-1.259-3.175-3.516-6.107-6.379-8.154l-30.654-22.137
		c-4.699-3.357-8.198-7.513-10.633-12.222l0,0c-0.001-0.002-0.002-0.004-0.003-0.006c-0.829-1.602-1.534-3.269-2.118-4.993
		c-0.014-0.041-0.028-0.08-0.042-0.12c-0.272-0.812-0.517-1.636-0.737-2.471c-0.033-0.126-0.065-0.254-0.097-0.382
		c-0.209-0.83-0.402-1.665-0.562-2.516c-0.567-1.704-0.567-3.973-0.567-5.675C225.465,161.913,227.733,155.102,232.277,148.853z
		 M213.542,237.979c-0.109-1.284-0.154-2.547-0.132-3.787c0.004-5.559,1.334-10.654,4.674-14.948l8.649-11.66l0,0l0.629-0.848
		l3.617-5.181l3.565,2.933c0,0-3.855,5.422,2.065,10.137l0.022,0.038l22.891,16.504c4.416,3.434,7.55,8.138,9.053,13.382
		c0.399,1.544,1.94,8.552-0.635,15.557l0,0c-0.065,0.174-0.119,0.347-0.188,0.521c-0.695,1.641-1.548,3.196-2.552,4.603
		l-13.058,17.598l-3.656-3.104c0.137-0.148,0.252-0.294,0.368-0.442c0.203-0.229,0.372-0.472,0.5-0.736
		c0.772-1.383,0.714-2.722,0.463-3.712c-0.042-0.247-0.115-0.479-0.203-0.703c-0.022-0.053-0.043-0.106-0.067-0.157
		c-0.068-0.153-0.149-0.299-0.233-0.443c-0.105-0.178-0.218-0.351-0.342-0.52c-0.112-0.152-0.232-0.3-0.356-0.445
		c-0.069-0.081-0.142-0.153-0.212-0.231c-0.404-0.438-0.829-0.819-1.186-1.111c-0.117-0.097-0.232-0.188-0.332-0.263l-23.698-17.082
		C218.084,249.901,214.679,244.22,213.542,237.979z M207.127,386.426c-0.161,0.034-0.323,0.07-0.487,0.105
		c-0.383,0.078-0.765,0.153-1.16,0.218c-0.424,0.07-0.856,0.132-1.291,0.189c-0.348,0.044-0.701,0.084-1.058,0.12
		c-0.485,0.05-0.978,0.091-1.478,0.123c-0.229,0.014-0.456,0.028-0.687,0.039c-0.716,0.033-1.44,0.058-2.183,0.058h-28.385v-59.605
		h27.816c0.761,0,1.502,0.028,2.231,0.071c0.229,0.013,0.452,0.031,0.678,0.05c0.513,0.04,1.016,0.091,1.512,0.152
		c0.234,0.028,0.468,0.056,0.697,0.089c0.64,0.094,1.269,0.2,1.876,0.333c0.207,0.044,0.404,0.101,0.608,0.15
		c0.429,0.105,0.853,0.213,1.263,0.337c0.274,0.081,0.539,0.169,0.803,0.26c0.324,0.11,0.638,0.227,0.949,0.35
		c0.26,0.103,0.521,0.203,0.772,0.314c0.472,0.21,0.927,0.435,1.365,0.678c1.188,0.659,2.247,1.429,3.142,2.324
		c2.837,2.841,3.974,6.247,3.974,10.222c0,6.81-3.405,10.785-7.947,13.053c6.81,2.839,11.353,6.813,11.353,14.761
		C221.49,379.204,215.979,384.484,207.127,386.426z M263.889,386.427c-0.16,0.035-0.318,0.069-0.479,0.103
		c-0.385,0.078-0.77,0.153-1.165,0.218c-0.419,0.07-0.847,0.129-1.278,0.186c-0.354,0.045-0.709,0.086-1.07,0.122
		c-0.485,0.05-0.977,0.091-1.477,0.123c-0.227,0.014-0.456,0.028-0.687,0.039c-0.716,0.033-1.44,0.058-2.183,0.058h-22.477h-5.907
		v-59.605h27.815c6.814,0,12.49,1.701,15.897,5.107c2.837,2.841,3.973,6.247,3.973,10.222c0,6.81-3.406,10.785-7.948,13.053
		c6.811,2.839,11.353,6.813,11.353,14.761C278.256,379.204,272.744,384.487,263.889,386.427z M279.958,300.424l-3.946,13.161l0,0
		l-1.16,3.869h-44.845l-1.786-5.951l0,0l-3.325-11.079h-27.098l3.825-11.92h33.298h33.145h35.168l3.835,11.92H279.958z
		 M312.316,387.276H289.84h-5.907v-59.605h3.443h24.372c6.814,0,12.491,1.701,15.896,5.107c2.838,2.841,3.975,6.247,3.975,10.222
		c0,6.81-3.406,10.785-7.949,13.053c6.812,2.839,11.356,6.813,11.356,14.761C335.025,381.6,325.94,387.276,312.316,387.276z"/>
</g>
<g>
</g>
<g>
</g>
<g>
</g>
<g>
</g>
<g>
</g>
<g>
</g>
<g>
</g>
<g>
</g>
<g>
</g>
<g>
</g>
<g>
</g>
<g>
</g>
<g>
</g>
<g>
</g>
<g>
</g>
</svg>
