<?xml version="1.0" encoding="iso-8859-1"?>
<!-- Generator: Adobe Illustrator 19.0.0, SVG Export Plug-In . SVG Version: 6.00 Build 0)  -->
<svg version="1.1" id="Capa_1" xmlns="http://www.w3.org/2000/svg" xmlns:xlink="http://www.w3.org/1999/xlink" x="0px" y="0px"
	 viewBox="0 0 512 512" style="enable-background:new 0 0 512 512;" xml:space="preserve">
<path style="fill:#E7E8E3;" d="M503.916,397.661c0,16.188-13.122,29.311-29.309,29.311H37.393
	c-16.188,0-29.309-13.124-29.309-29.311V114.337c0-16.188,13.122-29.31,29.309-29.31h437.212c16.187,0,29.309,13.123,29.309,29.31
	v283.326h0.002L503.916,397.661L503.916,397.661z"/>
<rect x="8.08" y="151.54" style="fill:#34495E;" width="495.83" height="69.74"/>
<rect x="8.08" y="221.29" style="fill:#FFFFFF;" width="495.83" height="43.15"/>
<g style="opacity:0.15;">
	<path style="fill:#202121;" d="M28.922,397.661V114.337c0-16.188,13.124-29.31,29.311-29.31h-20.84
		c-16.187,0-29.309,13.123-29.309,29.31v283.326c0,16.188,13.122,29.311,29.309,29.311h20.84
		C42.047,426.973,28.922,413.849,28.922,397.661z"/>
</g>
<g>
	<path style="fill:#202121;" d="M503.916,133.4c4.466,0,8.084-3.618,8.084-8.084v-10.979c0-20.62-16.775-37.394-37.393-37.394
		H37.393C16.775,76.942,0,93.716,0,114.337v283.326c0,20.62,16.775,37.395,37.393,37.395h437.212
		c20.619,0,37.393-16.775,37.393-37.395V151.546c0-4.466-3.618-8.084-8.084-8.084H16.168v-29.125
		c0-11.704,9.522-21.226,21.225-21.226h437.212c11.703,0,21.225,9.522,21.225,21.226v10.979
		C495.832,129.781,499.45,133.4,503.916,133.4z M495.832,256.354H16.168v-26.982h479.663v26.982H495.832z M474.607,418.889H37.393
		c-11.703,0-21.225-9.522-21.225-21.227v-125.14h479.663v125.14C495.832,409.367,486.309,418.889,474.607,418.889z M495.832,159.63
		v53.574H16.168V159.63H495.832z"/>
	<path style="fill:#202121;" d="M163.093,320.615H61.771c-4.466,0-8.084-3.618-8.084-8.084c0-4.465,3.618-8.084,8.084-8.084h101.322
		c4.466,0,8.084,3.62,8.084,8.084C171.177,316.997,167.558,320.615,163.093,320.615z"/>
	<path style="fill:#202121;" d="M163.093,354.219H61.771c-4.466,0-8.084-3.62-8.084-8.084c0-4.466,3.618-8.084,8.084-8.084h101.322
		c4.466,0,8.084,3.618,8.084,8.084S167.558,354.219,163.093,354.219z"/>
	<path style="fill:#202121;" d="M163.093,387.822H61.771c-4.466,0-8.084-3.618-8.084-8.084s3.618-8.084,8.084-8.084h101.322
		c4.466,0,8.084,3.618,8.084,8.084C171.177,384.203,167.558,387.822,163.093,387.822z"/>
</g>
<g>
	<polygon style="fill:#EE3725;" points="418.636,296.12 323.091,296.12 370.866,343.896 	"/>
	<polygon style="fill:#EE3725;" points="323.091,314.148 323.091,296.12 275.322,343.896 323.091,391.665 323.091,370.033 	"/>
	<polygon style="fill:#EE3725;" points="418.636,296.12 418.636,314.148 418.636,370.033 418.636,391.665 466.41,343.896 	"/>
	<polygon style="fill:#EE3725;" points="397.004,370.033 370.866,343.896 344.726,370.033 344.724,370.033 323.091,391.665 
		418.636,391.665 	"/>
</g>
<path style="fill:#202121;" d="M472.128,338.178l-47.774-47.776c-0.049-0.049-0.106-0.086-0.156-0.134
	c-0.15-0.142-0.308-0.273-0.468-0.403c-0.15-0.122-0.299-0.245-0.456-0.355c-0.163-0.114-0.332-0.215-0.502-0.316
	c-0.169-0.101-0.337-0.203-0.513-0.291c-0.174-0.087-0.352-0.16-0.531-0.234c-0.184-0.077-0.368-0.154-0.556-0.217
	c-0.18-0.059-0.364-0.105-0.55-0.152c-0.199-0.051-0.397-0.101-0.599-0.137c-0.18-0.031-0.362-0.049-0.545-0.068
	c-0.216-0.023-0.431-0.043-0.648-0.049c-0.065-0.001-0.127-0.014-0.192-0.014h-95.545c-0.066,0-0.129,0.013-0.195,0.015
	c-0.218,0.005-0.432,0.026-0.648,0.049c-0.182,0.019-0.363,0.037-0.542,0.068c-0.206,0.036-0.407,0.087-0.61,0.139
	c-0.18,0.046-0.36,0.089-0.537,0.148c-0.195,0.065-0.384,0.143-0.573,0.223c-0.174,0.072-0.347,0.142-0.514,0.226
	c-0.18,0.091-0.351,0.194-0.525,0.299c-0.167,0.1-0.333,0.198-0.493,0.31c-0.157,0.11-0.306,0.233-0.456,0.355
	c-0.162,0.132-0.321,0.263-0.472,0.406c-0.049,0.046-0.105,0.083-0.152,0.132l-47.769,47.776c-3.157,3.157-3.157,8.275,0,11.432
	l47.769,47.769c0.066,0.066,0.138,0.123,0.205,0.185c0.066,0.061,0.132,0.121,0.199,0.18c0.254,0.222,0.517,0.431,0.792,0.618
	c0.012,0.008,0.023,0.017,0.036,0.026c0.293,0.195,0.599,0.363,0.911,0.517c0.078,0.038,0.155,0.073,0.234,0.109
	c0.291,0.133,0.587,0.25,0.89,0.346c0.035,0.011,0.067,0.025,0.101,0.036c0.333,0.101,0.673,0.174,1.015,0.231
	c0.087,0.015,0.176,0.027,0.264,0.039c0.352,0.047,0.708,0.08,1.065,0.08c0.001,0,0.002,0,0.004,0h95.545c0.001,0,0.002,0,0.004,0
	c0.357,0,0.713-0.032,1.065-0.08c0.088-0.012,0.176-0.024,0.264-0.039c0.343-0.057,0.683-0.13,1.015-0.231
	c0.035-0.011,0.067-0.025,0.101-0.036c0.303-0.096,0.598-0.213,0.889-0.346c0.079-0.036,0.157-0.072,0.236-0.11
	c0.311-0.154,0.617-0.321,0.909-0.516c0.015-0.011,0.029-0.023,0.044-0.033c0.271-0.183,0.528-0.388,0.778-0.607
	c0.072-0.063,0.142-0.126,0.212-0.192c0.065-0.06,0.135-0.115,0.197-0.179l47.774-47.769c1.517-1.516,2.368-3.572,2.368-5.717
	S473.643,339.695,472.128,338.178z M410.552,372.148l-28.253-28.253l28.253-28.257V372.148z M399.121,304.204l-28.255,28.258
	l-28.258-28.258H399.121z M315.007,372.148l-28.253-28.253l28.253-28.257V372.148z M339.007,364.316l-7.831,7.831v-56.51
	l28.257,28.258l-20.289,20.287C339.097,364.226,339.052,364.271,339.007,364.316z M342.609,383.581l7.701-7.701
	c0.045-0.043,0.089-0.087,0.134-0.132l20.424-20.421l28.253,28.253L342.609,383.581L342.609,383.581z M426.72,372.15v-56.513
	l28.258,28.259L426.72,372.15z"/>
<g>
</g>
<g>
</g>
<g>
</g>
<g>
</g>
<g>
</g>
<g>
</g>
<g>
</g>
<g>
</g>
<g>
</g>
<g>
</g>
<g>
</g>
<g>
</g>
<g>
</g>
<g>
</g>
<g>
</g>
</svg>
