<?xml version="1.0" encoding="iso-8859-1"?>
<!-- Generator: Adobe Illustrator 19.0.0, SVG Export Plug-In . SVG Version: 6.00 Build 0)  -->
<svg version="1.1" id="Capa_1" xmlns="http://www.w3.org/2000/svg" xmlns:xlink="http://www.w3.org/1999/xlink" x="0px" y="0px"
	 viewBox="0 0 511.998 511.998" style="enable-background:new 0 0 511.998 511.998;" xml:space="preserve">
<path style="fill:#00A051;" d="M503.916,397.661c0,16.188-13.122,29.311-29.309,29.311H37.393
	c-16.188,0-29.309-13.124-29.309-29.311V114.336c0-16.188,13.122-29.31,29.309-29.31h437.212c16.188,0,29.309,13.123,29.309,29.31
	v283.326L503.916,397.661L503.916,397.661z"/>
<path style="fill:#202121;" d="M474.607,435.057H37.393C16.774,435.057,0,418.282,0,397.661V114.336
	c0-20.62,16.774-37.394,37.393-37.394h437.212c20.619,0,37.393,16.775,37.393,37.394v31.459c0,4.466-3.62,8.084-8.084,8.084
	c-4.466,0-8.084-3.618-8.084-8.084v-31.459c0-11.704-9.522-21.226-21.225-21.226H37.393c-11.703,0-21.225,9.522-21.225,21.226
	v283.326c0,11.705,9.522,21.227,21.225,21.227h437.212c11.703,0,21.225-9.522,21.225-21.227V172.025
	c0-4.466,3.618-8.084,8.084-8.084c4.465,0,8.084,3.618,8.084,8.084v225.637C512,418.282,495.226,435.057,474.607,435.057z"/>
<g style="opacity:0.15;">
	<path style="fill:#202121;" d="M28.922,397.661V114.336c0-16.188,13.124-29.31,29.311-29.31h-20.84
		c-16.187,0-29.309,13.123-29.309,29.31v283.326c0,16.188,13.122,29.311,29.309,29.311h20.84
		C42.047,426.973,28.922,413.849,28.922,397.661z"/>
</g>
<path style="fill:#FFFFFF;" d="M321.138,265.434c-0.555-13.876-3.885-27.195-9.435-39.409c-5.551-12.209-13.32-23.867-22.758-33.302
	l-27.187,26.097c-0.003-0.003-0.006-0.009-0.01-0.012l-0.556,0.555c5.552,5.553,9.993,12.213,13.323,19.429
	c3.331,7.212,5.549,14.428,6.66,22.198c1.108,7.772,1.108,15.543-0.555,23.311c-1.668,7.772-4.441,14.988-7.772,21.647
	c-3.331,6.105-7.215,11.657-11.656,16.098c-4.438,4.438-9.991,8.324-15.539,11.653c-5.552,3.331-11.656,5.553-17.763,7.217
	c-8.327,2.218-16.65,2.775-24.977,1.665c-8.325-0.554-16.65-2.777-24.422-6.659c-7.771-3.335-14.983-8.328-20.536-14.432
	l-26.64,26.641c9.99,9.99,21.646,17.762,34.412,23.311c12.208,6.107,26.085,8.882,39.961,9.438
	c13.876,0.552,27.751-1.668,41.075-6.665c10.546-3.883,20.536-8.879,29.416-15.54c8.882-6.659,16.649-14.431,23.309-23.309
	c6.661-8.882,11.659-18.874,15.543-29.419C319.475,293.186,321.693,279.31,321.138,265.434z"/>
<path style="fill:#34495E;" d="M347.227,139.996c-12.768-5.549-26.643-8.879-40.52-8.879c-10.9-0.437-21.799,0.846-32.43,3.837
	c-0.327,0.088-0.652,0.179-0.977,0.272c-0.105,0.031-0.208,0.063-0.313,0.093c-2.45,0.709-4.902,1.514-7.352,2.458
	c-13.32,4.995-24.977,12.209-34.967,20.537c-9.991,7.767-17.762,17.762-23.867,27.751c-6.104,10.546-10.545,22.199-12.764,33.857
	c-2.223,11.655-2.775,23.867-1.111,36.078c1.666,12.209,4.997,23.867,10.546,34.412c4.997,10.545,11.657,19.98,19.98,28.303
	c-0.006-0.013-0.013-0.026-0.019-0.041c0.375,0.385,0.747,0.77,1.131,1.152l26.64-26.64c-5.548-5.551-10.545-12.213-13.876-19.427
	c-3.33-7.212-6.104-14.984-6.66-22.755c-1.107-7.771-0.556-16.095,1.111-23.867c1.663-7.772,4.441-15.542,8.879-22.202
	c3.885-6.66,9.438-13.321,16.097-18.313c6.66-5.552,14.432-9.993,23.311-12.769c8.327-2.773,17.762-4.437,26.64-3.885
	c8.327-0.552,17.206,1.665,25.533,4.997c8.327,3.33,16.095,8.879,22.754,14.986l26.644-26.643
	C371.648,153.315,359.991,145.543,347.227,139.996z"/>
<g>
	<path style="fill:#202121;" d="M209.835,389.049c-0.001,0-0.001,0-0.002,0c-1.481,0-2.984-0.029-4.464-0.088
		c-16.284-0.652-30.771-4.08-43.06-10.187c-13.885-6.065-26.235-14.449-36.709-24.922c-3.157-3.158-3.157-8.276,0-11.432
		l26.64-26.641c1.563-1.562,3.704-2.396,5.907-2.366c2.211,0.053,4.302,1.007,5.789,2.642c4.713,5.181,10.848,9.483,17.744,12.442
		c0.143,0.063,0.285,0.127,0.425,0.198c6.751,3.372,13.932,5.33,21.347,5.824c0.177,0.012,0.355,0.029,0.53,0.053
		c7.237,0.966,14.56,0.473,21.828-1.463c6.296-1.716,11.441-3.792,15.686-6.338c5.963-3.579,10.536-6.992,13.98-10.437
		c3.625-3.624,7.059-8.377,10.209-14.128c3.341-6.703,5.642-13.115,7.032-19.597c1.364-6.366,1.512-13.064,0.456-20.474
		c-0.969-6.786-2.932-13.313-5.997-19.95c-3.07-6.655-7.005-12.408-11.699-17.103c-1.517-1.517-2.368-3.574-2.367-5.72
		c0.001-2.145,0.855-4.202,2.372-5.718l0.556-0.555c0.156-0.156,0.317-0.303,0.482-0.444l26.828-25.751
		c3.172-3.047,8.201-2.998,11.314,0.114c9.812,9.81,18.251,22.144,24.401,35.672c6.154,13.542,9.57,27.817,10.154,42.431
		c0.58,14.478-1.685,29.519-6.546,43.496c-0.017,0.046-0.032,0.092-0.051,0.138c-4.512,12.245-9.961,22.541-16.661,31.475
		c-7.096,9.458-15.482,17.847-24.927,24.927c-8.936,6.702-19.231,12.152-31.472,16.658
		C236.756,386.605,223.376,389.049,209.835,389.049z M142.98,347.905c7.712,6.564,16.418,11.973,25.973,16.126
		c0.133,0.058,0.264,0.119,0.393,0.184c10.268,5.136,22.606,8.026,36.668,8.59c1.265,0.051,2.551,0.075,3.82,0.075
		c11.596,0,23.066-2.095,34.093-6.231c10.793-3.973,19.741-8.689,27.404-14.438c8.22-6.162,15.517-13.461,21.693-21.693
		c5.732-7.644,10.444-16.573,14.399-27.293c4.188-12.063,6.136-25.016,5.637-37.468c-0.5-12.517-3.433-24.759-8.717-36.388
		c-4.189-9.213-9.567-17.762-15.758-25.093l-16.198,15.549c3.664,4.657,6.836,9.871,9.47,15.583
		c3.731,8.08,6.127,16.076,7.322,24.44c1.33,9.33,1.117,17.882-0.652,26.148c-1.69,7.877-4.453,15.586-8.446,23.57
		c-0.043,0.086-0.087,0.171-0.134,0.255c-3.907,7.164-8.293,13.201-13.037,17.944c-4.39,4.39-9.983,8.599-17.095,12.868
		c-5.534,3.319-12.009,5.963-19.797,8.085c-9.291,2.476-18.654,3.11-27.906,1.913c-9.395-0.66-18.484-3.139-27.022-7.372
		c-6.215-2.691-11.978-6.247-17.002-10.465L142.98,347.905z"/>
	<path style="fill:#202121;" d="M224.563,327.91c-2.068,0-4.138-0.789-5.717-2.367c-0.281-0.282-0.557-0.564-0.832-0.846
		c-0.095-0.086-0.188-0.175-0.279-0.265c-8.9-8.901-16.133-19.13-21.496-30.406c-5.636-10.761-9.447-23.186-11.322-36.932
		c-1.714-12.578-1.316-25.592,1.18-38.686c2.358-12.386,7.098-24.972,13.709-36.393c0.032-0.056,0.066-0.112,0.099-0.166
		c7.586-12.414,16.229-22.449,25.692-29.832c11.416-9.497,23.93-16.835,37.201-21.81c2.475-0.953,5.094-1.828,7.943-2.654
		l0.217-0.065c0.043-0.013,0.086-0.026,0.13-0.038c0.358-0.102,0.717-0.203,1.076-0.3c11.264-3.169,23-4.566,34.707-4.118
		c14.197,0.026,29.263,3.325,43.58,9.549c13.964,6.069,26.382,14.483,36.906,25.008c3.157,3.157,3.157,8.276-0.001,11.432
		l-26.644,26.643c-3.061,3.061-7.988,3.168-11.18,0.241c-6.831-6.264-13.658-10.785-20.292-13.438
		c-8.369-3.348-15.808-4.846-21.997-4.437c-0.345,0.023-0.693,0.023-1.036,0.002c-7.173-0.444-15.478,0.786-23.584,3.486
		c-0.047,0.016-0.096,0.031-0.143,0.046c-7.471,2.335-14.382,6.125-20.546,11.262c-0.108,0.089-0.217,0.176-0.328,0.259
		c-5.361,4.018-10.32,9.672-13.964,15.919c-0.081,0.139-0.166,0.276-0.255,0.41c-3.468,5.203-6.058,11.734-7.702,19.411
		c-1.577,7.35-1.927,14.622-1.014,21.034c0.027,0.188,0.047,0.376,0.06,0.564c0.41,5.72,2.296,12.057,5.937,19.944
		c2.716,5.884,6.954,11.798,12.254,17.101c3.156,3.157,3.155,8.275-0.001,11.432l-26.64,26.64
		C228.701,327.12,226.632,327.91,224.563,327.91z M213.751,190.197c-5.685,9.843-9.756,20.642-11.772,31.236
		c-2.169,11.375-2.52,22.636-1.043,33.476c1.629,11.936,4.889,22.614,9.689,31.736c0.053,0.1,0.103,0.202,0.152,0.303
		c3.652,7.705,8.329,14.843,13.945,21.286l15.321-15.321c-4.147-5.025-7.568-10.379-10.055-15.767
		c-4.429-9.595-6.772-17.64-7.362-25.282c-1.132-8.207-0.7-17.337,1.249-26.425c2.049-9.579,5.387-17.919,9.921-24.786
		c4.66-7.925,11.019-15.145,17.943-20.374c7.74-6.419,16.434-11.169,25.845-14.121c9.85-3.271,20.007-4.777,29.114-4.29
		c8.541-0.468,18.118,1.416,28.546,5.589c6.456,2.583,12.93,6.437,19.316,11.496l15.418-15.417
		c-7.713-6.567-16.418-11.973-25.973-16.125c-12.356-5.37-25.253-8.209-37.297-8.209c-0.109,0-0.216-0.002-0.324-0.006
		c-10.049-0.406-20.146,0.792-29.916,3.541c-0.355,0.097-0.639,0.176-0.921,0.255l-0.286,0.084
		c-2.425,0.703-4.617,1.435-6.721,2.244c-11.673,4.377-22.651,10.83-32.696,19.202c-0.07,0.059-0.141,0.116-0.213,0.172
		C227.691,170.867,220.33,179.447,213.751,190.197z"/>
</g>
<g>
</g>
<g>
</g>
<g>
</g>
<g>
</g>
<g>
</g>
<g>
</g>
<g>
</g>
<g>
</g>
<g>
</g>
<g>
</g>
<g>
</g>
<g>
</g>
<g>
</g>
<g>
</g>
<g>
</g>
</svg>
