<?xml version="1.0" encoding="iso-8859-1"?>
<!-- Generator: Adobe Illustrator 19.0.0, SVG Export Plug-In . SVG Version: 6.00 Build 0)  -->
<svg version="1.1" id="Capa_1" xmlns="http://www.w3.org/2000/svg" xmlns:xlink="http://www.w3.org/1999/xlink" x="0px" y="0px"
	 viewBox="0 0 511.998 511.998" style="enable-background:new 0 0 511.998 511.998;" xml:space="preserve">
<path style="fill:#E7E8E3;" d="M503.916,397.661c0,16.188-13.122,29.311-29.309,29.311H37.393
	c-16.188,0-29.309-13.124-29.309-29.311V114.336c0-16.188,13.122-29.31,29.309-29.31h437.212c16.188,0,29.309,13.123,29.309,29.31
	v283.326L503.916,397.661L503.916,397.661z"/>
<path style="fill:#202121;" d="M474.607,435.057H37.393C16.775,435.057,0,418.282,0,397.661V114.336
	c0-20.62,16.775-37.394,37.393-37.394h437.212c20.619,0,37.393,16.775,37.393,37.394v31.459c0,4.466-3.618,8.084-8.084,8.084
	s-8.084-3.618-8.084-8.084v-31.459c0-11.704-9.522-21.226-21.225-21.226H37.393c-11.704,0-21.225,9.522-21.225,21.226v283.326
	c0,11.705,9.521,21.227,21.225,21.227h437.212c11.703,0,21.225-9.522,21.225-21.227V172.025c0-4.466,3.618-8.084,8.084-8.084
	c4.466,0,8.084,3.618,8.084,8.084v225.637C512,418.282,495.226,435.057,474.607,435.057z"/>
<g style="opacity:0.15;">
	<path style="fill:#202121;" d="M28.922,397.661V114.336c0-16.188,13.124-29.31,29.311-29.31h-20.84
		c-16.187,0-29.309,13.123-29.309,29.31v283.326c0,16.188,13.122,29.311,29.309,29.311h20.84
		C42.047,426.973,28.922,413.849,28.922,397.661z"/>
</g>
<g>
	<path style="fill:#05AFD6;" d="M379.796,238.935c-4.664-8.264-13.061-13.612-23.799-13.612c-16.682,0-27.765,13.069-27.765,29.953
		c0,17.463,11.311,30.182,27.765,30.182c10.795,0,19.355-5.402,24.011-13.993c0.625-5.067,0.953-10.228,0.953-15.466
		C380.961,250.21,380.558,244.516,379.796,238.935z"/>
	<path style="fill:#05AFD6;" d="M355.883,298.527c-24.909,0-43.308-17.694-43.308-43.251c0-26.251,18.397-42.786,43.308-42.786
		c6.729,0,12.965,1.186,18.503,3.405c-16.708-49.342-63.4-84.857-118.386-84.857c-69.014,0-124.961,55.946-124.961,124.961
		c0,69.014,55.946,124.961,124.961,124.961c55.488,0,102.52-36.169,118.827-86.213C369.181,297.194,362.791,298.527,355.883,298.527
		z M229.774,296.444h-56.53v-12.602l32.766-30.701c5.28-4.925,8.643-9.622,8.643-15.924c0-7.56-5.881-12.486-13.562-12.486
		c-7.669,0-12.688,5.259-14.161,12.451l-13.135-5.693c3.583-10.756,13.967-18.211,27.536-18.211
		c14.761,0,28.323,8.132,28.323,23.714c0,10.423-6.121,17.64-13.682,24.513l-24.483,22.338h38.287v12.601L229.774,296.444
		L229.774,296.444z M281.259,298.785c-25.258,0-43.202-17.746-43.202-43.38c0-26.33,18.973-42.915,43.889-42.915
		c10.515,0,22.973,3.944,29.374,12.526l-10.974,8.814c-4.229-5.911-11.885-8.469-18.4-8.469c-16.685,0-28.002,13.11-28.002,30.044
		c0,17.861,10.744,30.273,27.431,30.273c8.686,0,15.543-3.828,19.656-9.511l11.544,8.237
		C305.488,293.45,294.976,298.785,281.259,298.785z"/>
</g>
<g>
	<path style="fill:#202121;" d="M281.375,285.678c-16.687,0-27.431-12.412-27.431-30.273c0-16.934,11.317-30.044,28.002-30.044
		c6.515,0,14.171,2.557,18.4,8.469l10.974-8.814c-6.402-8.582-18.859-12.526-29.374-12.526c-24.914,0-43.889,16.587-43.889,42.915
		c0,25.633,17.944,43.38,43.202,43.38c13.717,0,24.23-5.336,31.317-14.382l-11.544-8.237
		C296.918,281.851,290.06,285.678,281.375,285.678z"/>
	<path style="fill:#202121;" d="M215.97,261.504c7.561-6.874,13.682-14.09,13.682-24.514c0-15.582-13.562-23.714-28.323-23.714
		c-13.569,0-23.953,7.455-27.536,18.211l13.135,5.693c1.473-7.192,6.492-12.451,14.161-12.451c7.681,0,13.562,4.926,13.562,12.486
		c0,6.301-3.362,10.998-8.643,15.924l-32.766,30.701v12.602h56.53v-12.602h-38.287L215.97,261.504z"/>
	<path style="fill:#202121;" d="M395.816,236.746c-0.277-2.024-0.935-3.979-1.939-5.758c-1.519-2.69-3.296-5.16-5.278-7.404
		c2.104-3.888,2.57-8.546,1.103-12.875c-19.412-57.325-73.142-95.839-133.701-95.839c-37.697,0-73.138,14.68-99.794,41.336
		S114.871,218.302,114.871,256s14.68,73.137,41.336,99.794c26.655,26.656,62.096,41.336,99.794,41.336
		c30.38,0,59.326-9.508,83.706-27.498c23.746-17.522,41.145-41.514,50.34-69.407c0.617-1.711,0.953-3.555,0.953-5.478
		c0-2.875-0.761-5.566-2.076-7.905c2.002-2.324,3.788-4.881,5.3-7.671c0.963-1.779,1.585-3.719,1.831-5.726
		c0.714-5.776,1.075-11.647,1.075-17.445C397.13,249.608,396.687,243.132,395.816,236.746z M373.686,298.03
		c-0.001,0.003-0.002,0.006-0.004,0.01c-0.529,1.484-1.088,2.953-1.672,4.411c-0.014,0.033-0.026,0.068-0.04,0.101
		c-0.577,1.436-1.18,2.856-1.809,4.265c-0.025,0.055-0.047,0.11-0.071,0.164c-0.62,1.385-1.265,2.756-1.934,4.113
		c-0.038,0.078-0.074,0.155-0.112,0.232c-0.66,1.333-1.343,2.652-2.048,3.957c-0.054,0.1-0.108,0.2-0.161,0.3
		c-0.696,1.283-1.416,2.547-2.155,3.801c-0.07,0.12-0.141,0.241-0.211,0.36c-0.731,1.229-1.482,2.443-2.253,3.643
		c-0.089,0.141-0.179,0.282-0.271,0.423c-0.76,1.175-1.54,2.335-2.339,3.482c-0.112,0.16-0.222,0.321-0.335,0.48
		c-0.789,1.121-1.594,2.227-2.417,3.321c-0.136,0.179-0.271,0.358-0.406,0.537c-0.811,1.064-1.638,2.116-2.482,3.154
		c-0.162,0.199-0.326,0.398-0.488,0.596c-0.83,1.009-1.676,2.004-2.537,2.986c-0.191,0.217-0.382,0.433-0.573,0.649
		c-0.848,0.954-1.71,1.895-2.586,2.821c-0.219,0.232-0.44,0.462-0.661,0.693c-0.862,0.898-1.736,1.784-2.625,2.657
		c-0.251,0.247-0.504,0.49-0.758,0.735c-0.873,0.843-1.757,1.675-2.655,2.493c-0.286,0.259-0.572,0.514-0.86,0.772
		c-0.881,0.788-1.772,1.566-2.675,2.329c-0.319,0.269-0.642,0.535-0.964,0.802c-0.887,0.734-1.782,1.458-2.689,2.169
		c-0.356,0.279-0.716,0.552-1.075,0.826c-0.89,0.682-1.787,1.356-2.697,2.012c-0.391,0.285-0.788,0.56-1.185,0.839
		c-0.892,0.631-1.789,1.254-2.699,1.86c-0.429,0.288-0.866,0.565-1.299,0.846c-0.891,0.579-1.786,1.153-2.694,1.71
		c-0.468,0.289-0.942,0.565-1.414,0.846c-0.889,0.53-1.78,1.056-2.684,1.564c-0.507,0.286-1.02,0.558-1.532,0.836
		c-0.884,0.481-1.77,0.96-2.667,1.42c-0.548,0.282-1.102,0.55-1.653,0.822c-0.877,0.433-1.755,0.868-2.644,1.282
		c-0.586,0.274-1.18,0.53-1.771,0.794c-0.871,0.388-1.741,0.779-2.623,1.148c-0.626,0.263-1.262,0.51-1.894,0.762
		c-0.86,0.343-1.718,0.691-2.587,1.015c-0.668,0.25-1.345,0.482-2.019,0.721c-0.848,0.301-1.694,0.607-2.55,0.889
		c-0.708,0.234-1.425,0.447-2.139,0.668c-0.836,0.26-1.671,0.526-2.515,0.769c-0.747,0.215-1.505,0.406-2.258,0.608
		c-0.825,0.219-1.644,0.448-2.475,0.65c-0.79,0.194-1.591,0.363-2.388,0.542c-0.805,0.18-1.606,0.372-2.418,0.536
		c-0.839,0.17-1.687,0.314-2.532,0.468c-0.783,0.143-1.56,0.296-2.348,0.425c-0.89,0.144-1.79,0.26-2.687,0.385
		c-0.752,0.106-1.5,0.224-2.258,0.316c-0.963,0.116-1.936,0.203-2.905,0.296c-0.701,0.068-1.397,0.153-2.101,0.209
		c-1.099,0.088-2.208,0.143-3.313,0.203c-0.585,0.032-1.165,0.082-1.753,0.106c-1.698,0.068-3.404,0.105-5.119,0.105
		c-69.014,0-124.961-55.946-124.961-124.961c0-69.014,55.946-124.961,124.961-124.961c1.699,0,3.39,0.034,5.072,0.102
		c0.577,0.023,1.148,0.071,1.725,0.102c1.101,0.059,2.202,0.112,3.296,0.2c0.69,0.055,1.371,0.137,2.058,0.203
		c0.969,0.094,1.941,0.178,2.903,0.293c0.745,0.089,1.481,0.205,2.222,0.308c0.894,0.123,1.79,0.237,2.677,0.379
		c0.778,0.125,1.548,0.276,2.321,0.416c0.839,0.151,1.682,0.292,2.514,0.46c0.799,0.16,1.588,0.346,2.381,0.522
		c0.795,0.177,1.595,0.344,2.386,0.537c0.814,0.197,1.617,0.418,2.424,0.632c0.757,0.2,1.517,0.39,2.268,0.605
		c0.83,0.236,1.649,0.495,2.473,0.748c0.715,0.219,1.431,0.43,2.141,0.662c0.842,0.276,1.675,0.573,2.509,0.867
		c0.676,0.237,1.355,0.468,2.025,0.716c0.853,0.316,1.693,0.652,2.537,0.986c0.638,0.252,1.281,0.499,1.913,0.761
		c0.86,0.357,1.71,0.734,2.56,1.109c0.602,0.265,1.204,0.525,1.8,0.799c0.87,0.401,1.728,0.82,2.585,1.24
		c0.562,0.274,1.126,0.544,1.683,0.828c0.876,0.444,1.741,0.907,2.605,1.37c0.523,0.282,1.049,0.561,1.567,0.848
		c0.881,0.489,1.748,0.996,2.616,1.506c0.487,0.287,0.975,0.569,1.458,0.862c0.883,0.537,1.755,1.089,2.624,1.645
		c0.449,0.289,0.9,0.573,1.346,0.869c0.885,0.583,1.758,1.184,2.628,1.788c0.413,0.288,0.828,0.572,1.235,0.866
		c0.885,0.633,1.758,1.278,2.626,1.934c0.377,0.285,0.755,0.568,1.13,0.857c0.882,0.682,1.753,1.378,2.617,2.083
		c0.342,0.28,0.684,0.558,1.023,0.84c0.878,0.733,1.745,1.48,2.604,2.236c0.306,0.271,0.613,0.541,0.918,0.815
		c0.874,0.784,1.734,1.583,2.585,2.392c0.274,0.26,0.548,0.52,0.819,0.784c0.866,0.836,1.717,1.687,2.558,2.549
		c0.241,0.247,0.482,0.495,0.722,0.745c0.855,0.89,1.696,1.794,2.524,2.709c0.21,0.234,0.42,0.468,0.63,0.702
		c0.841,0.943,1.667,1.9,2.48,2.869c0.183,0.218,0.364,0.437,0.545,0.655c0.825,0.997,1.634,2.005,2.427,3.029
		c0.156,0.2,0.31,0.403,0.466,0.606c0.805,1.051,1.595,2.114,2.367,3.191c0.13,0.181,0.258,0.363,0.387,0.544
		c0.785,1.106,1.551,2.224,2.301,3.357c0.106,0.158,0.209,0.32,0.314,0.48c0.761,1.162,1.503,2.335,2.225,3.523
		c0.084,0.137,0.165,0.274,0.247,0.412c0.734,1.216,1.448,2.443,2.14,3.683c0.064,0.115,0.126,0.232,0.19,0.347
		c0.703,1.27,1.385,2.551,2.044,3.847c0.044,0.087,0.087,0.176,0.132,0.264c0.67,1.326,1.319,2.665,1.943,4.017
		c0.028,0.06,0.055,0.121,0.082,0.181c0.635,1.383,1.246,2.777,1.832,4.187c0.012,0.029,0.024,0.06,0.036,0.089
		c1.049,2.531,2.035,5.093,2.919,7.705c-5.538-2.22-11.774-3.405-18.503-3.405c-24.909,0-43.308,16.536-43.308,42.786
		c0,25.557,18.397,43.251,43.308,43.251c6.908,0,13.298-1.332,18.944-3.78C374.467,295.851,374.075,296.939,373.686,298.03
		L373.686,298.03z M380.009,271.465c-0.338,0.623-0.702,1.223-1.08,1.813c-0.108,0.166-0.221,0.329-0.332,0.493
		c-0.289,0.428-0.587,0.848-0.898,1.258c-0.122,0.162-0.247,0.323-0.373,0.482c-0.347,0.437-0.708,0.862-1.081,1.275
		c-0.088,0.099-0.174,0.202-0.264,0.299c-4.889,5.257-11.791,8.375-19.984,8.375c-16.454,0-27.766-12.719-27.766-30.182
		c0-16.883,11.084-29.953,27.766-29.953c8.152,0,14.949,3.087,19.794,8.188c0.098,0.103,0.192,0.212,0.289,0.318
		c0.358,0.39,0.706,0.79,1.042,1.202c0.13,0.16,0.257,0.32,0.383,0.482c0.303,0.389,0.596,0.789,0.879,1.198
		c0.113,0.162,0.229,0.32,0.337,0.484c0.376,0.566,0.738,1.144,1.075,1.74c0.762,5.58,1.165,11.275,1.165,17.064
		C380.961,261.236,380.634,266.397,380.009,271.465z"/>
</g>
<g>
</g>
<g>
</g>
<g>
</g>
<g>
</g>
<g>
</g>
<g>
</g>
<g>
</g>
<g>
</g>
<g>
</g>
<g>
</g>
<g>
</g>
<g>
</g>
<g>
</g>
<g>
</g>
<g>
</g>
</svg>
