<?xml version="1.0" encoding="iso-8859-1"?>
<!-- Generator: Adobe Illustrator 19.0.0, SVG Export Plug-In . SVG Version: 6.00 Build 0)  -->
<svg version="1.1" id="Capa_1" xmlns="http://www.w3.org/2000/svg" xmlns:xlink="http://www.w3.org/1999/xlink" x="0px" y="0px"
	 viewBox="0 0 511.998 511.998" style="enable-background:new 0 0 511.998 511.998;" xml:space="preserve">
<path style="fill:#E7E8E3;" d="M503.916,397.66c0,16.188-13.122,29.311-29.309,29.311H37.393c-16.188,0-29.309-13.124-29.309-29.311
	V114.336c0-16.188,13.122-29.31,29.309-29.31h437.212c16.188,0,29.309,13.123,29.309,29.31v283.325L503.916,397.66L503.916,397.66z"
	/>
<g style="opacity:0.15;">
	<path style="fill:#202121;" d="M28.922,397.66V114.336c0-16.188,13.124-29.31,29.311-29.31h-20.84
		C21.206,85.024,8.084,98.148,8.084,114.335v283.324c0,16.188,13.122,29.311,29.309,29.311h20.84
		C42.047,426.971,28.922,413.847,28.922,397.66z"/>
</g>
<path style="fill:#202121;" d="M474.607,435.056H37.393C16.775,435.056,0,418.28,0,397.66V114.336
	c0-20.62,16.775-37.394,37.393-37.394h437.212c20.619,0,37.393,16.775,37.393,37.394v31.459c0,4.466-3.62,8.084-8.084,8.084
	c-4.466,0-8.084-3.618-8.084-8.084v-31.459c0-11.704-9.522-21.226-21.225-21.226H37.393c-11.703-0.001-21.225,9.521-21.225,21.225
	v283.324c0,11.705,9.522,21.227,21.225,21.227h437.212c11.703,0,21.225-9.522,21.225-21.227V172.023
	c0-4.466,3.618-8.084,8.084-8.084c4.465,0,8.084,3.618,8.084,8.084V397.66C512,418.28,495.226,435.056,474.607,435.056z"/>
<g>
	<path style="fill:#686868;" d="M379.733,208.824c-5.357-14.009-13.087-25.534-23.643-35.245
		c-5.217-4.521-11.247-8.568-17.917-12.027c-4.605-2.448-9.744-4.637-15.272-6.503c-13.015-4.471-27.596-6.944-42.174-7.153H132.361
		c-0.298,0-0.539,0.241-0.539,0.539v222.554c0,0.298,0.241,0.539,0.539,0.539h148.368h0.008c30.71-0.439,58.176-9.2,75.35-24.033
		c21.731-18.451,32.751-48.124,32.751-88.195C388.836,240.908,385.773,223.924,379.733,208.824z M149.387,165.46h127.222
		c1.171,0,2.329,0.016,3.478,0.04l0.531,0.013c13.809,0.343,26.763,2.522,38.497,6.474c10.07,3.537,18.805,8.507,25.961,14.767
		c18.736,16.655,27.843,40.384,27.843,72.542c-0.205,32.57-8.106,56.003-24.151,71.638c-15.904,15.497-39.508,23.029-72.16,23.029
		H149.387V165.46z"/>
	<rect x="161.21" y="272.07" style="fill:#686868;" width="41.21" height="70.06"/>
	<circle style="fill:#686868;" cx="181.82" cy="240.03" r="23.18"/>
</g>
<g>
	<path style="fill:#CC1B69;" d="M310.259,242.938c-0.245-0.698-0.545-1.56-0.734-2.128c-0.338-0.966-0.729-2.15-1.124-3.357
		c-0.564-1.708-1.147-3.476-1.614-4.721c-0.08-0.212-0.284-0.349-0.504-0.349h-0.001h-0.001c-0.221,0-0.426,0.137-0.504,0.349
		c-0.467,1.243-1.048,3.007-1.609,4.713c-0.398,1.208-0.789,2.397-1.132,3.374c-0.109,0.327-0.246,0.755-0.387,1.194
		c-0.202,0.627-0.411,1.278-0.55,1.68c-0.057,0.164-0.03,0.346,0.071,0.488c0.101,0.142,0.264,0.226,0.439,0.226h7.405
		c0.006-0.001,0.015-0.001,0.015-0.001c0.305,0.001,0.545-0.24,0.545-0.538c0-0.114-0.036-0.222-0.097-0.309L310.259,242.938z"/>
	<path style="fill:#CC1B69;" d="M360.242,264.277c-0.1-0.102-0.239-0.158-0.382-0.158h-29.135v-40.96h11.286v28.311
		c0,0.298,0.241,0.539,0.539,0.539h16.899h0.015c0.304,0,0.545-0.241,0.545-0.539c0-0.066-0.011-0.127-0.031-0.184
		c-3.064-46.73-33.192-70.419-89.55-70.419h-51.517c-0.298,0-0.539,0.241-0.539,0.539v33.145v8.069v0.522h8.372
		c10.403,0,18.221,6.524,18.221,19.854c0,11.642-5.962,20.304-18.221,20.304h-8.372v1.358v7.418v70.887
		c0,0.297,0.241,0.539,0.539,0.539h51.517c26.545,0,46.528-4.748,61.092-14.516c18.976-12.729,28.695-34.37,28.882-64.324
		C360.399,264.517,360.343,264.379,360.242,264.277z M280.189,230.322h-20.067c-0.297,0-0.539,0.241-0.539,0.539v8.244
		c0,0.298,0.241,0.539,0.539,0.539h20.067v7.164h-20.067c-0.297,0-0.539,0.241-0.539,0.539v8.242c0,0.298,0.241,0.539,0.539,0.539
		h20.067v7.165h-27.77v-40.134h27.77V230.322z M316.961,263.293c-4.177-11.462-4.507-11.463-4.96-11.463h-11.438
		c-0.454,0-0.784,0.001-4.963,11.463h-9.548l15.652-40.134h9.159l16.054,40.134H316.961z"/>
	<path style="fill:#CC1B69;" d="M236.132,243.838c0-8.099-2.812-13.273-11.587-13.273h-5.969h-0.206h-0.123v0.248v1.168v23.894
		h7.875C231.24,255.875,236.132,252.725,236.132,243.838z"/>
</g>
<g>
	<path style="fill:#202121;" d="M280.189,256.127h-20.067c-0.297,0-0.539-0.241-0.539-0.539v-8.242c0-0.298,0.241-0.539,0.539-0.539
		h20.067v-7.164h-20.067c-0.297,0-0.539-0.241-0.539-0.539v-8.244c0-0.298,0.241-0.539,0.539-0.539h20.067v-7.164h-27.77v40.134
		h27.77V256.127z"/>
	<path style="fill:#202121;" d="M310.863,223.158h-9.159l-12.145,31.143l0,0l-3.507,8.993h9.548c0.496-1.36,0.936-2.555,1.33-3.611
		c0.012-0.031,0.023-0.065,0.035-0.095l0,0c2.895-7.754,3.198-7.758,3.597-7.758H312c0.454,0,0.784,0.001,4.96,11.463h9.955
		L310.863,223.158z M310.035,244.408c0,0-0.015-0.001-0.022,0h-7.405c-0.175,0-0.338-0.084-0.439-0.226
		c-0.101-0.142-0.127-0.324-0.071-0.488c0.139-0.402,0.348-1.053,0.55-1.68c0.141-0.44,0.279-0.869,0.387-1.194
		c0.342-0.977,0.734-2.165,1.132-3.374c0.563-1.705,1.144-3.47,1.609-4.713c0.079-0.212,0.284-0.349,0.504-0.349h0.001h0.001
		c0.221,0,0.424,0.137,0.504,0.349c0.468,1.245,1.05,3.013,1.614,4.721c0.396,1.206,0.786,2.391,1.124,3.357
		c0.189,0.567,0.489,1.428,0.734,2.128l0.218,0.622c0.061,0.087,0.097,0.195,0.097,0.309
		C310.574,244.167,310.333,244.408,310.035,244.408z"/>
	<path style="fill:#202121;" d="M348.768,330.933c16.047-15.635,23.947-39.068,24.151-71.638c0-32.158-9.107-55.888-27.843-72.542
		c-7.156-6.261-15.891-11.231-25.961-14.767c-11.734-3.952-24.688-6.131-38.497-6.474l-0.531-0.013
		c-1.149-0.024-2.309-0.04-3.478-0.04h-62.693h-64.529v52.318v135.362v0.824h0.824H276.61
		C309.26,353.963,332.865,346.43,348.768,330.933z M165.555,181.629h36.646v24.754c-5.949-3.618-12.927-5.702-20.384-5.702
		c-5.798,0-11.301,1.271-16.262,3.532V181.629z M202.424,342.139h-41.212v-70.064h41.212V342.139L202.424,342.139z M202.078,251.282
		L202.078,251.282c-0.257,0.461-0.532,0.91-0.82,1.35c-0.194,0.299-0.399,0.589-0.606,0.876c-0.12,0.165-0.243,0.328-0.366,0.489
		c-0.498,0.658-1.027,1.288-1.592,1.89c-0.006,0.006-0.011,0.013-0.017,0.019l0,0c-4.227,4.487-10.209,7.305-16.862,7.305
		c-12.802,0-23.181-10.379-23.181-23.182c0-8.84,4.952-16.521,12.231-20.43c0.014-0.008,0.028-0.014,0.042-0.02
		c0.638-0.341,1.291-0.655,1.963-0.937c0.08-0.033,0.165-0.058,0.247-0.091c0.609-0.248,1.227-0.479,1.86-0.675
		c0.195-0.06,0.399-0.098,0.596-0.154c0.529-0.148,1.06-0.298,1.604-0.409c0.35-0.071,0.715-0.108,1.07-0.164
		c0.404-0.063,0.802-0.142,1.213-0.183c0.775-0.079,1.56-0.119,2.356-0.119c0.712,0,1.415,0.044,2.111,0.107
		c0.184,0.017,0.368,0.037,0.55,0.058c0.613,0.069,1.22,0.16,1.817,0.277c0.082,0.016,0.166,0.026,0.248,0.043
		c0.663,0.138,1.314,0.309,1.954,0.503c0.171,0.052,0.341,0.108,0.511,0.163c0.527,0.171,1.047,0.361,1.555,0.569
		c0.126,0.052,0.253,0.097,0.379,0.15c0.598,0.257,1.184,0.541,1.754,0.846c0.157,0.083,0.31,0.172,0.466,0.26
		c0.449,0.253,0.889,0.521,1.32,0.802c0.146,0.095,0.292,0.185,0.434,0.283c0.523,0.359,1.03,0.738,1.521,1.138
		c0.137,0.111,0.265,0.229,0.399,0.342c0.377,0.321,0.743,0.653,1.099,0.998c0.144,0.141,0.291,0.279,0.431,0.423
		c0.437,0.445,0.858,0.905,1.258,1.384c0.106,0.127,0.203,0.261,0.306,0.389c0.308,0.387,0.605,0.784,0.888,1.189
		c0.125,0.18,0.251,0.36,0.372,0.544c0.341,0.516,0.667,1.044,0.966,1.59c1.811,3.302,2.843,7.091,2.843,11.124
		C204.998,244.116,203.933,247.948,202.078,251.282z M218.247,231.981v-1.168v-0.248h0.123h0.206h5.969
		c8.775,0,11.587,5.174,11.587,13.273c0,8.887-4.893,12.037-10.011,12.037h-7.875v-23.894H218.247z M218.909,343.5
		c-0.298,0-0.539-0.241-0.539-0.539v-70.887v-7.418v-1.358h8.372c12.259,0,18.221-8.662,18.221-20.304
		c0-13.329-7.818-19.854-18.221-19.854h-8.372v-0.522v-8.069v-0.153v-32.767v-0.224c0-0.298,0.241-0.539,0.539-0.539h51.517
		c56.359,0,86.486,23.69,89.55,70.419c0.022,0.057,0.031,0.119,0.031,0.184c0,0.298-0.241,0.539-0.545,0.539h-0.015h-2.893h-14.006
		c-0.298,0-0.539-0.241-0.539-0.539v-28.311h-11.286v40.96h25.927h3.21c0.143,0,0.282,0.057,0.382,0.158
		c0.101,0.102,0.158,0.24,0.157,0.383c-0.188,29.955-9.905,51.596-28.882,64.324c-14.563,9.768-34.547,14.516-61.092,14.516
		L218.909,343.5L218.909,343.5L218.909,343.5z"/>
	<path style="fill:#202121;" d="M394.791,202.934c-6.268-16.347-15.348-29.844-27.754-41.254c-0.116-0.109-0.237-0.215-0.357-0.32
		c-6.159-5.337-13.223-10.089-20.995-14.126c-5.349-2.838-11.26-5.358-17.572-7.49c-14.599-5.01-30.904-7.782-47.154-8.014
		c-0.078-0.001-0.154-0.002-0.232-0.002H132.361c-9.213,0-16.707,7.495-16.707,16.707v222.554c0,9.213,7.495,16.707,16.707,16.707
		h148.368c0.077,0,0.162-0.001,0.238-0.002c34.421-0.492,65.632-10.667,85.64-27.921c25.479-21.667,38.399-55.472,38.399-100.474
		C405.005,238.89,401.569,219.926,394.791,202.934z M356.086,347.495c-17.175,14.833-44.64,23.594-75.35,24.033h-0.008H132.361
		c-0.298,0-0.539-0.241-0.539-0.539V148.435c0-0.298,0.241-0.539,0.539-0.539h148.368c14.577,0.208,29.159,2.681,42.174,7.153
		c5.527,1.866,10.667,4.055,15.272,6.503c6.671,3.459,12.7,7.506,17.917,12.027c10.556,9.711,18.285,21.236,23.643,35.245
		c6.041,15.1,9.104,32.085,9.104,50.475C388.836,299.37,377.818,329.044,356.086,347.495z"/>
</g>
<g>
</g>
<g>
</g>
<g>
</g>
<g>
</g>
<g>
</g>
<g>
</g>
<g>
</g>
<g>
</g>
<g>
</g>
<g>
</g>
<g>
</g>
<g>
</g>
<g>
</g>
<g>
</g>
<g>
</g>
</svg>
