<?xml version="1.0" encoding="iso-8859-1"?>
<!-- Generator: Adobe Illustrator 19.0.0, SVG Export Plug-In . SVG Version: 6.00 Build 0)  -->
<svg version="1.1" id="Capa_1" xmlns="http://www.w3.org/2000/svg" xmlns:xlink="http://www.w3.org/1999/xlink" x="0px" y="0px"
	 viewBox="0 0 511.998 511.998" style="enable-background:new 0 0 511.998 511.998;" xml:space="preserve">
<path style="fill:#BFE6EF;" d="M503.916,397.66c0,16.188-13.122,29.311-29.309,29.311H37.393c-16.188,0-29.309-13.124-29.309-29.311
	V114.336c0-16.188,13.122-29.31,29.309-29.31h437.212c16.188,0,29.309,13.123,29.309,29.31v283.325L503.916,397.66L503.916,397.66z"
	/>
<g style="opacity:0.15;">
	<path style="fill:#202121;" d="M28.922,397.66V114.336c0-16.188,13.124-29.31,29.311-29.31h-20.84
		C21.206,85.024,8.084,98.148,8.084,114.335v283.324c0,16.188,13.122,29.311,29.309,29.311h20.84
		C42.047,426.971,28.922,413.847,28.922,397.66z"/>
</g>
<path style="fill:#202121;" d="M474.607,435.056H37.393C16.775,435.056,0,418.28,0,397.66V114.336
	c0-20.62,16.775-37.394,37.393-37.394h437.212c20.619,0,37.393,16.775,37.393,37.394v10.979c0,4.466-3.62,8.084-8.084,8.084
	c-4.466,0-8.084-3.618-8.084-8.084v-10.979c0-11.704-9.522-21.226-21.225-21.226H37.393c-11.703-0.001-21.225,9.521-21.225,21.225
	v283.324c0,11.705,9.522,21.227,21.225,21.227h437.212c11.703,0,21.225-9.522,21.225-21.227V151.543
	c0-4.466,3.618-8.084,8.084-8.084c4.465,0,8.084,3.618,8.084,8.084V397.66C512,418.28,495.226,435.056,474.607,435.056z"/>
<g>
	<path style="fill:#0078C1;" d="M350.337,202.391c9.792-4.896,20.119-10.236,31.54-14.044
		c-9.788-13.593-17.402-29.364-18.489-51.658c-14.68,10.333-28.274,21.656-41.324,33.62
		C332.935,179.008,343.27,190.426,350.337,202.391z"/>
	<path style="fill:#0078C1;" d="M329.51,214.408c-35.233,22.458-61.844,53.926-78.876,95.354
		c-15.119-22.714-28.199-46.935-64.877-48.092c5.816-4.286,11.707-8.495,16.756-13.547c5.692-5.565,10.368-12.149,12.757-21.019
		c0,0,4.341,2.699,10.114,8.239c3.786,3.554,7.232,7.444,10.306,11.708c4.396,5.913,8.714,13.182,12.062,21.852
		c16.584-33.53,38.088-62.543,63.095-87.749c3.495-3.507,7.048-6.942,10.672-10.303c-0.005-0.005-0.012-0.01-0.018-0.014
		c0.189-0.175,0.372-0.357,0.563-0.53c-18.967-14.22-42.013-22.832-67.659-23.356c-0.828-0.017-1.657-0.025-2.489-0.025
		c-63.077,0-114.191,51.113-114.191,114.191c0,63.076,51.114,114.19,114.191,114.19c31.708,0,60.389-12.919,81.078-33.777
		c20.788-20.68,33.655-49.313,33.655-80.956c0-21.209-5.98-41.329-16.312-58.184C343.104,206.094,336.157,210.099,329.51,214.408z"
		/>
</g>
<path style="fill:#202121;" d="M388.437,183.622c-10.879-15.109-16.115-29.706-16.975-47.328c-0.144-2.943-1.878-5.576-4.526-6.869
	c-2.652-1.296-5.793-1.042-8.201,0.653c-12.237,8.613-24.49,18.435-37.302,29.9c-19.874-13.33-42.845-20.618-66.864-21.108
	c-0.882-0.018-1.767-0.027-2.653-0.027c-67.422,0-122.274,54.853-122.274,122.275s54.853,122.274,122.274,122.274
	c32.852,0,63.684-12.844,86.78-36.13c23.239-23.12,36.037-53.907,36.037-86.689c0-19.177-4.547-37.926-13.198-54.739
	c7.309-3.613,14.864-7.141,22.899-9.821c2.439-0.814,4.346-2.738,5.136-5.185C390.36,188.385,389.939,185.708,388.437,183.622z
	 M316.572,186.86c1.917-1.923,3.849-3.818,5.783-5.676c6.13,5.56,11.771,11.853,16.385,18.263
	c-4.672,2.606-9.229,5.326-13.575,8.145c-33.005,21.038-58.483,49.744-75.893,85.46c-10.265-15.14-22.57-30.244-43.892-36.501
	c0.947-0.858,1.878-1.739,2.785-2.647c4.408-4.309,7.905-8.859,10.547-13.739c0.372,0.343,0.75,0.7,1.138,1.071
	c3.452,3.241,6.575,6.787,9.281,10.542c0.023,0.031,0.046,0.065,0.069,0.096c4.568,6.145,8.273,12.855,11.01,19.941
	c1.154,2.992,3.97,5.019,7.173,5.164c3.214,0.12,6.19-1.617,7.613-4.492C270.417,241.313,291.138,212.499,316.572,186.86z
	 M327.253,335.839c-20.075,20.239-46.83,31.385-75.338,31.385c-58.507,0-106.106-47.599-106.106-106.106
	s47.599-106.107,106.106-106.107c0.777,0,1.551,0.008,2.323,0.023c19.636,0.402,38.478,6.009,55.033,16.309
	c-1.392,1.356-2.781,2.73-4.164,4.118c-22.746,22.928-41.897,48.284-57.084,75.553c-1.781-3.005-3.72-5.922-5.812-8.738
	c-3.303-4.576-7.102-8.89-11.23-12.764c-6.204-5.953-10.926-8.95-11.443-9.272c-2.174-1.352-4.857-1.594-7.235-0.654
	c-2.38,0.939-4.175,2.948-4.84,5.417c-1.739,6.46-5.108,11.969-10.669,17.407c-4.197,4.199-9.145,7.837-14.385,11.688l-1.449,1.065
	c-2.773,2.044-3.947,5.621-2.923,8.911c1.024,3.291,4.019,5.569,7.464,5.678c29.819,0.942,41.538,18.806,55.106,39.493
	c1.095,1.669,2.189,3.338,3.296,4.999c1.656,2.489,4.554,3.853,7.525,3.567c2.975-0.294,5.545-2.206,6.681-4.971
	c16.018-38.961,41.502-69.784,75.796-91.644c4.259-2.763,8.699-5.424,13.262-7.954c7.473,14.528,11.393,30.744,11.393,47.337
	C358.564,289.024,347.458,315.738,327.253,335.839z M353.223,191.907c-5.274-7.661-11.746-15.089-18.933-21.734
	c7.722-6.832,15.226-13.034,22.648-18.715c2.128,11.615,6.223,22.28,12.608,32.887C363.855,186.703,358.468,189.299,353.223,191.907
	z"/>
<g>
</g>
<g>
</g>
<g>
</g>
<g>
</g>
<g>
</g>
<g>
</g>
<g>
</g>
<g>
</g>
<g>
</g>
<g>
</g>
<g>
</g>
<g>
</g>
<g>
</g>
<g>
</g>
<g>
</g>
</svg>
