<?xml version="1.0" encoding="iso-8859-1"?>
<!-- Generator: Adobe Illustrator 19.0.0, SVG Export Plug-In . SVG Version: 6.00 Build 0)  -->
<svg version="1.1" id="Capa_1" xmlns="http://www.w3.org/2000/svg" xmlns:xlink="http://www.w3.org/1999/xlink" x="0px" y="0px"
	 viewBox="0 0 511.998 511.998" style="enable-background:new 0 0 511.998 511.998;" xml:space="preserve">
<path style="fill:#3466B7;" d="M503.916,397.66c0,16.188-13.122,29.311-29.309,29.311H37.393c-16.188,0-29.309-13.124-29.309-29.311
	V114.336c0-16.188,13.122-29.31,29.309-29.31h437.212c16.188,0,29.309,13.123,29.309,29.31v283.325L503.916,397.66L503.916,397.66z"
	/>
<g>
	<path style="fill:#202121;" d="M174.595,240.955c-7.008,0-13.376,5.096-13.376,17.192c0,12.102,4.459,17.835,13.376,17.835
		c7.005,0,13.371-5.733,13.371-17.835C187.967,247.322,183.508,240.955,174.595,240.955z"/>
	<path style="fill:#202121;" d="M269.488,260.698c0,10.825,3.184,16.559,10.188,16.559c8.279,0,12.737-10.191,12.737-19.11v-16.554
		h0.638c-2.546-0.638-5.733-0.638-8.28-0.638C275.855,240.955,269.488,246.684,269.488,260.698z"/>
	<path style="fill:#202121;" d="M329.99,222.483h-5.733v26.114c1.275,0,3.184,0.638,5.095,0.638c9.551,0,15.922-5.096,15.922-14.014
		C345.274,227.579,340.815,222.483,329.99,222.483z"/>
	<path style="fill:#202121;" d="M451.648,215.869c-0.001,0-0.002,0-0.003,0c-0.003,0-0.005,0-0.009,0h-0.005h-12.102
		c-4.893,0-9.407,2.202-12.418,5.814c-3.012-3.61-7.523-5.814-12.418-5.814h-12.735c-1.895,0-3.745,0.337-5.48,0.964
		c-4.494-1.496-9.649-2.239-15.538-2.239c-4.209,0-8.288,0.489-12.042,1.222c-1.964-3.544-4.515-6.707-7.627-9.365
		c-7.523-6.429-17.62-9.687-30.009-9.687c-4.106,0-7.777,0.194-11.018,0.365c-2.651,0.14-5.153,0.273-7.45,0.273
		c-1.008,0-1.99,0.105-2.947,0.281c-1.672-0.584-3.461-0.918-5.332-0.918h-11.463c-8.929,0-16.168,7.239-16.168,16.168v3.034
		c-3.43,0.61-6.669,1.596-9.696,2.914v-5.949c0-8.929-7.239-16.168-16.168-16.168h-11.47c-8.929,0-16.168,7.239-16.168,16.168v2.586
		c-0.952,0.239-1.89,0.512-2.806,0.838c-1.265-0.318-2.589-0.486-3.953-0.486h-10.825c-4.022,0-7.693,1.478-10.521,3.907
		c-5.796-2.989-12.569-4.545-20.047-4.545c-2.811,0-5.555,0.263-8.216,0.756c0.119-0.789,0.186-1.595,0.186-2.417
		c0-8.929-7.237-16.168-16.166-16.168h-0.005h-11.463c-6.122,0-11.593,3.437-14.331,8.678c-2.745-5.257-8.227-8.678-14.33-8.678
		H98.17c-5.881,0-11.176,3.174-14.01,8.097c-2.832-4.914-8.121-8.097-14.012-8.097h-12.1c-4.997,0-9.713,2.31-12.775,6.258
		c-3.063,3.947-4.128,9.09-2.887,13.93l18.468,71.967c1.835,7.15,8.279,12.149,15.661,12.149h14.014
		c6.479,0,12.245-3.853,14.796-9.646c2.683,5.438,8.261,9.008,14.498,9.008h14.013c5.525,0,10.513-2.805,13.446-7.2
		c5.379,4.344,13.727,8.472,26.039,8.472c8,0,15.277-2.021,21.459-5.634c2.889,2.698,6.757,4.362,11.023,4.362h11.463
		c4.325,0,8.243-1.708,11.144-4.473c2.902,2.765,6.82,4.473,11.144,4.473h11.467c3.415,0,6.578-1.065,9.188-2.873
		c4.958,2.71,10.696,4.143,16.922,4.143c4.159,0,8.168-0.682,11.89-1.955c1.478,0.445,3.045,0.684,4.668,0.684h10.826
		c1.434,0,2.815-0.205,4.139-0.555c1.324,0.35,2.706,0.555,4.139,0.555h11.463c8.929,0,16.168-7.239,16.168-16.168v-11.069
		c0.709-0.149,1.408-0.317,2.101-0.494c0.847,16.912,13.523,29.003,30.771,29.003c3.9,0,7.665-0.603,11.186-1.727l-1.102,8.257
		c-0.914,6.842,2.618,13.509,8.79,16.597c4.333,2.169,8.909,2.348,13.606,2.348c25.42,0,35.103-17.988,40.699-33.657l20.214-56.218
		c0.717-1.828,1.111-3.819,1.111-5.903C467.802,223.111,460.571,215.875,451.648,215.869z M251.019,212.933v18.751
		c-0.817,1.092-1.586,2.231-2.302,3.415v-4.335c0-6.389-3.719-11.956-9.164-14.575v-3.255L251.019,212.933L251.019,212.933z
		 M119.822,284.898l-12.097-43.944c-1.276-4.458-1.912-8.916-2.55-13.376c-0.637,4.459-1.275,8.917-2.546,13.376l-12.1,44.582
		H76.514l-18.468-71.967h12.102l10.825,43.307c1.275,5.096,1.913,9.549,2.549,14.009c0.634-4.46,1.272-8.914,2.546-13.372
		l12.102-43.944h12.737l12.737,43.944c1.272,3.821,1.908,8.28,2.546,13.372c0.638-4.46,1.275-8.28,2.546-12.739l10.83-44.576h11.463
		l-2.668,11.065c-1.463,1.213-2.853,2.527-4.148,3.957c-7.264,8.028-11.265,18.977-11.265,30.831c0,6.57,0.924,12.488,2.754,17.722
		l-1.869,7.753H119.822z M152.707,275.603l9.93-41.185c3.611-1.934,7.846-3.017,12.595-3.017c5.526,0,10.453,1.195,14.4,3.769
		v45.483c-4.284,3.505-9.821,5.518-16.313,5.518C163.998,286.17,156.754,282.802,152.707,275.603z M217.264,263.245V284.9h-9.759
		c5.146-7.421,8.093-16.813,8.093-27.385c0-11.564-3.097-19.782-6.779-25.476h7.807c0,3.183,0,7.642-1.275,11.463
		c1.566-4.303,4.101-8.355,8.032-10.701v10.957C219.312,246.696,217.264,253.179,217.264,263.245z M239.552,263.881v-7.088
		c0.918-0.442,1.796-0.977,2.626-1.592c-0.209,1.993-0.322,4.037-0.322,6.133c0,9.2,1.772,17.101,5.276,23.564h-7.58V263.881
		L239.552,263.881z M293.689,284.898c0-2.55,0-7.004,0.638-9.556c-2.55,6.373-8.917,10.827-17.197,10.827
		c-3.918,0-7.229-0.911-9.942-2.607l0.001-31.144v-14.653c4.569-4.067,10.729-6.366,18.222-6.366c2.545,0,5.096,0,7.642,0.638
		v-19.106h3.606c-0.009,0.213-0.032,0.423-0.032,0.638v71.329H293.689L293.689,284.898L293.689,284.898z M329.353,258.785h-5.095
		v26.114h-3.573v-71.602c3.285-0.174,6.737-0.364,10.578-0.364c10.224,0,17.496,2.946,21.733,8.13
		c-5.493,3.587-8.395,10.257-6.972,16.907l1.909,8.916c0.338,1.581,0.908,3.082,1.674,4.462c-0.532,0.635-1.027,1.292-1.503,1.962
		C343.369,256.772,336.991,258.785,329.353,258.785z M358.646,271.523c0-2.794,0.619-5.278,1.803-7.454
		c1.929-1.692,3.676-3.555,5.218-5.572c5.333-3.593,13.559-5.441,24.189-5.441v-3.184c0-6.37-2.549-10.191-10.83-10.191
		c-1.896,0-3.88,0.178-5.855,0.531c0.245-1.829,0.373-3.706,0.373-5.627c0-1.065-0.051-2.114-0.126-3.154
		c2.448-0.411,4.983-0.667,7.522-0.667c1.78,0,3.407,0.093,4.91,0.262c-0.144,2.294,0.17,4.622,1.022,6.828l13,33.725
		c-2.754-2.177-6.226-3.487-10.009-3.487h-0.005c-0.805,0-1.59,0.079-2.363,0.192c0.701-1.83,1.088-3.776,1.088-5.678v-1.904
		c-15.397,0.119-19.743,4.523-19.743,9.545c0,3.666,2.348,6.739,6.474,6.985c-1.029,2.126-1.623,4.502-1.624,7.022l-0.001,0.616
		h0.013c0.016,0.433,0.061,0.858,0.111,1.282c-0.172,0.004-0.341,0.017-0.514,0.017C364.38,286.17,358.646,280.44,358.646,271.523z
		 M431.251,288.72c-6.367,17.831-13.371,22.927-25.473,22.927c-1.912,0-5.096,0-6.37-0.638l1.275-9.55
		c1.909,0.634,4.458,0.634,6.367,0.634c5.096,0,9.553-2.546,13.375-12.1l1.909-5.093l-4.846-12.573v-24.368
		c0-6.035-1.116-11.356-3.312-15.922h0.516l8.279,24.201c1.912,4.459,3.187,9.554,3.821,14.009
		c1.275-4.455,3.187-10.825,5.095-16.555l7.642-21.655h12.102L431.251,288.72z"/>
	<path style="fill:#202121;" d="M474.607,435.056H37.393C16.774,435.056,0,418.28,0,397.66V114.336
		c0-20.62,16.774-37.394,37.393-37.394h437.212c20.619,0,37.393,16.775,37.393,37.394v31.459c0,4.466-3.62,8.084-8.084,8.084
		c-4.466,0-8.084-3.618-8.084-8.084v-31.459c0-11.704-9.522-21.226-21.225-21.226H37.393c-11.703-0.001-21.225,9.521-21.225,21.225
		v283.324c0,11.705,9.522,21.227,21.225,21.227h437.212c11.703,0,21.225-9.522,21.225-21.227V172.023
		c0-4.466,3.618-8.084,8.084-8.084c4.465,0,8.084,3.618,8.084,8.084V397.66C512,418.28,495.226,435.056,474.607,435.056z"/>
</g>
<g style="opacity:0.15;">
	<path style="fill:#202121;" d="M28.922,397.66V114.336c0-16.188,13.124-29.31,29.311-29.31h-20.84
		C21.206,85.024,8.084,98.148,8.084,114.335v283.324c0,16.188,13.122,29.311,29.309,29.311h20.84
		C42.047,426.971,28.922,413.847,28.922,397.66z"/>
</g>
<g>
	<path style="fill:#FFFFFF;" d="M139.568,213.571l-10.83,44.576c-1.272,4.459-1.908,8.279-2.546,12.739
		c-0.638-5.093-1.275-9.551-2.546-13.372l-12.737-43.944H98.17l-12.1,43.944c-1.275,4.459-1.912,8.912-2.546,13.372
		c-0.637-4.46-1.275-8.914-2.549-14.009L70.15,213.57H58.047l18.468,71.967h14.014l12.1-44.582
		c1.272-4.458,1.909-8.916,2.546-13.376c0.638,4.459,1.275,8.917,2.55,13.376l12.097,43.944h14.013l17.197-71.329h-11.463v0.001
		H139.568L139.568,213.571z"/>
	<path style="fill:#FFFFFF;" d="M175.232,231.4c-15.922,0-26.114,12.102-26.114,28.023c0,18.472,9.554,26.747,24.201,26.747
		c15.922,0,26.11-12.102,26.11-28.657C199.429,239.043,189.242,231.4,175.232,231.4z M174.594,275.982
		c-8.916,0-13.376-5.733-13.376-17.835c0-12.097,6.367-17.192,13.376-17.192c8.914,0,13.371,6.367,13.371,17.192
		C187.967,270.249,181.599,275.982,174.594,275.982z"/>
	<path style="fill:#FFFFFF;" d="M215.352,243.501c1.275-3.821,1.275-8.28,1.275-11.463h-10.825v52.861h11.463v-21.655
		c0-15.922,5.096-22.927,15.285-21.018v-11.463C222.998,230.13,217.901,236.497,215.352,243.501z"/>
	<polygon style="fill:#FFFFFF;" points="251.019,212.933 239.552,212.933 239.552,263.881 239.552,284.898 251.019,284.898 
		251.02,284.898 251.02,252.418 251.019,252.418 	"/>
	<path style="fill:#FFFFFF;" d="M293.052,232.037c-2.546-0.638-5.097-0.638-7.642-0.638c-17.197,0-27.385,12.102-27.385,29.934
		c0,15.285,6.367,24.836,19.106,24.836c8.28,0,14.646-4.455,17.197-10.827c-0.638,2.551-0.638,7.005-0.638,9.556h10.826v-71.967
		h-11.463L293.052,232.037L293.052,232.037z M292.413,241.593v16.554c0,8.917-4.459,19.11-12.737,19.11
		c-7.004,0-10.188-5.733-10.188-16.559c0-14.014,6.367-19.743,15.285-19.743c2.546,0,5.733,0,8.28,0.638h-0.639l0,0L292.413,241.593
		L292.413,241.593z"/>
	<path style="fill:#FFFFFF;" d="M331.262,212.933c-7.005,0-12.734,0.638-18.469,0.638V284.9h11.463v-26.113h5.095
		c17.197,0,28.023-10.188,28.023-24.201C357.376,221.213,348.457,212.933,331.262,212.933z M329.353,249.235
		c-1.911,0-3.821-0.638-5.095-0.638v-26.113h5.733c10.825,0,15.285,5.095,15.285,12.737
		C345.274,244.139,338.904,249.235,329.353,249.235z"/>
	<path style="fill:#FFFFFF;" d="M389.856,284.898c0-0.208,0-0.426,0.001-0.638h-0.001V284.898z"/>
	<path style="fill:#FFFFFF;" d="M401.319,284.261V247.96c0-10.188-4.458-17.197-20.38-17.197c-7.004,0-14.013,1.912-19.106,3.821
		l1.909,8.917c4.459-2.546,10.193-3.821,15.285-3.821c8.28,0,10.83,3.821,10.83,10.191v3.184c-19.742,0-31.209,6.367-31.209,18.468
		c0,8.916,5.733,14.648,14.651,14.648c8.28,0,14.647-4.455,17.192-10.827c-0.592,2.385-0.631,5.872-0.633,8.917L401.319,284.261
		L401.319,284.261z M375.844,277.257c-4.459,0-7.004-3.187-7.004-7.008c0-5.022,4.345-9.426,19.743-9.545v1.904
		C388.581,269.615,383.485,277.257,375.844,277.257z"/>
	<path style="fill:#FFFFFF;" d="M439.53,232.037l-7.642,21.655c-1.908,5.73-3.821,12.102-5.095,16.555
		c-0.634-4.455-1.909-9.55-3.821-14.009l-8.279-24.201h-12.734l20.377,52.861l-1.909,5.093c-3.821,9.553-8.279,12.1-13.374,12.1
		c-1.91,0-4.459,0-6.367-0.634l-1.275,9.55c1.275,0.638,4.458,0.638,6.37,0.638c12.102,0,19.106-5.096,25.473-22.927l20.38-56.682
		L439.53,232.037L439.53,232.037z"/>
</g>
<g>
</g>
<g>
</g>
<g>
</g>
<g>
</g>
<g>
</g>
<g>
</g>
<g>
</g>
<g>
</g>
<g>
</g>
<g>
</g>
<g>
</g>
<g>
</g>
<g>
</g>
<g>
</g>
<g>
</g>
</svg>
