<?xml version="1.0" encoding="iso-8859-1"?>
<!-- Generator: Adobe Illustrator 19.0.0, SVG Export Plug-In . SVG Version: 6.00 Build 0)  -->
<svg version="1.1" id="Capa_1" xmlns="http://www.w3.org/2000/svg" xmlns:xlink="http://www.w3.org/1999/xlink" x="0px" y="0px"
	 viewBox="0 0 511.998 511.998" style="enable-background:new 0 0 511.998 511.998;" xml:space="preserve">
<path style="fill:#1B7EC1;" d="M503.916,397.66c0,16.188-13.122,29.311-29.309,29.311H37.393c-16.188,0-29.309-13.124-29.309-29.311
	V114.336c0-16.188,13.122-29.31,29.309-29.31h437.212c16.188,0,29.309,13.123,29.309,29.31v283.325L503.916,397.66L503.916,397.66z"
	/>
<path style="fill:#202121;" d="M474.607,435.056H37.393C16.775,435.056,0,418.28,0,397.66V114.336
	c0-20.62,16.775-37.394,37.393-37.394h437.212c20.619,0,37.393,16.775,37.393,37.394v31.459c0,4.466-3.618,8.084-8.084,8.084
	s-8.084-3.618-8.084-8.084v-31.459c0-11.704-9.522-21.226-21.225-21.226H37.393c-11.704-0.001-21.225,9.521-21.225,21.225v283.324
	c0,11.705,9.521,21.227,21.225,21.227h437.212c11.703,0,21.225-9.522,21.225-21.227V172.023c0-4.466,3.618-8.084,8.084-8.084
	c4.466,0,8.084,3.618,8.084,8.084V397.66C512,418.28,495.226,435.056,474.607,435.056z"/>
<g style="opacity:0.15;">
	<path style="fill:#202121;" d="M28.922,397.66V114.336c0-16.188,13.124-29.31,29.311-29.31h-20.84
		C21.206,85.024,8.084,98.148,8.084,114.335v283.324c0,16.188,13.122,29.311,29.309,29.311h20.84
		C42.047,426.971,28.922,413.847,28.922,397.66z"/>
</g>
<g>
	<path style="fill:#202121;" d="M284.037,237.398c-0.047,0-0.095,0-0.141,0c-0.855,0.01-1.687,0.037-2.487,0.081
		c-0.323,0.018-0.645,0.035-0.967,0.059c-0.65,5.19,0,11.027,0,16.217c0.37,0.057,0.738,0.101,1.106,0.149
		c1.283,0.153,2.675,0.251,4.121,0.281c0.043,0,0.085,0,0.127,0c6.311,0,11.511-2.105,11.511-8.214
		C297.307,239.301,291.113,237.398,284.037,237.398z"/>
	<polygon style="fill:#202121;" points="344.007,268.671 360.224,268.671 351.791,242.079 	"/>
	<path style="fill:#202121;" d="M205.508,238.854c-3.33,0.116-6.461,1.123-8.738,3.225c-2.598,2.593-3.891,6.486-4.541,11.676
		h25.943C218.619,245.242,212.262,239.21,205.508,238.854z"/>
	<path style="fill:#202121;" d="M459.485,207.102L459.485,207.102c-0.004,0-0.009,0-0.013,0h-0.005h-23.999
		c-5.657,0-10.902,2.957-13.832,7.795l-1.089,1.797l-1.087-1.796c-2.934-4.847-8.186-7.796-13.832-7.796
		c-0.141,0-0.282,0.002-0.424,0.005l-24.648,0.645c-2.537,0.066-4.971,0.729-7.139,1.876c-2.533-1.608-5.514-2.526-8.655-2.526
		h-24.648c-6.74,0-12.773,4.181-15.139,10.491l-0.072,0.195c-1.863-1.935-3.802-3.493-5.652-4.728
		c-0.178-0.119-0.359-0.234-0.541-0.346c-5.085-3.106-13.984-6.672-37.847-6.672c-13.077,0-24.789,1.084-25.282,1.131
		c-6.373,0.598-11.582,4.847-13.668,10.558c-8.445-6.682-19.635-10.559-33.293-11.256c-0.275-0.014-0.551-0.022-0.826-0.022h-6.489
		c-0.306,0-0.612,0.009-0.918,0.026c-7.207,0.41-13.713,1.896-19.344,4.418c-2.836,1.151-5.516,2.522-8.032,4.082
		c-2.825-4.713-7.966-7.877-13.86-7.877h-0.005H137.74c-3.478,0-6.737,1.107-9.405,3.016c-2.676-1.913-5.939-3.016-9.405-3.016
		H98.174c-3.607,0-6.993,1.193-9.729,3.255c-2.726-2.054-6.108-3.255-9.729-3.255c-0.299,0-0.6-0.005-0.903-0.01l-0.415-0.005
		c-1.222-0.023-2.088-0.075-3.003-0.132c-1.089-0.066-2.323-0.141-3.838-0.141c-0.736,0-1.484,0.018-2.268,0.054
		c-1.596-0.037-2.934-0.054-4.168-0.054c-3.246,0-5.923,0.116-8.426,0.369c-4.654,0.468-8.879,2.928-11.582,6.745
		c-2.702,3.818-3.62,8.62-2.514,13.165c6.37,26.178,11.161,49.918,14.646,72.576c1.213,7.888,8,13.711,15.981,13.711h22.056
		c5.392,0,10.325-2.673,13.296-6.967c2.956,4.27,7.874,6.967,13.297,6.967h22.055c7.646,0,14.245-5.355,15.821-12.836l0.117-0.559
		c0.431-2.045,0.864-4.105,1.299-6.16c9.025,11.457,23.206,18.357,40.633,18.903c0.168,0.004,0.337,0.008,0.507,0.008h7.138
		c13.212,0,24.613-3.648,33.918-10.823c2.536,5.612,8.17,9.524,14.729,9.524h6.486h16.216c8.929,0,16.168-7.239,16.168-16.168
		v-10.394c1.364-0.126,2.68-0.297,3.972-0.495l-2.198,5.859c-1.863,4.966-1.171,10.528,1.85,14.887
		c3.021,4.359,7.986,6.959,13.289,6.959h5.84h16.216h0.646c6.959,0,13.138-4.454,15.338-11.056l0.206-0.619h2.005
		c1.998,6.908,8.327,11.675,15.531,11.675h5.839h17.51c3.152,0,6.172-0.936,8.747-2.596c2.528,1.636,5.533,2.596,8.768,2.596h22.705
		c8.929,0,16.168-7.239,16.168-16.168v-25.719l24.48-37.884c1.744-2.582,2.765-5.693,2.765-9.044
		C475.639,214.345,468.409,207.109,459.485,207.102z M157.513,230.26L157.513,230.26c-2.748,11.837-5.361,23.673-7.91,35.508l0,0
		c-2.256,10.48-4.466,20.961-6.673,31.443h-22.055c-3.891-14.917-9.078-29.836-12.969-44.106
		c-4.542,14.27-8.432,29.838-13.624,44.106H72.226c-3.89-25.294-9.077-49.942-14.917-73.941c0.994-0.1,2.025-0.162,3.074-0.207
		c0.338-0.015,0.684-0.02,1.028-0.031c0.736-0.022,1.478-0.037,2.231-0.04c0.162,0,0.316-0.009,0.479-0.009
		c0.195,0,0.398,0.008,0.594,0.009c1.253,0.006,2.516,0.023,3.795,0.055c0.357-0.022,0.682-0.033,0.995-0.044
		c0.046-0.002,0.096-0.004,0.141-0.005c0.29-0.009,0.562-0.012,0.824-0.013c0.027,0,0.059-0.001,0.086-0.001
		c0.028,0,0.053,0.001,0.081,0.001c0.218,0.001,0.43,0.003,0.636,0.008c0.046,0.002,0.092,0.003,0.137,0.004
		c0.175,0.005,0.348,0.012,0.518,0.019c0.053,0.002,0.108,0.004,0.161,0.006c0.197,0.009,0.396,0.019,0.594,0.03
		c0.067,0.004,0.135,0.008,0.203,0.012c0.182,0.011,0.366,0.023,0.556,0.033c0.218,0.013,0.446,0.026,0.679,0.04
		c0.066,0.004,0.135,0.008,0.203,0.012c0.206,0.012,0.42,0.023,0.645,0.033c0.045,0.002,0.089,0.004,0.136,0.006
		c0.258,0.012,0.534,0.023,0.82,0.032c0.074,0.003,0.151,0.005,0.226,0.008c0.309,0.01,0.629,0.019,0.98,0.025
		c0.529,0.006,1.061,0.017,1.585,0.017l7.783,40.864c4.54-12.974,7.783-27.245,11.675-40.864h20.758
		c3.891,13.619,7.783,27.239,11.026,40.864c3.242-12.974,5.19-27.245,7.783-40.864h21.406
		C158.594,225.6,158.053,227.931,157.513,230.26z M244.118,266.079h-3.196h-48.695c0,0.632,0.038,1.244,0.096,1.844
		c0.018,0.189,0.046,0.37,0.07,0.554c0.053,0.413,0.115,0.819,0.195,1.215c0.04,0.198,0.083,0.393,0.128,0.589
		c0.092,0.386,0.198,0.763,0.315,1.133c0.053,0.166,0.1,0.335,0.157,0.497c0.177,0.502,0.372,0.992,0.593,1.457
		c0.006,0.014,0.012,0.028,0.018,0.043c0.23,0.48,0.488,0.936,0.762,1.375c0.084,0.135,0.176,0.261,0.264,0.391
		c0.203,0.301,0.412,0.594,0.634,0.873c0.11,0.138,0.222,0.273,0.335,0.404c0.23,0.266,0.47,0.52,0.717,0.764
		c0.112,0.11,0.22,0.223,0.335,0.329c0.346,0.318,0.706,0.619,1.083,0.894c0.02,0.015,0.039,0.032,0.059,0.047
		c0.4,0.288,0.818,0.544,1.247,0.783c0.13,0.071,0.265,0.133,0.397,0.199c0.31,0.157,0.625,0.303,0.949,0.433
		c0.158,0.065,0.319,0.124,0.481,0.182c0.323,0.115,0.654,0.216,0.988,0.305c0.153,0.04,0.305,0.085,0.46,0.12
		c0.451,0.102,0.909,0.182,1.375,0.235c0.04,0.005,0.079,0.015,0.119,0.019c0.509,0.053,1.027,0.069,1.552,0.064
		c0.152-0.002,0.308-0.017,0.461-0.023c0.378-0.018,0.759-0.049,1.144-0.098c0.184-0.024,0.371-0.052,0.557-0.083
		c0.378-0.064,0.759-0.144,1.141-0.239c0.172-0.043,0.345-0.08,0.517-0.128c0.55-0.155,1.101-0.335,1.657-0.557
		c4.541-1.948,6.486-5.19,6.486-5.19l23.401,2.462l0,0l0.72,0.075c-0.453,1.073-0.955,2.061-1.478,3.001
		c-0.039,0.069-0.075,0.142-0.115,0.21c-0.245,0.432-0.496,0.847-0.752,1.251c-0.06,0.095-0.119,0.192-0.179,0.285
		c-0.245,0.378-0.49,0.742-0.741,1.094c-0.08,0.112-0.158,0.222-0.238,0.332c-0.237,0.326-0.473,0.641-0.714,0.944
		c-0.101,0.128-0.201,0.25-0.302,0.376c-0.222,0.272-0.443,0.539-0.665,0.793c-0.13,0.15-0.259,0.29-0.388,0.432
		c-0.194,0.213-0.388,0.43-0.581,0.631c-0.178,0.188-0.354,0.359-0.53,0.535c-0.142,0.141-0.286,0.291-0.427,0.424
		c-0.319,0.305-0.633,0.594-0.937,0.86c-0.133,0.111-0.26,0.23-0.395,0.338c-0.033,0.028-0.068,0.058-0.101,0.085
		c-6.025,4.863-13.964,7.926-24.658,7.926h-7.138c-0.631-0.019-1.256-0.052-1.873-0.093c-0.215-0.014-0.425-0.037-0.637-0.054
		c-0.4-0.031-0.801-0.063-1.194-0.103c-0.25-0.025-0.495-0.059-0.743-0.088c-0.35-0.042-0.703-0.082-1.049-0.132
		c-0.263-0.037-0.52-0.081-0.78-0.122c-0.323-0.052-0.647-0.102-0.966-0.16c-0.269-0.049-0.534-0.105-0.799-0.156
		c-0.303-0.061-0.606-0.121-0.904-0.188c-0.271-0.06-0.537-0.126-0.804-0.191c-0.286-0.069-0.571-0.139-0.853-0.213
		c-0.272-0.072-0.539-0.15-0.807-0.226c-0.269-0.078-0.538-0.156-0.804-0.239c-0.272-0.084-0.54-0.172-0.807-0.262
		c-0.253-0.085-0.504-0.17-0.755-0.26c-0.272-0.098-0.541-0.199-0.808-0.302c-0.236-0.091-0.471-0.183-0.704-0.279
		c-0.273-0.111-0.542-0.224-0.81-0.341c-0.219-0.097-0.437-0.195-0.652-0.294c-0.273-0.125-0.543-0.253-0.811-0.385
		c-0.203-0.099-0.401-0.203-0.6-0.305c-0.273-0.141-0.543-0.285-0.811-0.431c-0.183-0.101-0.363-0.206-0.544-0.31
		c-0.275-0.158-0.549-0.319-0.817-0.484c-0.162-0.1-0.319-0.204-0.479-0.305c-0.279-0.179-0.558-0.359-0.83-0.545
		c-0.135-0.093-0.266-0.19-0.4-0.285c-0.289-0.205-0.578-0.411-0.858-0.624c-0.097-0.073-0.191-0.152-0.287-0.226
		c-0.31-0.241-0.618-0.484-0.917-0.736c-0.038-0.031-0.073-0.066-0.111-0.097c-2.606-2.217-4.813-4.84-6.579-7.837
		c-0.008-0.014-0.016-0.027-0.025-0.041c-0.24-0.409-0.47-0.826-0.693-1.247c-0.018-0.035-0.038-0.068-0.055-0.103
		c-0.216-0.412-0.423-0.831-0.623-1.256c-0.022-0.046-0.044-0.093-0.066-0.139c-0.195-0.42-0.382-0.847-0.561-1.278
		c-0.023-0.054-0.045-0.108-0.068-0.162c-0.177-0.431-0.345-0.87-0.507-1.313c-0.02-0.056-0.041-0.112-0.061-0.168
		c-0.16-0.445-0.31-0.898-0.454-1.356c-0.018-0.056-0.034-0.112-0.052-0.167c-0.142-0.462-0.277-0.93-0.403-1.404
		c-0.014-0.053-0.027-0.106-0.041-0.157c-0.126-0.483-0.245-0.97-0.354-1.466c-0.009-0.041-0.017-0.083-0.026-0.124
		c-0.111-0.51-0.213-1.024-0.306-1.547c-0.003-0.023-0.008-0.045-0.011-0.068c-0.272-1.551-0.471-3.151-0.578-4.809
		c-0.578-10.992,1.956-19.909,6.941-26.599l0,0c0-0.001,0.001-0.002,0.001-0.002c1.273-1.708,2.712-3.263,4.294-4.677
		c0.176-0.157,0.347-0.32,0.526-0.473c0.386-0.329,0.787-0.644,1.189-0.956c0.278-0.217,0.557-0.431,0.843-0.64
		c0.365-0.265,0.738-0.524,1.118-0.777c0.359-0.24,0.725-0.472,1.096-0.698c0.343-0.21,0.684-0.421,1.037-0.621
		c0.465-0.264,0.943-0.513,1.424-0.759c0.288-0.147,0.569-0.301,0.863-0.441c0.792-0.38,1.602-0.741,2.436-1.071
		c3.855-1.774,8.467-2.838,13.907-3.147h6.489c0.951,0.049,1.878,0.122,2.792,0.207c0.267,0.024,0.529,0.055,0.792,0.082
		c0.68,0.072,1.35,0.156,2.009,0.248c0.245,0.035,0.493,0.068,0.736,0.106c1.751,0.272,3.426,0.618,5.026,1.041
		c0.194,0.051,0.384,0.107,0.576,0.16c0.642,0.18,1.273,0.372,1.89,0.575c0.163,0.054,0.328,0.107,0.489,0.161
		c1.545,0.532,3.007,1.146,4.391,1.838c0.112,0.057,0.221,0.115,0.332,0.171c0.612,0.316,1.209,0.647,1.789,0.993
		c0.079,0.049,0.16,0.094,0.238,0.141c1.33,0.813,2.574,1.711,3.732,2.695c0.046,0.039,0.092,0.079,0.137,0.117
		c0.557,0.479,1.094,0.977,1.61,1.496c0.019,0.018,0.038,0.037,0.056,0.055c1.094,1.105,2.095,2.301,3.007,3.587
		c0.01,0.014,0.019,0.028,0.03,0.043c1.372,1.943,2.537,4.094,3.495,6.452c0,0,0.001,0.001,0.001,0.002l0,0
		C243.471,249.072,244.55,256.821,244.118,266.079z M306.949,265.67c-0.052,0.025-0.109,0.044-0.161,0.069
		c-1.147,0.531-2.367,0.994-3.654,1.39c-0.153,0.046-0.307,0.093-0.462,0.137c-0.563,0.165-1.137,0.319-1.725,0.459
		c-0.096,0.023-0.189,0.048-0.285,0.071c-0.677,0.156-1.37,0.296-2.078,0.421c-0.16,0.028-0.323,0.054-0.484,0.08
		c-0.577,0.097-1.162,0.183-1.758,0.26c-0.18,0.023-0.359,0.048-0.541,0.07c-0.737,0.086-1.485,0.163-2.25,0.222
		c-0.105,0.009-0.212,0.014-0.318,0.022c-0.669,0.048-1.351,0.086-2.04,0.115c-0.223,0.009-0.447,0.017-0.673,0.024
		c-0.697,0.023-1.403,0.034-2.12,0.038c-0.086,0-0.168,0.004-0.254,0.004c-0.018,0-0.037-0.001-0.055-0.001
		c-1.295-0.001-2.62-0.033-3.972-0.095c-0.03-0.001-0.059-0.002-0.089-0.003c-1.385-0.065-2.798-0.158-4.238-0.282v26.598h-16.216
		h-6.486v-13.48v-41.765v-16.753c0,0,0.153-0.014,0.43-0.039c0.019-0.001,0.032-0.002,0.055-0.004
		c0.144-0.013,0.322-0.028,0.527-0.045c0.013-0.001,0.022-0.002,0.033-0.003c0.209-0.017,0.448-0.037,0.714-0.058
		c0.026-0.002,0.05-0.004,0.074-0.006c0.274-0.023,0.577-0.045,0.904-0.07c0.018-0.001,0.033-0.002,0.052-0.003
		c0.334-0.025,0.694-0.052,1.078-0.08c0.027-0.001,0.051-0.003,0.077-0.005c0.38-0.027,0.784-0.055,1.209-0.084
		c0.041-0.002,0.083-0.005,0.126-0.009c0.424-0.027,0.866-0.057,1.328-0.085c0.046-0.003,0.093-0.006,0.139-0.01
		c0.47-0.028,0.956-0.058,1.463-0.086c0.044-0.003,0.088-0.005,0.133-0.008c0.523-0.03,1.063-0.06,1.622-0.088
		c0.018-0.001,0.037-0.001,0.055-0.003c0.579-0.029,1.176-0.058,1.789-0.086c0.009,0,0.018,0,0.026-0.001
		c1.242-0.056,2.548-0.109,3.903-0.152c0.015,0,0.027-0.001,0.042-0.001c0.661-0.022,1.333-0.04,2.016-0.057
		c0.031,0,0.064-0.001,0.095-0.002c0.665-0.016,1.34-0.029,2.021-0.041c0.053-0.001,0.107-0.001,0.158-0.002
		c0.664-0.011,1.336-0.018,2.011-0.023c0.073-0.001,0.147-0.001,0.22-0.002c0.487-0.003,0.977-0.005,1.468-0.005
		c0.119,0,0.239,0.002,0.358,0.002c0.319,0,0.639,0.002,0.959,0.004c0.414,0.003,0.827,0.006,1.241,0.011
		c0.33,0.004,0.659,0.011,0.99,0.016c0.409,0.008,0.816,0.015,1.224,0.025c0.334,0.008,0.667,0.018,1.001,0.027
		c0.405,0.012,0.81,0.026,1.215,0.04c0.334,0.013,0.665,0.026,0.998,0.041c0.401,0.017,0.8,0.036,1.198,0.057
		c0.335,0.017,0.669,0.036,1.002,0.056c0.389,0.023,0.777,0.047,1.163,0.073c0.334,0.023,0.667,0.047,0.999,0.072
		c0.382,0.029,0.759,0.061,1.136,0.094c0.328,0.028,0.653,0.057,0.978,0.088c0.37,0.036,0.735,0.074,1.099,0.113
		c0.322,0.034,0.643,0.07,0.96,0.109c0.357,0.042,0.707,0.088,1.057,0.135c0.31,0.042,0.622,0.083,0.926,0.127
		c0.346,0.051,0.683,0.106,1.021,0.16c0.294,0.048,0.592,0.096,0.881,0.147c0.334,0.059,0.658,0.124,0.983,0.188
		c0.276,0.055,0.555,0.108,0.825,0.166c0.322,0.068,0.63,0.143,0.941,0.218c0.254,0.061,0.515,0.119,0.761,0.183
		c0.31,0.081,0.604,0.168,0.901,0.254c0.227,0.067,0.462,0.129,0.682,0.199c0.302,0.096,0.584,0.199,0.871,0.301
		c0.194,0.069,0.397,0.135,0.582,0.206c0.305,0.119,0.586,0.247,0.871,0.373c0.144,0.066,0.301,0.125,0.44,0.192
		c0.412,0.199,0.799,0.406,1.155,0.624c0.427,0.285,0.831,0.587,1.223,0.899c0.114,0.092,0.224,0.188,0.336,0.281
		c0.282,0.236,0.557,0.48,0.821,0.732c0.106,0.099,0.209,0.199,0.312,0.3c0.3,0.301,0.589,0.612,0.866,0.932
		c0.041,0.049,0.086,0.095,0.128,0.144c0.333,0.396,0.647,0.806,0.942,1.231c0.014,0.019,0.026,0.04,0.039,0.059
		c0.277,0.4,0.534,0.814,0.778,1.237c0.038,0.066,0.074,0.132,0.112,0.198c0.234,0.417,0.453,0.844,0.656,1.283
		c0.015,0.032,0.03,0.064,0.045,0.096c0.453,0.992,0.832,2.043,1.141,3.146l0,0l0,0c0.695,2.49,1.034,5.251,1.034,8.27
		c0,10.44-4.378,16.852-11.761,20.338L306.949,265.67z M374.496,295.917h-5.839l-2.918-10.506l-0.974-1.168h-25.298l-3.891,11.675
		h-0.646h-16.216h-5.84l7.252-19.337l0,0l19.991-53.308h24.648l0.064,0.168l0,0l4.586,12.23l0.001,0.002l22.592,60.247h-17.512
		L374.496,295.917L374.496,295.917z M432.226,265.428v30.488h-22.705v-29.838l-28.54-42.164l1.281-0.033l0,0l23.369-0.61
		l14.918,24.648l14.921-24.648h23.999L432.226,265.428z"/>
</g>
<path style="fill:#FFFFFF;" d="M129.956,264.135c-3.242-13.625-7.133-27.245-11.026-40.864H98.174
	c-3.891,13.619-7.135,27.891-11.675,40.864l-7.783-40.864c-0.523,0-1.055-0.011-1.585-0.017c-4.029-0.073-5.151-0.407-8.621-0.207
	c-3.907-0.097-7.74-0.123-11.201,0.224c5.84,23.999,11.026,48.648,14.917,73.941h22.056c5.19-14.268,9.081-29.836,13.624-44.106
	c3.891,14.27,9.078,29.189,12.969,44.106h22.055c5.191-24.649,10.377-49.293,16.217-73.941H137.74
	C135.148,236.889,133.199,251.161,129.956,264.135z"/>
<g>
	<path style="fill:#48C92D;" d="M318.714,245.321c0-8.431-2.597-14.917-8.432-18.808c-11.679-7.135-53.19-3.242-53.19-3.242v71.998
		h6.486h16.216v-26.598C302.498,270.618,318.714,265.428,318.714,245.321z M285.669,254.184c-1.447-0.029-2.839-0.128-4.121-0.281
		c-0.369-0.047-0.737-0.092-1.106-0.149c0-5.19-0.65-11.027,0-16.217c0.323-0.024,0.645-0.041,0.967-0.059
		c0.799-0.044,1.632-0.071,2.487-0.081c7.136-0.025,13.411,1.859,13.411,8.573C297.307,252.12,292.038,254.213,285.669,254.184z"/>
	<path style="fill:#48C92D;" d="M340.116,223.271l-27.243,72.646h5.84h16.216h0.646l3.891-11.675h25.298l0.974,1.168l2.918,10.506
		h5.839h17.51l-27.242-72.646L340.116,223.271L340.116,223.271z M344.007,268.671l7.785-26.592l8.432,26.592H344.007z"/>
	<polygon style="fill:#48C92D;" points="435.468,223.271 420.547,247.919 405.629,223.271 380.981,223.914 409.521,266.079 
		409.521,295.917 432.226,295.917 432.226,265.428 459.468,223.271 	"/>
</g>
<path style="fill:#FFFFFF;" d="M233.204,288.556c0.135-0.11,0.262-0.227,0.395-0.338c2.586-2.269,5.827-5.91,8.045-11.168
	l-24.121-2.537c0,0-1.945,3.242-6.486,5.19c-9.73,3.892-18.808-2.596-18.808-13.621h51.891
	c1.298-27.893-11.027-42.164-36.324-43.457h-6.489c-5.44,0.309-10.052,1.373-13.907,3.147
	c-14.402,5.719-22.772,18.593-21.767,37.716c1.298,20.108,14.921,32.433,35.675,33.083h7.138c10.694,0,18.632-3.063,24.658-7.926
	C233.136,288.614,233.169,288.584,233.204,288.556z M196.77,242.079c2.278-2.102,5.41-3.109,8.738-3.225
	c6.754,0.356,13.11,6.389,12.663,14.901h-25.943C192.877,248.565,194.172,244.672,196.77,242.079z"/>
<g>
</g>
<g>
</g>
<g>
</g>
<g>
</g>
<g>
</g>
<g>
</g>
<g>
</g>
<g>
</g>
<g>
</g>
<g>
</g>
<g>
</g>
<g>
</g>
<g>
</g>
<g>
</g>
<g>
</g>
</svg>
