<?xml version="1.0" encoding="iso-8859-1"?>
<!-- Generator: Adobe Illustrator 19.0.0, SVG Export Plug-In . SVG Version: 6.00 Build 0)  -->
<svg version="1.1" id="Capa_1" xmlns="http://www.w3.org/2000/svg" xmlns:xlink="http://www.w3.org/1999/xlink" x="0px" y="0px"
	 viewBox="0 0 511.998 511.998" style="enable-background:new 0 0 511.998 511.998;" xml:space="preserve">
<path style="fill:#E7E8E3;" d="M503.916,397.661c0,16.188-13.122,29.311-29.309,29.311H37.393
	c-16.188,0-29.309-13.124-29.309-29.311V114.336c0-16.188,13.122-29.31,29.309-29.31h437.212c16.188,0,29.309,13.123,29.309,29.31
	v283.326L503.916,397.661L503.916,397.661z"/>
<g style="opacity:0.15;">
	<path style="fill:#202121;" d="M28.922,397.661V114.336c0-16.188,13.124-29.31,29.311-29.31h-20.84
		c-16.187,0-29.309,13.123-29.309,29.31v283.326c0,16.188,13.122,29.311,29.309,29.311h20.84
		C42.047,426.973,28.922,413.849,28.922,397.661z"/>
</g>
<g>
	<path style="fill:#202121;" d="M474.607,435.057H37.393C16.775,435.057,0,418.282,0,397.661V114.336
		c0-20.62,16.775-37.394,37.393-37.394h437.212c20.619,0,37.393,16.775,37.393,37.394v31.459c0,4.466-3.62,8.084-8.084,8.084
		c-4.466,0-8.084-3.618-8.084-8.084v-31.459c0-11.704-9.522-21.226-21.225-21.226H37.393c-11.703,0-21.225,9.522-21.225,21.226
		v283.326c0,11.705,9.522,21.227,21.225,21.227h437.212c11.703,0,21.225-9.522,21.225-21.227V172.025
		c0-4.466,3.618-8.084,8.084-8.084c4.465,0,8.084,3.618,8.084,8.084v225.637C512,418.282,495.226,435.057,474.607,435.057z"/>
	<path style="fill:#202121;" d="M456.757,259.225c0.071-1.077,0.693-10.652,0.611-16.763c-0.075-19.7-7.571-37.392-21.114-49.833
		c-12.653-11.624-29.746-18.026-48.125-18.026c-9.611,0-18.779,1.658-27.082,4.817c-2.745-2.148-6.202-3.43-9.958-3.43h-26.062
		c-3.506,0-6.752,1.116-9.4,3.012c-7.432-2.947-15.388-4.399-23.98-4.399c-16.853,0-29.084,5.59-36.99,11.021
		c-11.55-7.312-27.516-10.898-48.268-10.898c-11.983,0-26.667,1.139-40.007,8.714c-13.074-6.002-27.414-8.837-44.306-8.837
		c-17.109,0-32.053,3.874-43.219,11.203c-13.652,8.961-21.171,22.754-21.171,38.842c0,12.75,4.991,24.21,14.128,32.619L55.08,271.39
		c-3.696,3.121-5.802,7.731-5.739,12.567s2.288,9.391,6.065,12.413c18.981,15.189,42.105,23.216,66.874,23.216
		c16.075,0,30.567-3.064,42.078-8.777c10.173,5.907,22.886,8.981,37.467,8.981c7.3,0,15.453-0.474,23.191-2.751
		c2.612,1.812,5.784,2.874,9.203,2.874h3.019c-1.809,2.408-2.93,5.304-3.183,8.375c-0.401,4.859,1.412,9.64,4.934,13.011
		c14.977,14.336,35.908,22.894,55.989,22.894c19.213,0,36.16-5.23,49.005-15.123c10.933-8.419,18.166-19.619,21.375-32.91
		c7.98,2.4,16.794,3.629,26.265,3.629c22.033,0,42.775-8.516,58.402-23.981c3.379-3.344,5.116-8.006,4.747-12.744
		c-0.337-4.336-2.404-8.338-5.707-11.117C453.399,269.289,456.398,264.642,456.757,259.225z M440.624,258.154h-79.626
		c0,17.958,12.333,24.732,30.13,24.732c9.909,0,22.447-4.447,30.053-11.182l17.472,12.61c-12.703,12.57-29.721,19.305-47.03,19.305
		c-14.223,0-29.474-3.265-40.533-13.306v9.264c0,33.223-26.555,48.445-56.112,48.445c-16.526,0-33.34-7.428-44.809-18.406
		l20.102-13.713c6.289,5.386,15.251,9.959,25.159,9.959c17.43,0,29.556-8.409,29.556-23.876V290.68
		c-8.057,7.633-20.101,12.856-33.338,12.856c-14.595,0-25.077-5.428-31.487-10.937v11.143H234.22V292.52h-0.495
		c-5.341,7.633-14.304,11.101-31.899,11.101c-16.444,0-28.981-4.735-36.668-12.367c-9.703,7.918-25.159,12.162-42.876,12.162
		c-20.883,0-40.246-6.448-56.772-19.672l18.086-15.264c11.183,9.345,23.433,14.204,40.74,14.204
		c14.798,0,25.447-4.859,25.447-14.204c0-7.795-6.866-10.121-15.745-10.775l-22.939-1.756
		c-21.376-1.551-37.244-12.367-37.244-31.303c0-22.367,20.924-33.876,48.221-33.876c19.649,0,33.75,4.448,45.505,11.591
		c9.539-8.49,21.996-11.468,38.807-11.468c22.485,0,39.956,4.529,48.345,16.692c0.853-1.062,1.726-2.123,2.796-3.307
		c5.836-6.243,17.306-13.508,34.119-13.508c13.237,0,23.761,4.368,33.38,13.06v-11.673h26.062v12.041
		c10.278-9.632,24.13-13.428,37.04-13.428c28.487,0,52.988,19.426,53.07,51.834C441.281,248.233,440.624,258.154,440.624,258.154z"
		/>
	<path style="fill:#202121;" d="M234.179,237.134v-11.305c0-10.407-7.852-14.081-26.516-14.081c-13.524,0-22.282,3.96-29.105,10.245
		l-10.852-11.101l-11.017,10.978c-10.196-6.081-20.594-10.203-34.612-10.203c-16.608,0-22.158,5.592-22.158,13.224
		c0,4.816,3.987,9.549,17.019,10.407l21.417,1.346c13.196,0.696,22.57,4.451,28.572,10.245c6.986-6.001,17.513-9.756,31.323-9.756
		h35.929L234.179,237.134L234.179,237.134z"/>
	<path style="fill:#202121;" d="M180.737,269.867c0,7.43,6.783,13.878,24.419,13.878c21.665,0,29.063-1.92,29.063-19.102v-7.999
		h-31.12C187.849,256.644,180.737,261.828,180.737,269.867z"/>
	<path style="fill:#202121;" d="M298.759,212.483c-10.77,0-18.746,4.651-22.445,8.611c-4.645,5.019-5.426,7.918-5.261,26.079
		c0.319,18.04,0.617,20.855,5.261,25.835c3.7,4,11.675,8.612,22.445,8.612c10.525,0,17.309-4.612,21.006-8.612
		c4.687-4.98,5.262-8.08,5.262-25.835c0-17.959-0.576-21.019-5.262-26.079C316.097,217.134,309.284,212.483,298.759,212.483z
		 M308.34,261.547c-0.087,0.099-0.203,0.225-0.349,0.383c-0.032,0.035-0.066,0.069-0.098,0.105c-1.442,1.56-4.198,3.42-9.134,3.42
		c-6.048,0-9.755-2.535-10.576-3.423c-0.015-0.016-0.03-0.032-0.045-0.049c-0.098-0.106-0.181-0.196-0.249-0.273
		c-0.451-2.49-0.581-9.775-0.668-14.751c-0.027-3.027-0.102-11.637,0.451-14.312c0.109-0.125,0.261-0.299,0.473-0.529
		c0.875-0.918,4.631-3.464,10.615-3.464c4.931,0,7.696,1.866,9.144,3.43c0.186,0.202,0.322,0.355,0.421,0.47
		c0.535,2.584,0.535,10.947,0.535,14.623C308.859,250.772,308.859,258.938,308.34,261.547z"/>
	<path style="fill:#202121;" d="M390.927,210.198c-15.83,0-29.929,9.348-29.929,28.57h60.101
		C421.099,219.667,406.794,210.198,390.927,210.198z"/>
</g>
<path style="fill:#51B151;" d="M441.2,242.604c-0.082-32.407-24.585-51.834-53.07-51.834c-12.911,0-26.762,3.795-37.04,13.428
	v-12.041h-26.062v11.673c-9.619-8.692-20.144-13.06-33.38-13.06c-16.814,0-28.283,7.265-34.119,13.508
	c-1.07,1.185-1.943,2.245-2.796,3.307c-8.387-12.163-25.859-16.692-48.345-16.692c-16.812,0-29.268,2.978-38.807,11.468
	c-11.756-7.142-25.857-11.591-45.505-11.591c-27.297,0-48.221,11.509-48.221,33.876c0,18.936,15.869,29.752,37.244,31.303
	l22.939,1.756c8.879,0.653,15.745,2.979,15.745,10.775c0,9.345-10.65,14.204-25.447,14.204c-17.307,0-29.557-4.859-40.74-14.204
	L65.51,283.743c16.525,13.224,35.889,19.672,56.772,19.672c17.718,0,33.173-4.245,42.876-12.162
	c7.686,7.632,20.223,12.367,36.668,12.367c17.596,0,26.558-3.469,31.899-11.101h0.495v11.224h25.941V292.6
	c6.41,5.509,16.893,10.937,31.487,10.937c13.237,0,25.281-5.223,33.338-12.856v11.305c0,15.469-12.126,23.876-29.556,23.876
	c-9.907,0-18.87-4.572-25.159-9.959l-20.102,13.713c11.47,10.979,28.283,18.406,44.809,18.406c29.557,0,56.112-15.222,56.112-48.445
	v-9.265c11.06,10.04,26.31,13.306,40.533,13.306c17.309,0,34.327-6.735,47.03-19.305l-17.472-12.61
	c-7.606,6.735-20.144,11.182-30.053,11.182c-17.797,0-30.13-6.775-30.13-24.732h79.626
	C440.624,258.154,441.281,248.233,441.2,242.604z M138.353,236.645l-21.417-1.346c-13.032-0.858-17.019-5.592-17.019-10.407
	c0-7.632,5.55-13.224,22.158-13.224c14.018,0,24.416,4.122,34.612,10.203l11.017-10.978l10.852,11.101
	c6.823-6.285,15.581-10.245,29.105-10.245c18.663,0,26.516,3.672,26.516,14.081v11.305h-35.931c-13.811,0-24.337,3.754-31.323,9.756
	C160.923,241.095,151.55,237.34,138.353,236.645z M234.219,264.642c0,17.183-7.399,19.102-29.063,19.102
	c-17.635,0-24.419-6.448-24.419-13.878c0-8.039,7.113-13.224,22.362-13.224h31.12L234.219,264.642L234.219,264.642z M319.765,273.01
	c-3.698,4-10.483,8.612-21.006,8.612c-10.77,0-18.746-4.612-22.445-8.612c-4.645-4.98-4.942-7.794-5.261-25.835
	c-0.165-18.161,0.617-21.06,5.261-26.079c3.7-3.96,11.675-8.611,22.445-8.611c10.525,0,17.338,4.651,21.006,8.611
	c4.687,5.06,5.262,8.12,5.262,26.079C325.027,264.93,324.452,268.03,319.765,273.01z M360.998,238.767
	c0-19.222,14.099-28.57,29.929-28.57c15.868,0,30.172,9.469,30.172,28.57H360.998z"/>
<g>
</g>
<g>
</g>
<g>
</g>
<g>
</g>
<g>
</g>
<g>
</g>
<g>
</g>
<g>
</g>
<g>
</g>
<g>
</g>
<g>
</g>
<g>
</g>
<g>
</g>
<g>
</g>
<g>
</g>
</svg>
