<?xml version="1.0" encoding="iso-8859-1"?>
<!-- Generator: Adobe Illustrator 19.0.0, SVG Export Plug-In . SVG Version: 6.00 Build 0)  -->
<svg version="1.1" id="Capa_1" xmlns="http://www.w3.org/2000/svg" xmlns:xlink="http://www.w3.org/1999/xlink" x="0px" y="0px"
	 viewBox="0 0 511.998 511.998" style="enable-background:new 0 0 511.998 511.998;" xml:space="preserve">
<path style="fill:#0099DF;" d="M503.916,397.661c0,16.188-13.122,29.311-29.309,29.311H37.393
	c-16.188,0-29.309-13.124-29.309-29.311V114.336c0-16.188,13.122-29.31,29.309-29.31h437.212c16.188,0,29.309,13.123,29.309,29.31
	v283.326L503.916,397.661L503.916,397.661z"/>
<g style="opacity:0.15;">
	<path style="fill:#202121;" d="M28.922,397.661V114.336c0-16.188,13.124-29.31,29.311-29.31h-20.84
		c-16.187,0-29.309,13.123-29.309,29.31v283.326c0,16.188,13.122,29.311,29.309,29.311h20.84
		C42.047,426.973,28.922,413.849,28.922,397.661z"/>
</g>
<g>
	<path style="fill:#202121;" d="M474.607,435.057H37.393C16.775,435.057,0,418.282,0,397.661V114.336
		c0-20.62,16.775-37.394,37.393-37.394h437.212c20.619,0,37.393,16.775,37.393,37.394v31.459c0,4.466-3.62,8.084-8.084,8.084
		c-4.466,0-8.084-3.618-8.084-8.084v-31.459c0-11.704-9.522-21.226-21.225-21.226H37.393c-11.703,0-21.225,9.522-21.225,21.226
		v283.326c0,11.705,9.522,21.227,21.225,21.227h437.212c11.703,0,21.225-9.522,21.225-21.227V172.025
		c0-4.466,3.618-8.084,8.084-8.084c4.465,0,8.084,3.618,8.084,8.084v225.637C512,418.282,495.226,435.057,474.607,435.057z"/>
	<path style="fill:#202121;" d="M444.304,332.629H68.653c-4.465,0-8.084-3.618-8.084-8.084s3.62-8.084,8.084-8.084h375.651
		c4.466,0,8.084,3.618,8.084,8.084C452.388,329.01,448.77,332.629,444.304,332.629z"/>
	<path style="fill:#202121;" d="M444.304,371.732H68.653c-4.465,0-8.084-3.618-8.084-8.084s3.62-8.084,8.084-8.084h375.651
		c4.466,0,8.084,3.618,8.084,8.084C452.388,368.113,448.77,371.732,444.304,371.732z"/>
</g>
<path style="fill:#FFC715;" d="M165.93,225.964c0,3.91-3.171,7.077-7.077,7.077H71.034c-3.91,0-7.077-3.168-7.077-7.077v-68.436
	c0-3.91,3.168-7.075,7.077-7.075h87.818c3.906,0,7.077,3.167,7.077,7.075v68.436L165.93,225.964L165.93,225.964z"/>
<g style="opacity:0.15;">
	<path style="fill:#202121;" d="M82.82,225.964v-68.436c0-3.91,3.168-7.075,7.077-7.075H71.034c-3.91,0-7.077,3.167-7.077,7.075
		v68.436c0,3.91,3.168,7.077,7.077,7.077h18.863C85.988,233.039,82.82,229.871,82.82,225.964z"/>
</g>
<path style="fill:#202121;" d="M158.853,142.367H71.034c-8.36,0-15.162,6.8-15.162,15.16v68.436c0,8.36,6.803,15.162,15.162,15.162
	h87.818c8.36,0,15.162-6.802,15.162-15.162v-68.436C174.014,149.169,167.213,142.367,158.853,142.367z M142.43,186.065h15.417
	v11.364H142.43V186.065z M157.846,169.896h-15.417v-11.36h15.417L157.846,169.896L157.846,169.896z M72.041,186.065h19.37v11.364
	h-19.37V186.065z M91.411,158.535v11.36h-19.37v-11.36H91.411z M72.041,213.595h19.37v11.36h-19.37V213.595z M107.579,224.957
	v-66.421h18.682v46.977c0,4.466,3.618,8.084,8.084,8.084h23.501v11.36H107.579L107.579,224.957z"/>
<g>
	<polygon style="fill:#FFFFFF;" points="320.944,184.612 320.944,216.397 320.944,252.685 335.01,252.685 335.01,208.238 
		335.01,187.703 335.01,184.612 335.01,182.358 320.944,182.358 	"/>
	<polygon style="fill:#FFFFFF;" points="402.523,182.358 402.523,187.141 402.523,211.052 402.523,252.685 416.586,252.685 
		416.586,220.897 416.586,182.358 	"/>
	<path style="fill:#FFFFFF;" d="M311.816,192.641l-0.155-0.155c-6.47-7.875-14.626-11.814-24.473-11.814
		c-10.408,0-18.846,3.094-25.598,9.283c-7.314,6.752-10.971,15.472-10.971,26.722c0,11.252,3.657,19.972,10.971,26.724
		c6.752,6.189,15.19,9.283,25.598,9.283c9.847,0,18.003-3.939,24.473-11.815l0.282-0.281l-4.079-4.923l-3.797-4.642
		c-0.009,0.01-0.016,0.02-0.024,0.028l-0.257-0.309l-0.282,0.281c-5.345,5.063-10.971,7.877-16.877,7.877
		c-6.189,0-11.535-2.251-15.473-6.468c-4.219-4.22-6.188-9.565-6.188-16.035c0-6.471,1.969-11.816,6.188-16.034
		c4.22-4.221,9.283-6.189,15.473-6.189c5.906,0,11.531,2.813,16.877,7.877l0.282,0.281l8.156-9.564l-0.094-0.094l0.094-0.189
		L311.816,192.641z"/>
	<path style="fill:#FFFFFF;" d="M380.58,239.465c-4.5,0-6.188-2.533-6.188-7.878V201.77v-8.158h14.065v-11.252h-14.065v-8.438
		v-13.783l-14.064,7.594v14.627h-14.065v11.252h14.065v8.158v32.35c0,5.345,0.842,9.844,3.936,12.939
		c2.813,3.375,6.471,5.063,11.252,5.063s9.002-0.843,12.659-3.095h0.281v-0.281l3.094-13.22l-0.844,0.562
		C386.769,238.337,383.955,239.465,380.58,239.465z"/>
</g>
<path style="fill:#D3000B;" d="M424.462,170.264c-6.47-9.003-14.907-16.597-25.036-21.661c-10.127-5.627-20.535-8.439-31.505-8.439
	s-21.659,2.533-31.787,7.878c-10.127,5.342-18.565,12.657-25.034,21.939l-0.563,1.124h3.094h4.762h8.46
	c4.176-4.176,8.82-8.042,13.813-11.025c1.794-1.013,3.654-1.937,5.595-2.758c6.668-3.056,13.885-4.462,21.378-4.497
	c7.494,0.035,14.713,1.441,21.66,4.497c7.032,3.094,13.223,7.596,18.846,13.503l0.282,0.562h0.281h0.281h8.721h3.657h3.657
	L424.462,170.264z"/>
<path style="fill:#202121;" d="M439.481,164.147l-0.563-1.124c-0.383-0.765-0.827-1.5-1.326-2.195
	c-8.162-11.357-18.743-20.523-30.618-26.527c-12.418-6.839-25.556-10.306-39.052-10.306c-13.846,0-27.079,3.279-39.333,9.747
	c-12.527,6.609-22.875,15.692-30.752,26.995c-0.444,0.638-0.842,1.307-1.19,2.002l-0.563,1.124c-0.22,0.439-0.411,0.887-0.589,1.339
	c-2.693-0.456-5.46-0.7-8.304-0.7c-14.441,0-26.729,4.554-36.523,13.534c-0.015,0.013-0.028,0.025-0.042,0.038
	c-10.73,9.906-16.172,22.893-16.172,38.603s5.441,28.698,16.172,38.604c0.014,0.013,0.027,0.025,0.042,0.038
	c9.795,8.98,22.083,13.534,36.523,13.534c7.905,0,15.259-1.793,21.854-5.25c2.956,3.22,7.186,5.25,11.901,5.25h14.062
	c7.724,0,14.173-5.421,15.776-12.663c0.47,0.592,0.968,1.176,1.506,1.745c5.895,6.778,13.91,10.354,23.226,10.354
	c6.254,0,11.751-1.046,16.671-3.173c2.803,2.331,6.404,3.737,10.335,3.737h14.064c8.929,0,16.168-7.239,16.168-16.168v-31.787
	v-35.312c2.433-1.325,4.525-3.268,6.028-5.702C441.728,175.113,441.992,169.16,439.481,164.147z M311.943,192.768l-7.168,8.404l0,0
	l-0.99,1.16l-0.282-0.281c-5.345-5.063-10.971-7.877-16.877-7.877c-6.189,0-11.252,1.968-15.473,6.189
	c-4.219,4.218-6.188,9.563-6.188,16.034c0,6.47,1.969,11.815,6.188,16.035c3.938,4.218,9.283,6.468,15.473,6.468
	c5.906,0,11.531-2.813,16.877-7.877l0.282-0.281l0.257,0.309c0.009-0.009,0.016-0.019,0.024-0.028l3.797,4.643l4.079,4.923
	l-0.282,0.281c-2.633,3.207-5.551,5.748-8.744,7.65c-0.055,0.031-0.109,0.066-0.163,0.097c-1.281,0.75-2.602,1.4-3.972,1.943
	c-0.068,0.026-0.136,0.051-0.204,0.075c-0.596,0.232-1.2,0.441-1.813,0.633c-0.123,0.039-0.247,0.079-0.371,0.115
	c-1.358,0.405-2.758,0.718-4.199,0.932c-0.174,0.025-0.35,0.045-0.525,0.068c-0.55,0.072-1.105,0.131-1.668,0.177
	c-0.203,0.017-0.404,0.034-0.607,0.047c-0.728,0.045-1.461,0.075-2.209,0.075c-10.408,0-18.846-3.094-25.598-9.283
	c-7.314-6.752-10.971-15.472-10.971-26.724c0-11.251,3.657-19.97,10.971-26.722c6.752-6.189,15.19-9.283,25.598-9.283
	c0.593,0,1.179,0.016,1.759,0.044c0.274,0.014,0.542,0.04,0.813,0.06c0.296,0.022,0.596,0.039,0.888,0.068
	c0.363,0.037,0.72,0.086,1.078,0.134c0.19,0.026,0.382,0.046,0.57,0.075c0.416,0.064,0.826,0.14,1.234,0.219
	c0.122,0.025,0.245,0.044,0.365,0.07c0.452,0.093,0.897,0.198,1.34,0.312c0.071,0.019,0.143,0.034,0.213,0.054
	c0.473,0.124,0.941,0.261,1.406,0.409c0.037,0.012,0.073,0.022,0.11,0.033c0.486,0.156,0.966,0.326,1.442,0.507
	c0.013,0.004,0.024,0.009,0.036,0.014c0.489,0.186,0.971,0.386,1.45,0.599c0,0,0.002,0,0.003,0.001l0,0
	c4.399,1.961,8.325,5.025,11.766,9.216l0.155,0.155l0.127-0.155l-0.094,0.189L311.943,192.768z M296.064,216.538
	c-1.342,0.73-2.585,1.651-3.689,2.751l-0.121,0.12c-2.229,2.085-4.327,3.324-5.628,3.324c-2.123,0-3.038-0.675-3.655-1.333
	c-0.125-0.135-0.253-0.267-0.383-0.398c-0.544-0.544-1.455-1.455-1.455-4.603c0-3.147,0.909-4.057,1.452-4.599
	c0.853-0.854,1.639-1.455,4.041-1.455c1.301,0,3.398,1.24,5.628,3.324l0.121,0.12C293.478,214.884,294.722,215.807,296.064,216.538z
	 M335.01,184.612v3.094v17.507v3.027v44.446h-12.2h-1.866v-26.574v-9.713v-9.268v-22.521v-2.252h14.065v2.254L335.01,184.612
	L335.01,184.612z M388.457,248.746v0.281h-0.281c-2.044,1.258-4.268,2.063-6.662,2.541c-0.149,0.03-0.296,0.061-0.448,0.088
	c-0.301,0.055-0.606,0.103-0.913,0.148c-0.222,0.032-0.446,0.061-0.672,0.088c-0.265,0.031-0.53,0.063-0.799,0.087
	c-0.303,0.027-0.611,0.049-0.921,0.068c-0.208,0.013-0.415,0.029-0.626,0.039c-0.532,0.023-1.071,0.037-1.619,0.037
	c-4.782,0-8.439-1.688-11.252-5.063c-3.095-3.095-3.936-7.594-3.936-12.939v-32.35v-8.158h-9.149h-4.916v-11.252h4.916h9.149
	v-12.653v-1.974l14.064-7.594v9.456v4.327v8.438h11.962h2.103v11.252h-2.103h-11.962v8.158v29.817c0,5.345,1.688,7.878,6.188,7.878
	c0.472,0,0.931-0.026,1.385-0.071c0.113-0.011,0.224-0.03,0.337-0.044c0.351-0.043,0.702-0.096,1.05-0.165
	c0.108-0.022,0.215-0.047,0.322-0.071c0.369-0.083,0.737-0.179,1.107-0.292c0.075-0.023,0.151-0.044,0.225-0.069
	c0.438-0.14,0.877-0.298,1.326-0.479c1.348-0.544,2.765-1.265,4.374-2.185l0.844-0.562L388.457,248.746z M416.586,187.557v33.34
	v31.787h-12.384h-1.68v-29.014v-12.617v-9.492v-14.42v-4.782h14.064V187.557z M421.368,171.389h-3.657h-8.721h-0.281h-0.281
	l-0.282-0.562c-1.581-1.66-3.211-3.198-4.888-4.636l0,0c-0.964-0.827-1.945-1.611-2.943-2.364c-0.057-0.042-0.112-0.086-0.168-0.128
	c-3.072-2.299-6.312-4.252-9.757-5.861l0,0c-0.364-0.17-0.721-0.352-1.091-0.514c-6.946-3.056-14.167-4.462-21.66-4.497
	c-6.463,0.029-12.719,1.088-18.596,3.337h-0.001c-0.936,0.358-1.865,0.739-2.781,1.16c-1.942,0.822-3.802,1.745-5.595,2.758
	c-0.695,0.416-1.384,0.852-2.065,1.301c-0.171,0.112-0.34,0.231-0.511,0.345c-0.53,0.358-1.058,0.72-1.579,1.096
	c-0.15,0.107-0.296,0.216-0.444,0.324c-0.568,0.416-1.131,0.839-1.687,1.274c-0.085,0.067-0.169,0.133-0.254,0.199
	c-0.65,0.513-1.293,1.035-1.927,1.569l0,0c-1.854,1.562-3.64,3.211-5.345,4.916h-8.46h-4.762h-3.094l0.563-1.124
	c0.231-0.331,0.482-0.64,0.717-0.965l0,0c0.003-0.004,0.007-0.008,0.01-0.012c2.386-3.301,5.021-6.349,7.904-9.135
	c0.015-0.015,0.03-0.027,0.045-0.042c0.942-0.909,1.906-1.793,2.897-2.646c0.094-0.081,0.193-0.156,0.288-0.236
	c0.919-0.784,1.854-1.551,2.818-2.287c0.234-0.18,0.481-0.346,0.718-0.523c0.84-0.625,1.683-1.248,2.554-1.84
	c0.487-0.331,0.996-0.637,1.493-0.957c0.651-0.419,1.29-0.848,1.956-1.248c1.187-0.712,2.397-1.396,3.634-2.048
	c10.128-5.345,20.817-7.878,31.787-7.878c10.971,0,21.379,2.812,31.505,8.439c1.195,0.598,2.363,1.237,3.512,1.904
	c0.401,0.233,0.788,0.486,1.184,0.726c0.734,0.447,1.464,0.897,2.177,1.37c0.468,0.312,0.921,0.638,1.38,0.96
	c0.614,0.432,1.228,0.868,1.826,1.32c0.485,0.365,0.961,0.742,1.435,1.121c0.545,0.434,1.084,0.875,1.615,1.326
	c0.487,0.415,0.968,0.832,1.444,1.26c0.489,0.44,0.97,0.889,1.447,1.343c0.482,0.457,0.963,0.915,1.429,1.385
	c0.442,0.444,0.871,0.901,1.3,1.357c0.472,0.5,0.947,0.996,1.405,1.509c0.396,0.443,0.774,0.902,1.157,1.356
	c0.461,0.543,0.93,1.078,1.375,1.635c0.001,0.002,0.003,0.004,0.005,0.006h-0.001c0.807,1.009,1.594,2.035,2.348,3.083l0.563,1.124
	h-3.653l0,0H421.368L421.368,171.389z"/>
<g>
</g>
<g>
</g>
<g>
</g>
<g>
</g>
<g>
</g>
<g>
</g>
<g>
</g>
<g>
</g>
<g>
</g>
<g>
</g>
<g>
</g>
<g>
</g>
<g>
</g>
<g>
</g>
<g>
</g>
</svg>
