<?xml version="1.0" encoding="iso-8859-1"?>
<!-- Generator: Adobe Illustrator 19.0.0, SVG Export Plug-In . SVG Version: 6.00 Build 0)  -->
<svg version="1.1" id="Capa_1" xmlns="http://www.w3.org/2000/svg" xmlns:xlink="http://www.w3.org/1999/xlink" x="0px" y="0px"
	 viewBox="0 0 512 512" style="enable-background:new 0 0 512 512;" xml:space="preserve">
<path style="fill:#FFFFFF;" d="M503.916,397.661c0,16.188-13.122,29.311-29.309,29.311H37.393
	c-16.188,0-29.309-13.124-29.309-29.311V114.337c0-16.188,13.122-29.31,29.309-29.31h437.214c16.188,0,29.309,13.123,29.309,29.31
	V397.661z"/>
<g style="opacity:0.15;">
	<path style="fill:#202121;" d="M28.922,397.661V114.337c0-16.188,13.124-29.31,29.311-29.31h-20.84
		c-16.187-0.001-29.309,13.122-29.309,29.31v283.325c0,16.188,13.122,29.311,29.309,29.311h20.84
		C42.046,426.973,28.922,413.849,28.922,397.661z"/>
</g>
<g>
	<path style="fill:#202121;" d="M474.607,435.057H37.393C16.775,435.057,0,418.281,0,397.661V114.337
		c0-20.62,16.775-37.394,37.393-37.394h437.214c20.619,0,37.393,16.775,37.393,37.394v31.458c0,4.466-3.618,8.084-8.084,8.084
		c-4.465,0-8.084-3.618-8.084-8.084v-31.458c0-11.704-9.522-21.226-21.225-21.226H37.393c-11.703-0.001-21.225,9.521-21.225,21.226
		v283.325c0,11.705,9.522,21.227,21.225,21.227h437.214c11.703,0,21.225-9.522,21.225-21.227V172.025
		c0-4.466,3.62-8.084,8.084-8.084c4.466,0,8.084,3.618,8.084,8.084v225.636C512,418.281,495.225,435.057,474.607,435.057z"/>
	<path style="fill:#202121;" d="M353.368,136.235h-12.935c-4.466,0-8.084-3.618-8.084-8.084s3.618-8.084,8.084-8.084h12.935
		c4.466,0,8.084,3.618,8.084,8.084C361.452,132.617,357.833,136.235,353.368,136.235z"/>
	<path style="fill:#202121;" d="M389.297,136.235h-12.935c-4.466,0-8.084-3.618-8.084-8.084s3.618-8.084,8.084-8.084h12.935
		c4.466,0,8.084,3.618,8.084,8.084C397.381,132.617,393.763,136.235,389.297,136.235z"/>
	<path style="fill:#202121;" d="M425.227,136.235h-12.935c-4.466,0-8.084-3.618-8.084-8.084s3.618-8.084,8.084-8.084h12.935
		c4.466,0,8.084,3.618,8.084,8.084C433.312,132.617,429.693,136.235,425.227,136.235z"/>
	<path style="fill:#202121;" d="M461.157,136.235h-12.935c-4.466,0-8.084-3.618-8.084-8.084s3.618-8.084,8.084-8.084h12.935
		c4.466,0,8.084,3.618,8.084,8.084C469.241,132.617,465.623,136.235,461.157,136.235z"/>
	<path style="fill:#202121;" d="M321.619,383.073H190.38c-4.465,0-8.084-3.618-8.084-8.084c0-4.466,3.62-8.084,8.084-8.084h131.24
		c4.466,0,8.084,3.618,8.084,8.084C329.704,379.454,326.085,383.073,321.619,383.073z"/>
</g>
<path style="fill:#48C92D;" d="M332.46,214.02c-3.061-12.622-7.269-25.243-13.007-37.102c-3.059-6.12-9.562-10.328-16.45-10.328
	c-2.677,0-5.352,0.766-7.65,1.912c-9.179,4.205-13.006,15.301-8.415,24.098c9.18,19.509,13.769,40.164,13.769,61.583
	c0,21.422-4.59,42.08-13.769,61.204c0,0.385-1.911,3.825-1.911,7.654c0,1.147,0,2.675,0.384,4.206
	c1.144,4.972,4.59,9.946,9.942,12.241c2.298,1.147,4.971,1.911,7.65,1.911c6.505,0,12.626-3.827,16.069-9.563
	c3.44-6.884,7.266-15.684,10.326-27.158c1.148-3.443,1.912-6.888,2.677-10.327c3.06-13.007,4.589-26.394,4.589-40.169
	C337.049,240.8,335.518,227.027,332.46,214.02z"/>
<path style="fill:#ED114C;" d="M257.032,195.279c-0.382-0.384-0.765-1.149-1.148-1.53c-1.146-1.532-2.676-3.061-4.205-3.827
	c-0.824-0.705-1.724-1.25-2.669-1.688c-0.004-0.074-0.008-0.15-0.011-0.223c-0.983-0.33-1.963-0.57-2.944-0.759
	c-0.069-0.014-0.139-0.028-0.207-0.042c-0.204-0.038-0.409-0.069-0.613-0.101c-0.404-0.066-0.814-0.116-1.226-0.153
	c-0.095-0.009-0.191-0.018-0.287-0.026c-0.535-0.04-1.071-0.066-1.609-0.066c-2.675,0-4.206,0.382-6.12,1.147
	c-1.91,0.765-4.205,1.911-6.121,3.823c-1.911,1.914-3.058,4.208-3.824,6.504c-1.528,4.207-1.528,10.328,1.531,14.916
	c6.121,9.565,9.562,20.658,10.711,32.133c0.384,3.06,0.384,6.118,0.384,9.18c0,14.535-3.828,28.689-11.478,41.313l-0.763,0.764
	c-0.416,0.833-0.715,1.78-0.966,2.775c-0.264,0.849-0.444,1.696-0.557,2.545c-0.002,0.011-0.005,0.024-0.008,0.035
	c0.001-0.002,0.002-0.003,0.003-0.005c-0.182,1.406-0.179,2.809-0.003,4.216c0.384,5.353,3.443,10.325,8.415,13.387
	c1.148,0.763,2.677,1.147,3.825,1.911c1.533,0.38,3.445,0.765,4.972,0.765c6.122,0,11.474-3.062,14.919-8.416
	c9.564-15.683,14.92-33.281,16.449-51.641c0-2.295,0.383-4.971,0.383-7.267C273.481,233.149,267.741,212.876,257.032,195.279z"/>
<path style="fill:#F98E19;" d="M299.946,238.121c-11.131-17.956-26.986-33.888-45.66-46.216c0.58,0.579,1.123,1.21,1.597,1.845
	c0.383,0.38,0.766,1.146,1.148,1.53c10.71,17.596,16.449,37.87,16.831,59.672c0,2.296-0.383,4.972-0.383,7.267
	c-0.048,0.583-0.112,1.163-0.168,1.745c7.952,15.833,12.099,33.666,12.099,52.189v5.357v0.38c0-1.911,0.763-4.207,1.144-6.118
	c0.383,0,0.383-0.385,0.383-0.385c9.18-19.124,13.769-39.782,13.769-61.204C300.708,246.92,300.325,241.565,299.946,238.121z"/>
<path style="fill:#1476C6;" d="M225.465,299.422c0.251-0.995,0.551-1.942,0.966-2.774l0.763-0.764
	c7.652-12.624,11.478-26.778,11.478-41.313c0-3.062,0-6.12-0.384-9.18c-0.031-0.308-0.069-0.615-0.105-0.924
	c-1.499-2.009-3.104-3.981-4.799-5.91c-0.004-0.004-0.009-0.01-0.015-0.015c-0.429-0.489-0.864-0.975-1.306-1.459
	c-5.137-5.695-10.938-10.941-17.242-15.612c-0.109-0.08-0.213-0.164-0.32-0.245c0.001,0.002,0.001,0.005,0.003,0.009
	c-4.605-3.388-9.47-6.474-14.541-9.191c-2.293-1.147-4.971-1.911-7.65-1.911c-6.118,0-11.474,3.444-14.532,8.799
	c-4.21,8.03-1.149,17.977,6.884,22.185c21.865,11.8,36.786,33.053,40.795,58.319C225.464,299.427,225.464,299.425,225.465,299.422z"
	/>
<path style="fill:#202121;" d="M340.316,212.116c-2.121-8.746-4.749-17.377-7.99-25.776c-1.53-3.962-3.194-7.873-5.01-11.713
	c-1.575-3.331-3.567-6.339-6.266-8.872c-5.197-4.876-12.385-7.677-19.536-7.199c-7.87,0.526-15.473,4.888-19.969,11.348
	c-5.329,7.657-6.126,17.946-1.859,26.274c1.368,2.916,2.617,5.866,3.769,8.841c-7.294-7.091-15.359-13.611-24.047-19.405
	c-0.939-0.874-2.007-1.719-3.203-2.423c-0.613-0.473-1.263-0.914-1.948-1.318c-1.84-1.578-4.371-2.116-6.693-2.561
	c-0.941-0.217-1.927-0.327-2.888-0.411l-0.352-0.031c-6.848-0.506-13.716,1.624-18.957,6.128c-4.99,4.287-7.841,10.837-8.315,17.337
	c-0.304,4.166,0.33,8.43,2.057,12.248c-5.014-3.503-10.064-6.991-15.529-9.773c-4.983-2.535-10.756-3.401-16.237-2.253
	c-10.158,2.129-18.196,10.909-19.383,21.225c-0.635,5.52,0.676,11.209,3.631,15.911c1.295,2.059,2.9,3.92,4.748,5.5
	c1.892,1.617,4.027,2.739,6.17,3.972c8.479,4.876,15.901,11.516,21.685,19.404c6.625,9.036,11.026,19.599,12.999,30.616
	c-0.535,2.571-0.645,5.212-0.341,7.82c0.368,4.547,2.066,8.934,4.758,12.607c1.338,1.826,2.916,3.474,4.675,4.897
	c0.959,0.775,1.973,1.487,3.029,2.125c1.099,0.664,2.298,1.068,3.428,1.66c1.842,1.196,4.231,1.546,6.371,1.841
	c1.796,0.248,3.597,0.28,5.401,0.114c3.578-0.329,7.069-1.425,10.185-3.215c7.179-4.126,11.039-11.485,14.555-18.682
	c2.265-4.634,4.225-9.416,5.882-14.3c1.448,7.202,2.19,14.619,2.19,22.102v2.977c-2.089,11.228,4.177,23.091,14.623,27.694
	c8.053,3.935,17.396,3.323,24.943-1.462c3.527-2.236,6.529-5.269,8.759-8.797c1.303-2.062,2.262-4.387,3.27-6.604
	c1.036-2.279,2.016-4.583,2.935-6.911c2.072-5.244,3.827-10.609,5.288-16.053c1.922-5.838,3.18-11.969,4.335-18
	c1.179-6.156,2.034-12.373,2.572-18.616c1.065-12.348,1.141-24.924-0.168-37.255C343.135,226.058,341.943,219.035,340.316,212.116
	C336.883,197.964,343.602,226.09,340.316,212.116z M291.945,240.597c1.426,14.439,0.61,29.133-2.57,43.297
	c-1.942-7.439-4.558-14.637-7.815-21.463c0.099-3.343,0.44-6.635,0.323-9.985c-0.119-3.434-0.364-6.868-0.736-10.284
	c-0.749-6.883-2.048-13.732-3.906-20.403C282.775,227.699,287.707,234.012,291.945,240.597
	C292.389,245.087,287.707,234.012,291.945,240.597z M188.419,233.951c-3.979-2.084-5.559-7.139-3.54-11.145
	c2.412-4.101,7.053-5.699,11.381-3.58c5.937,3.192,11.587,6.924,16.858,11.125c5.199,4.142,9.732,8.804,14.275,13.63
	c1.043,1.191,2.043,2.392,2.987,3.59c0.852,9.654-0.245,19.628-3.181,28.857C219.461,258.361,206.011,243.445,188.419,233.951
	C186.456,232.923,206.011,243.445,188.419,233.951z M250.185,309.56c-2.268,3.472-6.002,5.203-10.083,4.339
	c-0.783-0.399-1.621-0.684-2.399-1.089c-3.939-2.592-5.658-6.744-4.416-11.354c0-0.002,0-0.003,0.001-0.004
	c0.032-0.125,0.066-0.25,0.098-0.375c1.212-1.443,2.074-3.276,2.961-4.929c0.918-1.711,1.78-3.452,2.582-5.22
	c1.627-3.588,3.011-7.287,4.138-11.061c2.25-7.527,3.479-15.354,3.665-23.207c0.096-4.072,0.069-8.193-0.417-12.242l-0.097-0.859
	c-0.834-7.99-2.808-15.925-5.908-23.339c-1.509-3.609-3.298-7.1-5.358-10.425c-0.915-1.478-1.627-2.798-1.783-4.568
	c-0.155-1.748,0.166-3.423,0.806-5.046c1.454-3.684,5.329-5.477,9.142-5.188l0.192,0.018c0.331,0.029,0.677,0.071,1.004,0.138
	l0.218,0.043c0.197,0.038,0.385,0.077,0.568,0.117c0.997,0.552,1.874,1.296,2.892,1.805c0.719,0.442,1.199,1.241,1.733,1.869
	l0.015,0.023c0.177,0.264,0.403,0.604,0.692,0.978c8.631,14.356,13.573,30.615,14.961,47.281c0.209,2.505,0.361,5.024,0.384,7.539
	c0.022,2.348-0.347,4.686-0.377,7.034c-0.024,0.262-0.051,0.523-0.077,0.786l-0.056,0.555c-1.275,12.756-4.473,25.278-9.965,36.885
	C253.763,303.316,252.055,306.487,250.185,309.56C248.794,311.69,258.557,295.801,250.185,309.56z M328.584,253.952
	c-0.152,5.62-0.257,11.205-0.8,16.808c-0.526,5.433-1.315,10.84-2.376,16.194c-1.987,10.025-4.65,20.02-8.353,29.556
	c-1.506,3.879-3.208,7.679-5.061,11.404c-2.341,3.709-6.888,6.354-11.305,5.033c-3.894-1.165-7.344-4.387-7.557-8.654
	c0.238-0.772,0.362-1.581,0.362-2.39c0.014-0.398,0.252-1.4,0.439-2.167c0.191-0.48,0.395-0.955,0.574-1.439
	c10.101-21.284,14.709-44.628,14.244-68.138c-0.054-2.726-0.165-5.451-0.352-8.17c-0.139-2.006-0.14-4.207-0.71-6.144
	c-1.255-10.471-3.604-20.807-7.006-30.789c-1.715-5.033-3.695-9.975-5.922-14.803c-1.099-2.385-2.011-4.533-1.546-7.224
	c0.374-2.162,1.489-4.189,3.136-5.641c3.404-3.002,8.151-3.513,11.996-1.089c3.915,2.468,5.408,7.368,7.113,11.431
	c4.026,9.589,7.231,19.606,9.498,29.755C327.628,229.421,328.935,241.719,328.584,253.952
	C328.582,254.03,328.937,241.655,328.584,253.952z"/>
<g>
</g>
<g>
</g>
<g>
</g>
<g>
</g>
<g>
</g>
<g>
</g>
<g>
</g>
<g>
</g>
<g>
</g>
<g>
</g>
<g>
</g>
<g>
</g>
<g>
</g>
<g>
</g>
<g>
</g>
</svg>
