<?xml version="1.0" encoding="iso-8859-1"?>
<!-- Generator: Adobe Illustrator 19.0.0, SVG Export Plug-In . SVG Version: 6.00 Build 0)  -->
<svg version="1.1" id="Capa_1" xmlns="http://www.w3.org/2000/svg" xmlns:xlink="http://www.w3.org/1999/xlink" x="0px" y="0px"
	 viewBox="0 0 511.998 511.998" style="enable-background:new 0 0 511.998 511.998;" xml:space="preserve">
<path style="fill:#E7E8E3;" d="M503.916,397.661c0,16.188-13.122,29.311-29.309,29.311H37.393
	c-16.188,0-29.309-13.124-29.309-29.311V114.336c0-16.188,13.122-29.31,29.309-29.31h437.212c16.188,0,29.309,13.123,29.309,29.31
	v283.326L503.916,397.661L503.916,397.661z"/>
<path style="fill:#202121;" d="M474.607,435.057H37.393C16.774,435.057,0,418.282,0,397.661V114.336
	c0-20.62,16.774-37.394,37.393-37.394h437.212c20.619,0,37.393,16.775,37.393,37.394v31.459c0,4.466-3.62,8.084-8.084,8.084
	c-4.466,0-8.084-3.618-8.084-8.084v-31.459c0-11.704-9.522-21.226-21.225-21.226H37.393c-11.703,0-21.225,9.522-21.225,21.226
	v283.326c0,11.705,9.522,21.227,21.225,21.227h437.212c11.703,0,21.225-9.522,21.225-21.227V172.025
	c0-4.466,3.618-8.084,8.084-8.084c4.465,0,8.084,3.618,8.084,8.084v225.637C512,418.282,495.226,435.057,474.607,435.057z"/>
<g style="opacity:0.15;">
	<path style="fill:#202121;" d="M28.922,397.661V114.336c0-16.188,13.124-29.31,29.311-29.31h-20.84
		c-16.187,0-29.309,13.123-29.309,29.31v283.326c0,16.188,13.122,29.311,29.309,29.311h20.84
		C42.047,426.973,28.922,413.849,28.922,397.661z"/>
</g>
<g>
	<path style="fill:#202121;" d="M284.595,374.232H120.098c-4.466,0-8.084-3.618-8.084-8.084s3.618-8.084,8.084-8.084h164.498
		c4.466,0,8.084,3.618,8.084,8.084C292.68,370.612,289.061,374.232,284.595,374.232z"/>
	<path style="fill:#202121;" d="M390.666,374.232h-81.262c-4.466,0-8.084-3.618-8.084-8.084s3.618-8.084,8.084-8.084h81.263
		c4.466,0,8.084,3.618,8.084,8.084C398.75,370.612,395.13,374.232,390.666,374.232z"/>
</g>
<g>
	<ellipse style="fill:#9A847A;" cx="255.59" cy="230.65" rx="45.23" ry="43.2"/>
	<ellipse style="fill:#9A847A;" cx="302.21" cy="282.829" rx="18.378" ry="15.645"/>
	<ellipse style="fill:#9A847A;" cx="329.34" cy="308.38" rx="11.767" ry="10.01"/>
</g>
<path style="fill:#A23C42;" d="M334.375,150.491c-0.233-0.192-0.502-0.313-0.78-0.366c-2.977-2.436-6.393-4.054-9.928-4.693
	c-0.103-0.019-0.207-0.028-0.313-0.028h-139.25c-0.058,0-0.115,0.003-0.175,0.01c-11.546,1.154-19.286,13.128-19.835,23.647
	l0.003,118.476c0.388,8.203,4.95,16.185,11.699,20.595c0.169,0.301,0.427,0.551,0.745,0.708c2.083,1.038,4.004,1.76,5.876,2.211
	c0,0,0.124,0.029,0.127,0.03c0.729,0.169,1.426,0.295,2.122,0.382l0.354,0.039c0.799,0.087,1.522,0.132,2.213,0.132h64.15
	c0.968,0,1.754-0.785,1.754-1.754v-18.912c-24.725-0.923-45.647-16.663-54.161-38.604c-2.238-5.181-3.705-10.864-4.27-16.795
	c-0.499-3.486-0.499-7.488,0.004-11.009c0.978-7.829,3.337-15.225,6.786-21.602c10.023-19.607,30.404-33.039,53.936-33.039
	c33.442,0,60.553,27.11,60.553,60.554c0,5.477-0.739,10.778-2.102,15.825c0.059,0.17,0.134,0.336,0.245,0.484
	c0.332,0.442,0.85,0.701,1.402,0.701h26.079c0.968,0,1.754-0.786,1.754-1.754v-72.902
	C344.398,164.71,340.796,155.749,334.375,150.491z"/>
<path style="fill:#202121;" d="M344.618,137.982c-0.813-0.669-1.69-1.267-2.616-1.783c-4.671-3.39-9.971-5.684-15.456-6.676
	c-1.028-0.189-2.114-0.288-3.193-0.288H184.104c-0.61,0-1.23,0.031-1.839,0.096c-20.317,2.064-33.402,21.382-34.318,38.884
	c-0.015,0.282-0.023,0.564-0.023,0.845l0.003,118.476c0,0.255,0.006,0.511,0.018,0.765c0.596,12.569,7.103,24.654,17.141,32.07
	c1.26,1.177,2.691,2.171,4.262,2.95c3.164,1.577,6.207,2.709,9.284,3.448l0.086,0.022c0.054,0.014,0.108,0.026,0.161,0.039
	c1.306,0.303,2.555,0.526,3.82,0.681c0.065,0.009,0.128,0.016,0.194,0.023l0.354,0.04c1.413,0.153,2.712,0.229,3.984,0.229h64.15
	c9.882,0,17.922-8.04,17.922-17.922V292.52c4.462,12.818,17.523,22.124,32.906,22.124c0.002,0,0.005,0,0.008,0
	c3.002,11.425,14.021,19.923,27.123,19.923c15.404,0,27.936-11.745,27.936-26.183c0-12.031-8.706-22.187-20.523-25.239
	c0.001-0.106,0.009-0.209,0.009-0.315c0-7.198-2.614-13.842-7.007-19.179h11.854c9.882,0,17.922-8.04,17.922-17.922V173.71
	C360.806,160.421,355.033,146.509,344.618,137.982z M269.876,271.631C269.876,271.632,269.876,271.632,269.876,271.631
	c-0.005,0.003-0.012,0.004-0.017,0.006c-0.541,0.171-1.088,0.334-1.638,0.486c-0.04,0.011-0.08,0.022-0.12,0.032
	c-1.551,0.426-3.137,0.774-4.752,1.041c-0.167,0.027-0.335,0.059-0.503,0.085c-0.374,0.058-0.75,0.107-1.128,0.154
	c-0.333,0.043-0.665,0.085-0.999,0.121c-0.32,0.034-0.641,0.066-0.964,0.095c-0.427,0.038-0.856,0.068-1.286,0.094
	c-0.257,0.015-0.512,0.033-0.769,0.045c-0.698,0.03-1.4,0.051-2.107,0.051c-0.829,0-1.651-0.025-2.468-0.067
	c-0.266-0.014-0.528-0.04-0.792-0.058c-0.552-0.037-1.101-0.077-1.646-0.133c-0.306-0.032-0.61-0.073-0.916-0.112
	c-0.499-0.061-0.998-0.125-1.493-0.203c-0.314-0.049-0.623-0.105-0.935-0.16c-0.483-0.085-0.965-0.175-1.443-0.275
	c-0.305-0.064-0.608-0.13-0.911-0.201c-0.484-0.112-0.965-0.231-1.442-0.356c-0.286-0.075-0.57-0.152-0.854-0.232
	c-0.499-0.141-0.992-0.294-1.483-0.451c-0.252-0.081-0.507-0.16-0.757-0.245c-0.542-0.184-1.077-0.383-1.609-0.585
	c-0.192-0.072-0.385-0.14-0.573-0.216c-0.679-0.268-1.348-0.553-2.01-0.853c-0.038-0.017-0.077-0.031-0.114-0.05
	c-1.458-0.664-2.873-1.402-4.239-2.206c-0.045-0.026-0.089-0.056-0.135-0.082c-0.62-0.369-1.231-0.749-1.829-1.146
	c-0.106-0.069-0.208-0.141-0.313-0.211c-0.54-0.362-1.071-0.734-1.594-1.118c-0.117-0.086-0.233-0.175-0.349-0.262
	c-0.507-0.38-1.005-0.769-1.493-1.168c-0.112-0.093-0.225-0.185-0.337-0.279c-0.493-0.411-0.974-0.831-1.448-1.261
	c-0.094-0.086-0.189-0.171-0.282-0.258c-0.498-0.46-0.984-0.931-1.459-1.414c-0.059-0.06-0.12-0.119-0.179-0.179
	c-7.519-7.713-12.126-18.052-12.126-29.423c0-9.088,2.944-17.515,7.963-24.471c0-0.001,0.001-0.003,0.002-0.004
	c0.005-0.006,0.011-0.013,0.015-0.02c0.475-0.659,0.972-1.301,1.485-1.933c0.072-0.089,0.147-0.178,0.219-0.266
	c0.474-0.576,0.964-1.139,1.466-1.689c0.068-0.073,0.133-0.148,0.2-0.22c1.162-1.255,2.396-2.447,3.703-3.566
	c0.003-0.002,0.006-0.005,0.01-0.008c0.619-0.529,1.255-1.04,1.905-1.537c0.12-0.093,0.244-0.182,0.365-0.274
	c0.553-0.415,1.116-0.817,1.689-1.207c0.139-0.095,0.276-0.19,0.416-0.283c0.635-0.421,1.281-0.829,1.937-1.219
	c0.061-0.037,0.12-0.075,0.182-0.112c0.746-0.439,1.507-0.859,2.282-1.257c0.04-0.022,0.081-0.039,0.12-0.059
	c0.695-0.355,1.401-0.69,2.116-1.009c0.198-0.088,0.398-0.171,0.597-0.258c0.575-0.247,1.156-0.483,1.743-0.708
	c0.231-0.088,0.461-0.177,0.694-0.261c0.608-0.222,1.223-0.429,1.843-0.626c0.193-0.061,0.382-0.127,0.575-0.186
	c0.817-0.247,1.642-0.476,2.478-0.681c0.071-0.018,0.144-0.03,0.216-0.047c0.749-0.179,1.507-0.338,2.271-0.482
	c0.264-0.05,0.531-0.091,0.797-0.136c0.587-0.1,1.178-0.19,1.773-0.267c0.298-0.039,0.598-0.075,0.898-0.109
	c0.603-0.068,1.208-0.12,1.817-0.164c0.272-0.019,0.541-0.044,0.814-0.059c0.875-0.049,1.755-0.079,2.642-0.079
	c0.818,0,1.63,0.023,2.437,0.065c0.258,0.013,0.511,0.039,0.767,0.056c0.55,0.037,1.098,0.074,1.642,0.129
	c0.294,0.03,0.584,0.071,0.877,0.108c0.502,0.06,1.005,0.122,1.502,0.198c0.299,0.046,0.594,0.101,0.89,0.153
	c0.488,0.084,0.974,0.171,1.458,0.272c0.289,0.059,0.573,0.124,0.86,0.19c0.489,0.111,0.975,0.225,1.459,0.351
	c0.268,0.069,0.536,0.142,0.802,0.217c0.499,0.139,0.995,0.287,1.486,0.441c0.243,0.077,0.483,0.154,0.723,0.234
	c0.521,0.174,1.036,0.358,1.548,0.549c0.203,0.075,0.405,0.15,0.607,0.229c0.56,0.218,1.112,0.448,1.662,0.688
	c0.146,0.064,0.292,0.124,0.438,0.189c0.634,0.285,1.259,0.582,1.877,0.893c0.055,0.027,0.111,0.054,0.166,0.081
	c4.893,2.486,9.245,5.804,12.861,9.757c0.005,0.005,0.011,0.01,0.015,0.015c0.002,0.002,0.004,0.005,0.005,0.008
	c6.936,7.592,11.149,17.514,11.149,28.381c0,5.545-1.105,10.839-3.098,15.709v0.001c-0.002,0.004-0.004,0.01-0.006,0.014
	C292.849,258.26,282.627,267.579,269.876,271.631z M303.513,298.419c-0.431,0.025-0.862,0.056-1.302,0.056
	c-0.628,0-1.249-0.027-1.862-0.08c-0.224-0.019-0.441-0.059-0.663-0.084c-0.382-0.045-0.767-0.084-1.143-0.149
	c-0.285-0.05-0.558-0.12-0.836-0.18c-0.301-0.065-0.607-0.12-0.902-0.198c-0.32-0.083-0.627-0.189-0.939-0.287
	c-0.243-0.075-0.489-0.142-0.725-0.226c-0.348-0.123-0.682-0.268-1.019-0.41c-0.188-0.078-0.38-0.147-0.563-0.231
	c-0.373-0.168-0.729-0.358-1.084-0.549c-0.134-0.071-0.274-0.135-0.405-0.209c-0.385-0.217-0.753-0.455-1.119-0.696
	c-0.089-0.059-0.184-0.112-0.272-0.172c-0.391-0.268-0.763-0.555-1.127-0.849c-0.052-0.042-0.107-0.08-0.156-0.122
	c-0.386-0.32-0.752-0.656-1.105-1.005c-0.022-0.022-0.044-0.041-0.066-0.063c-0.371-0.37-0.72-0.755-1.049-1.152
	c-0.001-0.001-0.002-0.002-0.002-0.003c-2.102-2.543-3.346-5.637-3.346-8.982c0-8.64,8.231-15.645,18.382-15.645
	c1.088,0,2.146,0.096,3.181,0.249c0.083,0.013,0.168,0.02,0.251,0.032c0.456,0.073,0.902,0.168,1.345,0.271
	c0.124,0.028,0.249,0.051,0.372,0.081c0.413,0.102,0.815,0.223,1.215,0.349c0.147,0.045,0.294,0.087,0.439,0.136
	c0.375,0.127,0.739,0.27,1.101,0.417c0.16,0.066,0.322,0.128,0.48,0.197c0.34,0.149,0.67,0.309,0.997,0.474
	c0.169,0.085,0.338,0.17,0.503,0.26c0.306,0.167,0.605,0.343,0.898,0.525c0.172,0.107,0.344,0.213,0.512,0.326
	c0.274,0.181,0.54,0.37,0.801,0.564c0.174,0.129,0.343,0.261,0.512,0.396c0.241,0.194,0.475,0.39,0.704,0.595
	c0.17,0.153,0.335,0.308,0.497,0.467c0.209,0.203,0.416,0.407,0.612,0.62c0.163,0.175,0.318,0.356,0.472,0.537
	c0.178,0.209,0.355,0.42,0.521,0.637c0.152,0.199,0.292,0.403,0.433,0.608c0.149,0.213,0.296,0.426,0.432,0.648
	c0.138,0.222,0.261,0.452,0.386,0.681c0.116,0.216,0.239,0.428,0.345,0.65c0.119,0.247,0.22,0.503,0.326,0.757
	c0.087,0.213,0.182,0.424,0.26,0.642c0.099,0.278,0.175,0.563,0.255,0.847c0.058,0.204,0.126,0.404,0.175,0.61
	c0.075,0.328,0.126,0.661,0.178,0.995c0.027,0.172,0.068,0.342,0.087,0.516c0.06,0.513,0.093,1.032,0.093,1.556
	C320.594,291.096,313.055,297.848,303.513,298.419z M332.155,298.669c0.004,0.001,0.01,0.002,0.014,0.003
	c1.579,0.333,3.029,0.933,4.284,1.746c0.027,0.017,0.056,0.033,0.083,0.053c0.217,0.142,0.426,0.292,0.631,0.447
	c0.054,0.041,0.107,0.082,0.16,0.124c0.188,0.148,0.371,0.299,0.546,0.457c0.061,0.055,0.119,0.112,0.179,0.167
	c0.166,0.156,0.331,0.313,0.484,0.476c0.056,0.058,0.106,0.12,0.158,0.18c0.267,0.299,0.515,0.61,0.743,0.935
	c0.066,0.095,0.138,0.185,0.201,0.281c0.083,0.126,0.155,0.259,0.231,0.388c0.084,0.143,0.168,0.286,0.245,0.431
	c0.066,0.125,0.123,0.253,0.182,0.382c0.072,0.16,0.143,0.32,0.207,0.483c0.049,0.125,0.094,0.251,0.137,0.378
	c0.06,0.176,0.113,0.355,0.162,0.535c0.032,0.12,0.066,0.24,0.093,0.363c0.045,0.203,0.08,0.409,0.11,0.615
	c0.016,0.105,0.036,0.206,0.047,0.312c0.035,0.315,0.057,0.633,0.057,0.955c0,5.532-5.269,10.015-11.767,10.015
	c-0.376,0-0.745-0.018-1.112-0.047c-0.12-0.011-0.237-0.026-0.356-0.039c-0.246-0.026-0.488-0.056-0.729-0.095
	c-0.138-0.023-0.274-0.047-0.41-0.073c-0.218-0.042-0.432-0.089-0.647-0.141c-0.139-0.035-0.277-0.069-0.414-0.107
	c-0.208-0.058-0.413-0.124-0.615-0.192c-0.129-0.043-0.261-0.083-0.388-0.13c-0.244-0.089-0.48-0.19-0.715-0.293
	c-0.199-0.087-0.391-0.181-0.584-0.278c-0.16-0.081-0.321-0.16-0.476-0.247c-0.162-0.091-0.317-0.189-0.472-0.286
	c-0.116-0.072-0.234-0.146-0.346-0.221c-0.164-0.11-0.323-0.223-0.48-0.34c-0.091-0.068-0.18-0.138-0.269-0.208
	c-0.165-0.132-0.329-0.265-0.485-0.404c-0.056-0.051-0.108-0.102-0.162-0.153c-0.789-0.732-1.449-1.56-1.956-2.465
	c-0.016-0.03-0.033-0.06-0.051-0.089c-0.119-0.22-0.23-0.444-0.331-0.672c-0.015-0.032-0.028-0.067-0.042-0.099
	c-0.462-1.074-0.727-2.227-0.727-3.437c0-5.531,5.269-10.014,11.767-10.014C330.312,298.368,331.252,298.48,332.155,298.669z
	 M343.362,172.826v72.902c0,0.968-0.785,1.754-1.754,1.754H315.53c-0.169,0-0.334-0.032-0.494-0.079
	c-0.018-0.006-0.034-0.014-0.053-0.02c-0.152-0.05-0.294-0.12-0.427-0.21c-0.001,0-0.002,0-0.003-0.001
	c-0.16-0.109-0.307-0.233-0.426-0.39c-0.111-0.149-0.186-0.314-0.245-0.484c1.362-5.047,2.102-10.348,2.102-15.825
	c0-14.407-5.04-27.632-13.441-38.026c-2.078-2.572-4.362-4.968-6.826-7.167c-0.018-0.017-0.037-0.032-0.055-0.049
	c-0.767-0.683-1.554-1.345-2.356-1.989c-0.125-0.101-0.252-0.198-0.378-0.298c-0.705-0.557-1.422-1.097-2.151-1.624
	c-0.175-0.125-0.349-0.25-0.526-0.375c-0.701-0.493-1.412-0.97-2.133-1.435c-0.193-0.123-0.384-0.248-0.578-0.37
	c-0.739-0.465-1.492-0.91-2.252-1.342c-0.174-0.099-0.343-0.202-0.516-0.298c-0.874-0.484-1.759-0.949-2.658-1.39
	c-0.061-0.029-0.119-0.063-0.18-0.093c-1.946-0.95-3.952-1.795-6.007-2.535c-0.245-0.088-0.495-0.165-0.742-0.25
	c-0.757-0.261-1.517-0.512-2.287-0.744c-0.347-0.106-0.698-0.201-1.05-0.299c-0.681-0.192-1.366-0.375-2.057-0.542
	c-0.392-0.096-0.787-0.185-1.184-0.274c-0.664-0.148-1.333-0.283-2.006-0.41c-0.412-0.075-0.824-0.152-1.236-0.22
	c-0.679-0.112-1.365-0.208-2.05-0.298c-0.407-0.053-0.814-0.111-1.224-0.156c-0.743-0.081-1.493-0.14-2.243-0.194
	c-0.357-0.027-0.71-0.063-1.067-0.081c-1.109-0.061-2.225-0.097-3.349-0.097c-0.706,0-1.41,0.014-2.109,0.038
	c-0.234,0.008-0.465,0.023-0.696,0.033c-0.467,0.022-0.931,0.043-1.395,0.074c-0.278,0.019-0.554,0.045-0.831,0.068
	c-0.413,0.033-0.827,0.068-1.237,0.111c-0.296,0.03-0.593,0.066-0.888,0.102c-0.388,0.045-0.777,0.093-1.163,0.146
	c-0.304,0.042-0.608,0.088-0.911,0.135c-0.373,0.057-0.745,0.115-1.113,0.18c-0.31,0.054-0.621,0.11-0.93,0.168
	c-0.359,0.068-0.717,0.139-1.072,0.212c-0.313,0.065-0.624,0.132-0.936,0.201c-0.348,0.078-0.695,0.16-1.04,0.245
	c-0.316,0.077-0.631,0.154-0.944,0.235c-0.335,0.087-0.666,0.179-0.998,0.272c-0.32,0.089-0.64,0.177-0.958,0.272
	s-0.634,0.196-0.951,0.294c-0.326,0.102-0.651,0.203-0.973,0.309c-0.294,0.099-0.585,0.204-0.877,0.306
	c-0.341,0.12-0.682,0.236-1.02,0.361c-0.194,0.071-0.384,0.151-0.577,0.224c-0.908,0.347-1.804,0.714-2.689,1.103
	c-0.099,0.043-0.201,0.083-0.298,0.127c-0.411,0.183-0.816,0.376-1.221,0.567c-0.186,0.088-0.375,0.174-0.561,0.263
	c-0.39,0.191-0.777,0.387-1.162,0.585c-0.194,0.1-0.389,0.197-0.582,0.299c-0.385,0.203-0.764,0.412-1.145,0.621
	c-0.188,0.105-0.375,0.207-0.561,0.313c-0.382,0.217-0.759,0.439-1.136,0.664c-0.177,0.106-0.354,0.211-0.529,0.319
	c-0.383,0.234-0.762,0.472-1.138,0.714c-0.16,0.103-0.32,0.206-0.479,0.31c-0.388,0.254-0.774,0.513-1.156,0.776
	c-0.136,0.095-0.272,0.19-0.406,0.285c-0.399,0.28-0.795,0.562-1.188,0.852c-0.105,0.077-0.207,0.155-0.31,0.233
	c-0.42,0.315-0.838,0.632-1.249,0.956c-0.044,0.036-0.088,0.071-0.133,0.108c-3.383,2.684-6.474,5.721-9.215,9.056
	c-0.013,0.016-0.025,0.031-0.038,0.046c-0.376,0.459-0.745,0.924-1.108,1.394c-0.026,0.035-0.053,0.068-0.079,0.103
	c-0.356,0.464-0.705,0.931-1.049,1.406c-0.027,0.038-0.056,0.077-0.083,0.114c-0.344,0.478-0.682,0.961-1.013,1.45
	c-0.018,0.027-0.036,0.054-0.055,0.081c-0.338,0.503-0.672,1.011-0.997,1.525c0,0,0,0.001-0.001,0.001
	c-0.979,1.55-1.896,3.141-2.734,4.782c-3.449,6.377-5.809,13.773-6.786,21.602c-0.503,3.52-0.503,7.523-0.004,11.009
	c0.565,5.931,2.032,11.613,4.27,16.795c2.287,5.894,5.477,11.334,9.387,16.165c0.004,0.005,0.009,0.012,0.014,0.017
	c1.325,1.636,2.734,3.201,4.22,4.69c0.013,0.014,0.025,0.026,0.038,0.039c1.47,1.471,3.017,2.866,4.632,4.18
	c0.04,0.032,0.08,0.065,0.12,0.097c1.594,1.291,3.255,2.502,4.978,3.628c0.072,0.047,0.146,0.094,0.218,0.14
	c0.843,0.546,1.699,1.075,2.57,1.579c0.006,0.004,0.014,0.009,0.019,0.013c0.881,0.51,1.779,0.996,2.687,1.462
	c0.106,0.054,0.211,0.106,0.317,0.16c0.816,0.412,1.642,0.805,2.477,1.181c0.106,0.047,0.209,0.097,0.315,0.144
	c0.905,0.401,1.823,0.78,2.752,1.137c0.129,0.05,0.261,0.096,0.39,0.144c0.807,0.304,1.624,0.591,2.447,0.861
	c0.179,0.058,0.356,0.119,0.536,0.176c0.93,0.295,1.869,0.572,2.82,0.824c0.132,0.035,0.265,0.066,0.398,0.099
	c0.828,0.213,1.661,0.406,2.501,0.585c0.23,0.049,0.458,0.098,0.688,0.144c0.959,0.192,1.923,0.366,2.898,0.512
	c0.101,0.016,0.204,0.026,0.305,0.041c0.882,0.127,1.771,0.232,2.665,0.321c0.257,0.025,0.514,0.051,0.774,0.072
	c0.993,0.086,1.991,0.157,2.997,0.195v18.912c0,0.968-0.786,1.754-1.754,1.754h-64.15c-0.691,0-1.414-0.044-2.213-0.132
	l-0.354-0.039c-0.696-0.085-1.394-0.211-2.122-0.382c-0.003-0.001-0.127-0.03-0.127-0.03c-1.871-0.451-3.794-1.173-5.876-2.211
	c-0.318-0.157-0.576-0.407-0.745-0.708c-6.75-4.412-11.31-12.393-11.699-20.595l-0.003-118.476
	c0.551-10.52,8.29-22.492,19.835-23.647c0.059-0.006,0.116-0.01,0.175-0.01h139.249c0.106,0,0.209,0.01,0.313,0.028
	c3.535,0.64,6.951,2.258,9.928,4.693c0.278,0.054,0.548,0.175,0.78,0.366C340.796,155.749,344.398,164.71,343.362,172.826z"/>
<g>
</g>
<g>
</g>
<g>
</g>
<g>
</g>
<g>
</g>
<g>
</g>
<g>
</g>
<g>
</g>
<g>
</g>
<g>
</g>
<g>
</g>
<g>
</g>
<g>
</g>
<g>
</g>
<g>
</g>
</svg>
